<svg xmlns="http://www.w3.org/2000/svg" xmlns:xlink="http://www.w3.org/1999/xlink" width="500" zoomAndPan="magnify" viewBox="0 0 375 374.999991" height="500" preserveAspectRatio="xMidYMid meet" version="1.0"><defs><g/></defs><g fill="#ffffff" fill-opacity="1"><g transform="translate(132.856124, 211.653209)"><g><path d="M 167.65625 -92.171875 C 168.46875 -91.691406 168.984375 -91.050781 169.203125 -90.25 C 169.421875 -89.457031 169.289062 -88.65625 168.8125 -87.84375 C 168.09375 -86.6875 167.207031 -85.628906 166.15625 -84.671875 C 164.03125 -82.703125 161.691406 -80.921875 159.140625 -79.328125 C 146.265625 -70.910156 132.394531 -64.515625 117.53125 -60.140625 C 116.84375 -59.941406 116.160156 -59.722656 115.484375 -59.484375 C 114.484375 -59.148438 113.457031 -58.84375 112.40625 -58.5625 C 112.125 -58.457031 111.863281 -58.488281 111.625 -58.65625 C 111.382812 -58.832031 111.226562 -59.085938 111.15625 -59.421875 C 111.15625 -59.566406 111.210938 -59.742188 111.328125 -59.953125 C 111.453125 -60.160156 111.59375 -60.300781 111.75 -60.375 C 113 -60.894531 114.300781 -61.375 115.65625 -61.8125 C 130.5625 -66.75 144.53125 -73.625 157.5625 -82.4375 C 159.15625 -83.59375 160.695312 -84.796875 162.1875 -86.046875 C 162.382812 -86.242188 162.601562 -86.40625 162.84375 -86.53125 C 163.601562 -87.164062 164.148438 -87.960938 164.484375 -88.921875 C 164.679688 -89.492188 164.515625 -89.976562 163.984375 -90.375 C 163.398438 -90.75 162.742188 -90.96875 162.015625 -91.03125 C 161.890625 -91.03125 161.75 -91.050781 161.59375 -91.09375 C 158.75 -91.570312 155.898438 -91.8125 153.046875 -91.8125 C 150.191406 -91.8125 147.347656 -91.691406 144.515625 -91.453125 C 138.066406 -90.816406 131.644531 -89.945312 125.25 -88.84375 C 118.851562 -87.738281 112.472656 -86.507812 106.109375 -85.15625 C 87.265625 -81.175781 68.726562 -76.128906 50.5 -70.015625 C 44.007812 -67.847656 37.578125 -65.539062 31.203125 -63.09375 C 24.828125 -60.644531 18.535156 -57.957031 12.328125 -55.03125 C 10.640625 -54.195312 8.957031 -53.375 7.28125 -52.5625 C 6.382812 -52.082031 5.457031 -51.601562 4.5 -51.125 C 4.34375 -51.082031 4.21875 -51.003906 4.125 -50.890625 C 3.5 -50.566406 2.847656 -50.304688 2.171875 -50.109375 C 1.835938 -49.972656 1.488281 -49.914062 1.125 -49.9375 C 0.769531 -49.957031 0.492188 -50.113281 0.296875 -50.40625 C 0.0976562 -50.789062 0.0976562 -51.125 0.296875 -51.40625 C 0.492188 -51.695312 0.753906 -51.941406 1.078125 -52.140625 C 1.117188 -52.179688 1.195312 -52.222656 1.3125 -52.265625 C 2.882812 -53.179688 4.515625 -54.078125 6.203125 -54.953125 C 11.597656 -57.691406 17.09375 -60.210938 22.6875 -62.515625 C 28.289062 -64.816406 33.953125 -66.988281 39.671875 -69.03125 C 62.710938 -77.25 86.210938 -83.757812 110.171875 -88.5625 C 115.941406 -89.726562 121.710938 -90.789062 127.484375 -91.75 C 133.265625 -92.707031 139.082031 -93.425781 144.9375 -93.90625 C 146.625 -94 148.328125 -94.085938 150.046875 -94.171875 C 150.816406 -94.242188 151.617188 -94.300781 152.453125 -94.34375 C 156.054688 -94.34375 159.660156 -94.078125 163.265625 -93.546875 C 164.796875 -93.359375 166.257812 -92.898438 167.65625 -92.171875 Z M 78.5 -25.015625 C 78.832031 -24.953125 79.144531 -24.835938 79.4375 -24.671875 C 79.726562 -24.503906 79.945312 -24.320312 80.09375 -24.125 C 80.238281 -23.9375 80.253906 -23.753906 80.140625 -23.578125 C 79.898438 -23.273438 79.625 -23.097656 79.3125 -23.046875 C 79.007812 -23.003906 78.71875 -22.984375 78.4375 -22.984375 C 78.375 -22.984375 78.316406 -22.984375 78.265625 -22.984375 C 73.128906 -22.984375 67.960938 -22.742188 62.765625 -22.265625 C 60.023438 -22.023438 57.257812 -21.828125 54.46875 -21.671875 C 53.550781 -21.628906 52.925781 -21.148438 52.59375 -20.234375 C 52.3125 -19.515625 51.992188 -18.789062 51.640625 -18.0625 C 51.472656 -17.644531 51.3125 -17.222656 51.15625 -16.796875 C 50.476562 -15.234375 49.832031 -13.710938 49.21875 -12.234375 C 43.925781 0.640625 38.414062 13.429688 32.6875 26.140625 C 31.050781 29.648438 29.316406 33.113281 27.484375 36.53125 C 27.484375 36.570312 27.457031 36.613281 27.40625 36.65625 C 26.84375 37.769531 26.125 38.832031 25.25 39.84375 C 24.476562 40.757812 23.472656 41.078125 22.234375 40.796875 C 21.878906 40.679688 21.582031 40.503906 21.34375 40.265625 C 21.101562 40.023438 20.984375 39.71875 20.984375 39.34375 C 21.046875 38.519531 21.203125 37.703125 21.453125 36.890625 C 21.617188 36.316406 21.800781 35.71875 22 35.09375 C 22.96875 31.957031 23.984375 28.828125 25.046875 25.703125 C 29.859375 11.910156 35.457031 -1.550781 41.84375 -14.6875 C 42.4375 -15.9375 43.132812 -17.160156 43.9375 -18.359375 C 44.132812 -18.648438 44.410156 -18.820312 44.765625 -18.875 C 45.128906 -18.925781 45.476562 -18.898438 45.8125 -18.796875 C 46.394531 -18.617188 46.609375 -18.164062 46.453125 -17.4375 C 46.304688 -16.71875 46.007812 -15.890625 45.5625 -14.953125 C 45.113281 -14.015625 44.671875 -13.179688 44.234375 -12.453125 C 43.878906 -11.867188 43.640625 -11.4375 43.515625 -11.15625 C 36.910156 3.03125 33.226562 11.304688 32.46875 13.671875 C 32.175781 14.484375 32.03125 15.03125 32.03125 15.3125 C 32.03125 15.59375 32.128906 15.710938 32.328125 15.671875 C 32.523438 15.628906 32.742188 15.5 32.984375 15.28125 C 33.222656 15.0625 33.445312 14.832031 33.65625 14.59375 C 33.863281 14.351562 34 14.1875 34.0625 14.09375 C 34.351562 13.375 34.660156 12.632812 34.984375 11.875 C 36.054688 9.40625 37.117188 6.945312 38.171875 4.5 C 38.492188 3.769531 38.8125 3.046875 39.125 2.328125 C 41.375 -3.003906 43.601562 -8.335938 45.8125 -13.671875 C 45.914062 -13.867188 46.054688 -14.164062 46.234375 -14.5625 C 46.628906 -15.320312 47.046875 -16.21875 47.484375 -17.25 C 47.921875 -18.28125 48.195312 -19.203125 48.3125 -20.015625 C 48.4375 -20.835938 48.222656 -21.269531 47.671875 -21.3125 C 46.578125 -21.3125 45.472656 -21.3125 44.359375 -21.3125 C 43.640625 -21.3125 42.921875 -21.3125 42.203125 -21.3125 C 41.585938 -21.3125 40.941406 -21.3125 40.265625 -21.3125 C 38.148438 -21.3125 36.03125 -21.34375 33.90625 -21.40625 C 33.332031 -21.457031 32.804688 -21.601562 32.328125 -21.84375 C 32.285156 -21.882812 32.25 -21.960938 32.21875 -22.078125 C 32.1875 -22.203125 32.148438 -22.34375 32.109375 -22.5 C 32.109375 -22.539062 32.109375 -22.582031 32.109375 -22.625 C 32.109375 -22.664062 32.132812 -22.710938 32.1875 -22.765625 C 32.238281 -22.828125 32.285156 -22.878906 32.328125 -22.921875 C 32.617188 -23.117188 32.90625 -23.238281 33.1875 -23.28125 C 33.46875 -23.320312 33.757812 -23.34375 34.0625 -23.34375 C 34.15625 -23.34375 34.242188 -23.34375 34.328125 -23.34375 C 35.535156 -23.382812 36.738281 -23.429688 37.9375 -23.484375 C 41.0625 -23.679688 44.1875 -23.800781 47.3125 -23.84375 C 48.382812 -23.84375 49.222656 -24.070312 49.828125 -24.53125 C 50.429688 -24.988281 50.894531 -25.695312 51.21875 -26.65625 C 52.769531 -30.65625 54.332031 -34.644531 55.90625 -38.625 C 57.59375 -42.863281 59.253906 -47.101562 60.890625 -51.34375 C 62.140625 -54.601562 63.320312 -57.875 64.4375 -61.15625 C 65.050781 -62.882812 65.671875 -64.632812 66.296875 -66.40625 C 66.296875 -66.46875 66.320312 -66.519531 66.375 -66.5625 C 66.613281 -67.332031 66.925781 -68.035156 67.3125 -68.671875 C 67.5625 -68.992188 67.851562 -69.164062 68.1875 -69.1875 C 68.53125 -69.207031 68.882812 -69.175781 69.25 -69.09375 C 69.539062 -68.9375 69.769531 -68.75 69.9375 -68.53125 C 70.113281 -68.3125 70.179688 -68.0625 70.140625 -67.78125 C 69.984375 -66.6875 69.765625 -65.601562 69.484375 -64.53125 C 67.890625 -59.28125 66.085938 -54.132812 64.078125 -49.09375 C 63.960938 -48.957031 63.882812 -48.8125 63.84375 -48.65625 C 62.03125 -43.894531 60.160156 -39.164062 58.234375 -34.46875 C 57.359375 -32.300781 56.484375 -30.132812 55.609375 -27.96875 C 55.609375 -27.925781 55.609375 -27.90625 55.609375 -27.90625 C 55.367188 -27.269531 55.128906 -26.613281 54.890625 -25.9375 C 54.648438 -25.320312 54.640625 -24.878906 54.859375 -24.609375 C 55.078125 -24.335938 55.546875 -24.203125 56.265625 -24.203125 C 57.234375 -24.203125 58.195312 -24.253906 59.15625 -24.359375 C 59.59375 -24.359375 60.03125 -24.359375 60.46875 -24.359375 C 60.550781 -24.359375 60.613281 -24.378906 60.65625 -24.421875 C 66.1875 -24.617188 71.695312 -24.816406 77.1875 -25.015625 C 77.625 -25.054688 78.0625 -25.054688 78.5 -25.015625 Z M 78.5 -25.015625 "/></g></g></g></svg>