<svg xmlns="http://www.w3.org/2000/svg" xmlns:xlink="http://www.w3.org/1999/xlink" width="500" zoomAndPan="magnify" viewBox="0 0 375 374.999991" height="500" preserveAspectRatio="xMidYMid meet" version="1.0"><defs><g/><clipPath id="id1"><path d="M 129.453125 129.453125 L 245.703125 129.453125 L 245.703125 245.703125 L 129.453125 245.703125 Z M 129.453125 129.453125 " clip-rule="nonzero"/></clipPath><clipPath id="id2"><path d="M 108.636719 178.175781 L 113.613281 178.175781 L 113.613281 183.152344 L 108.636719 183.152344 Z M 108.636719 178.175781 " clip-rule="nonzero"/></clipPath><clipPath id="id3"><path d="M 259.933594 178.175781 L 264.910156 178.175781 L 264.910156 183.152344 L 259.933594 183.152344 Z M 259.933594 178.175781 " clip-rule="nonzero"/></clipPath></defs><g clip-path="url(#id1)"><path fill="#292c5d" d="M 187.578125 129.453125 C 155.476562 129.453125 129.453125 155.476562 129.453125 187.578125 C 129.453125 219.679688 155.476562 245.703125 187.578125 245.703125 C 219.679688 245.703125 245.703125 219.679688 245.703125 187.578125 C 245.703125 155.476562 219.679688 129.453125 187.578125 129.453125 " fill-opacity="1" fill-rule="nonzero"/></g><g fill="#ffffff" fill-opacity="1"><g transform="translate(151.75312, 200.009312)"><g><path d="M 73.65625 -40.484375 C 74.007812 -40.273438 74.234375 -39.992188 74.328125 -39.640625 C 74.421875 -39.296875 74.363281 -38.945312 74.15625 -38.59375 C 73.832031 -38.082031 73.441406 -37.613281 72.984375 -37.1875 C 72.054688 -36.320312 71.03125 -35.539062 69.90625 -34.84375 C 64.25 -31.144531 58.15625 -28.335938 51.625 -26.421875 C 51.320312 -26.328125 51.023438 -26.226562 50.734375 -26.125 C 50.285156 -25.976562 49.832031 -25.84375 49.375 -25.71875 C 49.25 -25.675781 49.132812 -25.691406 49.03125 -25.765625 C 48.925781 -25.847656 48.859375 -25.957031 48.828125 -26.09375 C 48.828125 -26.164062 48.851562 -26.242188 48.90625 -26.328125 C 48.957031 -26.421875 49.019531 -26.484375 49.09375 -26.515625 C 49.632812 -26.742188 50.203125 -26.957031 50.796875 -27.15625 C 57.347656 -29.320312 63.488281 -32.34375 69.21875 -36.21875 C 69.914062 -36.71875 70.59375 -37.242188 71.25 -37.796875 C 71.332031 -37.878906 71.425781 -37.953125 71.53125 -38.015625 C 71.863281 -38.296875 72.101562 -38.644531 72.25 -39.0625 C 72.332031 -39.3125 72.257812 -39.523438 72.03125 -39.703125 C 71.769531 -39.859375 71.484375 -39.953125 71.171875 -39.984375 C 71.109375 -39.984375 71.046875 -39.992188 70.984375 -40.015625 C 69.734375 -40.222656 68.484375 -40.328125 67.234375 -40.328125 C 65.984375 -40.328125 64.734375 -40.273438 63.484375 -40.171875 C 60.648438 -39.890625 57.828125 -39.503906 55.015625 -39.015625 C 52.203125 -38.535156 49.398438 -38 46.609375 -37.40625 C 38.335938 -35.65625 30.195312 -33.4375 22.1875 -30.75 C 19.332031 -29.800781 16.503906 -28.785156 13.703125 -27.703125 C 10.898438 -26.628906 8.140625 -25.453125 5.421875 -24.171875 C 4.679688 -23.804688 3.941406 -23.445312 3.203125 -23.09375 C 2.804688 -22.875 2.394531 -22.660156 1.96875 -22.453125 C 1.90625 -22.429688 1.851562 -22.398438 1.8125 -22.359375 C 1.53125 -22.210938 1.242188 -22.097656 0.953125 -22.015625 C 0.804688 -21.953125 0.65625 -21.925781 0.5 -21.9375 C 0.34375 -21.945312 0.21875 -22.015625 0.125 -22.140625 C 0.0390625 -22.316406 0.0390625 -22.460938 0.125 -22.578125 C 0.21875 -22.703125 0.332031 -22.8125 0.46875 -22.90625 C 0.488281 -22.925781 0.523438 -22.941406 0.578125 -22.953125 C 1.265625 -23.359375 1.976562 -23.753906 2.71875 -24.140625 C 5.09375 -25.335938 7.507812 -26.441406 9.96875 -27.453125 C 12.425781 -28.472656 14.910156 -29.429688 17.421875 -30.328125 C 27.546875 -33.929688 37.875 -36.789062 48.40625 -38.90625 C 50.9375 -39.414062 53.46875 -39.878906 56 -40.296875 C 58.539062 -40.722656 61.097656 -41.039062 63.671875 -41.25 C 64.410156 -41.289062 65.160156 -41.332031 65.921875 -41.375 C 66.253906 -41.394531 66.601562 -41.414062 66.96875 -41.4375 C 68.550781 -41.4375 70.132812 -41.320312 71.71875 -41.09375 C 72.394531 -41.007812 73.039062 -40.804688 73.65625 -40.484375 Z M 34.484375 -10.984375 C 34.628906 -10.960938 34.765625 -10.914062 34.890625 -10.84375 C 35.023438 -10.769531 35.125 -10.6875 35.1875 -10.59375 C 35.25 -10.507812 35.253906 -10.429688 35.203125 -10.359375 C 35.097656 -10.222656 34.976562 -10.144531 34.84375 -10.125 C 34.707031 -10.101562 34.578125 -10.09375 34.453125 -10.09375 C 34.421875 -10.09375 34.398438 -10.09375 34.390625 -10.09375 C 32.128906 -10.09375 29.851562 -9.988281 27.5625 -9.78125 C 26.363281 -9.675781 25.148438 -9.585938 23.921875 -9.515625 C 23.523438 -9.503906 23.253906 -9.296875 23.109375 -8.890625 C 22.984375 -8.566406 22.84375 -8.25 22.6875 -7.9375 C 22.613281 -7.75 22.539062 -7.5625 22.46875 -7.375 C 22.175781 -6.695312 21.894531 -6.03125 21.625 -5.375 C 19.300781 0.28125 16.878906 5.898438 14.359375 11.484375 C 13.640625 13.023438 12.878906 14.546875 12.078125 16.046875 C 12.078125 16.066406 12.066406 16.085938 12.046875 16.109375 C 11.796875 16.597656 11.476562 17.0625 11.09375 17.5 C 10.757812 17.90625 10.316406 18.046875 9.765625 17.921875 C 9.609375 17.867188 9.476562 17.789062 9.375 17.6875 C 9.269531 17.582031 9.21875 17.445312 9.21875 17.28125 C 9.25 16.914062 9.316406 16.554688 9.421875 16.203125 C 9.492188 15.953125 9.578125 15.6875 9.671875 15.40625 C 10.085938 14.039062 10.53125 12.671875 11 11.296875 C 13.113281 5.234375 15.570312 -0.679688 18.375 -6.453125 C 18.632812 -7.003906 18.941406 -7.539062 19.296875 -8.0625 C 19.390625 -8.1875 19.515625 -8.257812 19.671875 -8.28125 C 19.828125 -8.3125 19.976562 -8.300781 20.125 -8.25 C 20.382812 -8.175781 20.476562 -7.976562 20.40625 -7.65625 C 20.34375 -7.34375 20.210938 -6.976562 20.015625 -6.5625 C 19.816406 -6.15625 19.625 -5.789062 19.4375 -5.46875 C 19.28125 -5.207031 19.171875 -5.015625 19.109375 -4.890625 C 16.210938 1.335938 14.597656 4.96875 14.265625 6 C 14.140625 6.363281 14.078125 6.609375 14.078125 6.734375 C 14.078125 6.859375 14.117188 6.910156 14.203125 6.890625 C 14.285156 6.867188 14.378906 6.804688 14.484375 6.703125 C 14.597656 6.609375 14.695312 6.507812 14.78125 6.40625 C 14.875 6.300781 14.9375 6.226562 14.96875 6.1875 C 15.09375 5.875 15.226562 5.550781 15.375 5.21875 C 15.84375 4.132812 16.304688 3.050781 16.765625 1.96875 C 16.910156 1.65625 17.050781 1.335938 17.1875 1.015625 C 18.175781 -1.316406 19.15625 -3.65625 20.125 -6 C 20.164062 -6.09375 20.226562 -6.222656 20.3125 -6.390625 C 20.476562 -6.734375 20.65625 -7.128906 20.84375 -7.578125 C 21.039062 -8.023438 21.164062 -8.425781 21.21875 -8.78125 C 21.269531 -9.144531 21.175781 -9.335938 20.9375 -9.359375 C 20.457031 -9.359375 19.972656 -9.359375 19.484375 -9.359375 C 19.171875 -9.359375 18.851562 -9.359375 18.53125 -9.359375 C 18.269531 -9.359375 17.988281 -9.359375 17.6875 -9.359375 C 16.757812 -9.359375 15.828125 -9.375 14.890625 -9.40625 C 14.640625 -9.425781 14.410156 -9.488281 14.203125 -9.59375 C 14.179688 -9.613281 14.160156 -9.648438 14.140625 -9.703125 C 14.128906 -9.753906 14.117188 -9.8125 14.109375 -9.875 C 14.109375 -9.894531 14.109375 -9.914062 14.109375 -9.9375 C 14.109375 -9.957031 14.117188 -9.976562 14.140625 -10 C 14.160156 -10.03125 14.179688 -10.050781 14.203125 -10.0625 C 14.328125 -10.15625 14.453125 -10.207031 14.578125 -10.21875 C 14.703125 -10.238281 14.832031 -10.25 14.96875 -10.25 C 15.007812 -10.25 15.046875 -10.25 15.078125 -10.25 C 15.609375 -10.269531 16.140625 -10.289062 16.671875 -10.3125 C 18.035156 -10.394531 19.40625 -10.445312 20.78125 -10.46875 C 21.25 -10.46875 21.613281 -10.566406 21.875 -10.765625 C 22.144531 -10.972656 22.351562 -11.285156 22.5 -11.703125 C 23.175781 -13.460938 23.863281 -15.21875 24.5625 -16.96875 C 25.300781 -18.832031 26.03125 -20.695312 26.75 -22.5625 C 27.289062 -23.988281 27.804688 -25.421875 28.296875 -26.859375 C 28.566406 -27.617188 28.84375 -28.390625 29.125 -29.171875 C 29.125 -29.203125 29.132812 -29.222656 29.15625 -29.234375 C 29.257812 -29.578125 29.398438 -29.882812 29.578125 -30.15625 C 29.679688 -30.300781 29.804688 -30.378906 29.953125 -30.390625 C 30.097656 -30.398438 30.253906 -30.382812 30.421875 -30.34375 C 30.546875 -30.28125 30.644531 -30.203125 30.71875 -30.109375 C 30.800781 -30.015625 30.832031 -29.90625 30.8125 -29.78125 C 30.738281 -29.289062 30.640625 -28.8125 30.515625 -28.34375 C 29.816406 -26.039062 29.023438 -23.78125 28.140625 -21.5625 C 28.097656 -21.507812 28.066406 -21.445312 28.046875 -21.375 C 27.242188 -19.28125 26.421875 -17.203125 25.578125 -15.140625 C 25.191406 -14.191406 24.8125 -13.238281 24.4375 -12.28125 C 24.4375 -12.269531 24.4375 -12.265625 24.4375 -12.265625 C 24.320312 -11.984375 24.210938 -11.691406 24.109375 -11.390625 C 24.003906 -11.117188 24 -10.921875 24.09375 -10.796875 C 24.195312 -10.679688 24.40625 -10.625 24.71875 -10.625 C 25.144531 -10.625 25.566406 -10.648438 25.984375 -10.703125 C 26.179688 -10.703125 26.375 -10.703125 26.5625 -10.703125 C 26.601562 -10.703125 26.628906 -10.710938 26.640625 -10.734375 C 29.078125 -10.816406 31.5 -10.898438 33.90625 -10.984375 C 34.101562 -11.003906 34.296875 -11.003906 34.484375 -10.984375 Z M 34.484375 -10.984375 "/></g></g></g><g fill="#292c5d" fill-opacity="1"><g transform="translate(118.151685, 165.080582)"><g><path d="M -7.375 -6.496094 L -4.914062 -12.277344 L -5.992188 -12.738281 L -9.035156 -5.585938 L 0.628906 -1.476562 L 3.667969 -8.628906 L 2.59375 -9.085938 L 0.132812 -3.300781 L -3.222656 -4.726562 L -0.878906 -10.234375 L -1.914062 -10.675781 L -4.257812 -5.167969 Z M -7.375 -6.496094 "/></g></g></g><g fill="#292c5d" fill-opacity="1"><g transform="translate(122.500318, 154.861986)"><g><path d="M -1.84375 -8.347656 C -3.359375 -6.449219 -4.035156 -5.828125 -4.972656 -6.421875 C -6.066406 -7.109375 -5.769531 -8.734375 -4.855469 -10.265625 C -4.148438 -11.46875 -3.066406 -12.648438 -1.988281 -13.230469 L -2.890625 -14.046875 C -4.097656 -13.175781 -5.152344 -12.015625 -5.882812 -10.828125 C -7.265625 -8.578125 -7.457031 -6.253906 -5.683594 -5.132812 C -4.109375 -4.136719 -3.046875 -5.152344 -1.21875 -7.457031 C 0.15625 -9.179688 1.054688 -10.101562 2.195312 -9.378906 C 3.441406 -8.597656 3.308594 -7.261719 2.003906 -5.28125 C 1.207031 -4.046875 0.0078125 -3.101562 -1.136719 -2.472656 L -0.117188 -1.777344 C 0.910156 -2.28125 2.273438 -3.375 3.078125 -4.621094 C 4.753906 -7.25 4.878906 -9.441406 2.886719 -10.699219 C 1.136719 -11.804688 -0.199219 -10.414062 -1.84375 -8.347656 Z M -1.84375 -8.347656 "/></g></g></g><g fill="#292c5d" fill-opacity="1"><g transform="translate(129.202957, 144.365367)"><g><path d="M -3.683594 -11.605469 L -6.734375 -8.214844 L 1.074219 -1.195312 L 2.066406 -2.296875 L -0.398438 -4.515625 L 1.65625 -6.800781 C 3.53125 -8.886719 3.660156 -11.292969 1.964844 -12.816406 C 0.4375 -14.191406 -1.820312 -13.699219 -3.683594 -11.605469 Z M 1.015625 -11.675781 C 2.1875 -10.621094 2.105469 -8.980469 0.820312 -7.554688 L -1.234375 -5.265625 L -4.871094 -8.535156 L -2.816406 -10.824219 C -1.53125 -12.25 -0.0078125 -12.597656 1.015625 -11.675781 Z M 1.015625 -11.675781 "/></g></g></g><g fill="#292c5d" fill-opacity="1"><g transform="translate(137.523142, 135.207024)"><g><path d="M 8.882812 -7.046875 L -0.992188 -12.617188 L -3 -11.023438 L 0.164062 -0.128906 L 1.386719 -1.101562 L 0.546875 -3.917969 L 5.109375 -7.535156 L 7.660156 -6.078125 Z M 4.140625 -8.148438 L 0.171875 -5 L -1.605469 -10.882812 L -1.207031 -11.199219 Z M 4.140625 -8.148438 "/></g></g></g><g fill="#292c5d" fill-opacity="1"><g transform="translate(147.103706, 127.640695)"><g><path d="M 5.554688 -2.910156 C 8.164062 -4.332031 9.152344 -6.683594 8.011719 -8.777344 L 6.695312 -8.058594 C 7.5 -6.582031 6.824219 -4.933594 5.007812 -3.945312 C 3.074219 -2.886719 0.921875 -3.730469 -0.355469 -6.074219 C -1.5 -8.167969 -0.957031 -10.277344 0.980469 -11.332031 C 2.71875 -12.28125 4.460938 -12 5.300781 -10.613281 L 6.617188 -11.332031 C 5.507812 -13.371094 3.015625 -13.773438 0.40625 -12.351562 C -2.304688 -10.871094 -3.140625 -8.078125 -1.660156 -5.363281 C -0.0507812 -2.414062 2.84375 -1.429688 5.554688 -2.910156 Z M 5.554688 -2.910156 "/></g></g></g><g fill="#292c5d" fill-opacity="1"><g transform="translate(158.78035, 121.611934)"><g><path d="M 1.496094 -0.582031 L 2.878906 -1.121094 L -0.929688 -10.90625 L -2.3125 -10.367188 Z M 1.496094 -0.582031 "/></g></g></g><g fill="#292c5d" fill-opacity="1"><g transform="translate(163.919031, 119.405253)"><g><path d="M 6.054688 -1.390625 C 9.023438 -2.125 10.480469 -4.738281 9.691406 -7.929688 C 8.929688 -11 6.441406 -12.5625 3.472656 -11.828125 C 0.5 -11.09375 -0.960938 -8.507812 -0.183594 -5.363281 C 0.585938 -2.246094 3.082031 -0.65625 6.054688 -1.390625 Z M 5.773438 -2.523438 C 3.675781 -2.007812 1.867188 -3.257812 1.273438 -5.660156 C 0.652344 -8.164062 1.65625 -10.175781 3.753906 -10.695312 C 5.863281 -11.214844 7.660156 -9.945312 8.261719 -7.511719 C 8.875 -5.039062 7.882812 -3.046875 5.773438 -2.523438 Z M 5.773438 -2.523438 "/></g></g></g><g fill="#292c5d" fill-opacity="1"><g transform="translate(176.924925, 116.522705)"><g/></g></g><g fill="#292c5d" fill-opacity="1"><g transform="translate(181.396443, 115.802642)"><g><path d="M 11.339844 -0.0546875 L 7.015625 -10.535156 L 4.449219 -10.519531 L 0.210938 0 L 1.769531 -0.0078125 L 2.851562 -2.742188 L 8.671875 -2.773438 L 9.78125 -0.046875 Z M 8.292969 -3.851562 L 3.222656 -3.824219 L 5.460938 -9.550781 L 5.96875 -9.554688 Z M 8.292969 -3.851562 "/></g></g></g><g fill="#292c5d" fill-opacity="1"><g transform="translate(193.607605, 115.774252)"><g><path d="M 9.3125 -3.472656 L 9.324219 -3.546875 C 10.503906 -3.515625 11.640625 -4.484375 11.890625 -5.976562 C 12.160156 -7.574219 10.820312 -8.832031 8.554688 -9.210938 L 3.316406 -10.089844 L 1.582031 0.265625 L 3.046875 0.511719 L 3.777344 -3.839844 L 7.386719 -3.234375 C 8.910156 -2.976562 9.804688 -2.054688 9.617188 -0.929688 L 9.246094 1.550781 L 10.695312 1.792969 L 11.140625 -0.871094 C 11.34375 -2.070312 10.5 -3.121094 9.3125 -3.472656 Z M 7.707031 -4.320312 L 3.960938 -4.949219 L 4.597656 -8.734375 L 8.148438 -8.140625 C 9.65625 -7.886719 10.5625 -7.035156 10.378906 -5.941406 C 10.179688 -4.742188 9.109375 -4.085938 7.707031 -4.320312 Z M 7.707031 -4.320312 "/></g></g></g><g fill="#292c5d" fill-opacity="1"><g transform="translate(206.273867, 118.023466)"><g><path d="M 13.039062 -6.628906 L 3.734375 -9.820312 L 3.351562 -8.714844 L 7.3125 -7.355469 L 4.285156 1.46875 L 5.675781 1.945312 L 8.703125 -6.878906 L 12.660156 -5.519531 Z M 13.039062 -6.628906 "/></g></g></g><g fill="#292c5d" fill-opacity="1"><g transform="translate(217.039632, 121.953799)"><g><path d="M 6.46875 -9.640625 L 7.632812 -9.082031 L 10.335938 -10.28125 L 8.796875 -11.019531 Z M 1.445312 0.695312 L 2.785156 1.335938 L 7.347656 -8.171875 L 6.007812 -8.8125 Z M 1.445312 0.695312 "/></g></g></g><g fill="#292c5d" fill-opacity="1"><g transform="translate(222.166457, 124.231054)"><g><path d="M 8.363281 -1.769531 C 6.480469 -3.304688 5.863281 -3.984375 6.464844 -4.917969 C 7.164062 -6.003906 8.785156 -5.691406 10.308594 -4.761719 C 11.507812 -4.046875 12.675781 -2.953125 13.246094 -1.875 L 14.074219 -2.769531 C 13.214844 -3.980469 12.058594 -5.046875 10.878906 -5.789062 C 8.644531 -7.191406 6.316406 -7.402344 5.179688 -5.636719 C 4.175781 -4.074219 5.175781 -3 7.464844 -1.152344 C 9.179688 0.234375 10.089844 1.144531 9.359375 2.28125 C 8.566406 3.515625 7.230469 3.371094 5.261719 2.050781 C 4.035156 1.242188 3.101562 0.0351562 2.484375 -1.113281 L 1.777344 -0.101562 C 2.273438 0.929688 3.351562 2.300781 4.59375 3.117188 C 7.210938 4.820312 9.398438 4.960938 10.675781 2.980469 C 11.796875 1.242188 10.417969 -0.109375 8.363281 -1.769531 Z M 8.363281 -1.769531 "/></g></g></g><g fill="#292c5d" fill-opacity="1"><g transform="translate(232.608247, 131.079641)"><g><path d="M 14.59375 -0.976562 L 7.289062 -7.566406 L 6.503906 -6.699219 L 9.613281 -3.894531 L 3.363281 3.035156 L 4.457031 4.019531 L 10.703125 -2.910156 L 13.8125 -0.105469 Z M 14.59375 -0.976562 "/></g></g></g><g fill="#292c5d" fill-opacity="1"><g transform="translate(240.966924, 138.9208)"><g><path d="M 1.058594 1.207031 L 2.039062 2.324219 L 9.929688 -4.601562 L 8.953125 -5.71875 Z M 1.058594 1.207031 "/></g></g></g><g fill="#292c5d" fill-opacity="1"><g transform="translate(244.796618, 143.000129)"><g><path d="M 3.414062 5.261719 C 5.070312 7.726562 7.503906 8.492188 9.484375 7.160156 L 8.644531 5.917969 C 7.25 6.855469 5.546875 6.335938 4.390625 4.621094 C 3.160156 2.789062 3.800781 0.570312 6.015625 -0.921875 C 7.996094 -2.25 10.144531 -1.90625 11.375 -0.078125 C 12.480469 1.566406 12.363281 3.324219 11.058594 4.292969 L 11.898438 5.535156 C 13.828125 4.238281 13.996094 1.71875 12.335938 -0.742188 C 10.609375 -3.308594 7.75 -3.878906 5.1875 -2.152344 C 2.398438 -0.277344 1.6875 2.695312 3.414062 5.261719 Z M 3.414062 5.261719 "/></g></g></g><g fill="#292c5d" fill-opacity="1"><g transform="translate(251.962697, 153.746808)"><g><path d="M 2.410156 5.726562 C 3.644531 8.523438 6.46875 9.507812 9.476562 8.183594 C 12.371094 6.90625 13.484375 4.1875 12.25 1.386719 C 11.015625 -1.414062 8.214844 -2.410156 5.25 -1.101562 C 2.3125 0.191406 1.175781 2.925781 2.410156 5.726562 Z M 3.480469 5.253906 C 2.609375 3.277344 3.53125 1.28125 5.796875 0.28125 C 8.15625 -0.757812 10.308594 -0.117188 11.179688 1.859375 C 12.058594 3.847656 11.113281 5.839844 8.820312 6.847656 C 6.488281 7.878906 4.355469 7.242188 3.480469 5.253906 Z M 3.480469 5.253906 "/></g></g></g><g fill="#292c5d" fill-opacity="1"><g transform="translate(104.647982, 200.663988)"><g><path d="M 12.308594 6.828125 L 10.59375 -0.75 L 0.355469 1.566406 L 0.679688 3.015625 L 5.332031 1.960938 L 6.652344 7.800781 L 7.75 7.550781 L 6.429688 1.714844 L 9.78125 0.957031 L 11.167969 7.085938 Z M 12.308594 6.828125 "/></g></g></g><g fill="#292c5d" fill-opacity="1"><g transform="translate(107.598125, 212.875507)"><g><path d="M 4.484375 8.316406 L 2.210938 2.457031 L 10.90625 -0.921875 L 10.367188 -2.308594 L 0.582031 1.496094 L 3.394531 8.738281 Z M 4.484375 8.316406 "/></g></g></g><g fill="#292c5d" fill-opacity="1"><g transform="translate(112.165038, 224.366527)"><g><path d="M 3.066406 5.402344 C 4.621094 8.039062 7.542969 8.683594 10.371094 7.011719 C 13.097656 5.40625 13.882812 2.574219 12.328125 -0.0625 C 10.773438 -2.699219 7.875 -3.355469 5.085938 -1.710938 C 2.320312 -0.0820312 1.511719 2.765625 3.066406 5.402344 Z M 4.074219 4.808594 C 2.976562 2.949219 3.65625 0.855469 5.789062 -0.402344 C 8.011719 -1.710938 10.222656 -1.328125 11.320312 0.53125 C 12.425781 2.40625 11.722656 4.492188 9.566406 5.765625 C 7.367188 7.058594 5.175781 6.679688 4.074219 4.808594 Z M 4.074219 4.808594 "/></g></g></g><g fill="#292c5d" fill-opacity="1"><g transform="translate(119.940501, 237.087458)"><g><path d="M 9.375 3.300781 L 9.433594 3.25 C 10.320312 4.03125 11.808594 4.015625 12.960938 3.03125 C 14.1875 1.972656 13.964844 0.148438 12.472656 -1.59375 L 9.011719 -5.621094 L 1.046875 1.21875 L 2.011719 2.34375 L 5.359375 -0.527344 L 7.742188 2.25 C 8.75 3.421875 8.84375 4.707031 7.976562 5.449219 L 6.105469 7.113281 L 7.0625 8.230469 L 9.113281 6.46875 C 10.035156 5.679688 10.0625 4.328125 9.375 3.300781 Z M 8.683594 1.617188 L 6.210938 -1.261719 L 9.125 -3.761719 L 11.472656 -1.03125 C 12.46875 0.128906 12.617188 1.367188 11.777344 2.089844 C 10.855469 2.878906 9.613281 2.699219 8.683594 1.617188 Z M 8.683594 1.617188 "/></g></g></g><g fill="#292c5d" fill-opacity="1"><g transform="translate(129.638795, 247.974561)"><g><path d="M 8.363281 -5.164062 L 13.179688 -1.125 L 13.929688 -2.019531 L 7.976562 -7.011719 L 1.230469 1.03125 L 7.183594 6.023438 L 7.933594 5.128906 L 3.121094 1.089844 L 5.460938 -1.703125 L 10.046875 2.144531 L 10.769531 1.28125 L 6.183594 -2.566406 Z M 8.363281 -5.164062 "/></g></g></g><g fill="#292c5d" fill-opacity="1"><g transform="translate(139.530862, 256.116964)"><g><path d="M 1.390625 0.804688 L 2.667969 1.558594 L 7.027344 -5.917969 L 7.117188 -5.867188 L 7.660156 4.519531 L 9.296875 5.46875 L 14.625 -3.5625 L 13.34375 -4.316406 L 9.011719 3.089844 L 8.921875 3.035156 L 8.347656 -7.265625 L 6.71875 -8.226562 Z M 1.390625 0.804688 "/></g></g></g><g fill="#292c5d" fill-opacity="1"><g transform="translate(152.463122, 263.485462)"><g><path d="M 5.839844 2.285156 C 8.625 3.320312 11.046875 2.527344 11.878906 0.289062 L 10.472656 -0.234375 C 9.886719 1.34375 8.203125 1.914062 6.261719 1.191406 C 4.195312 0.425781 3.421875 -1.753906 4.351562 -4.253906 C 5.183594 -6.488281 7.128906 -7.460938 9.195312 -6.695312 C 11.050781 -6.003906 11.984375 -4.503906 11.488281 -2.960938 L 12.894531 -2.4375 C 13.703125 -4.617188 12.375 -6.761719 9.589844 -7.796875 C 6.695312 -8.871094 4.039062 -7.667969 2.960938 -4.773438 C 1.789062 -1.625 2.945312 1.207031 5.839844 2.285156 Z M 5.839844 2.285156 "/></g></g></g><g fill="#292c5d" fill-opacity="1"><g transform="translate(166.164464, 268.174878)"><g><path d="M 1.5625 0.363281 L 3.011719 0.699219 L 5.386719 -9.527344 L 3.941406 -9.863281 Z M 1.5625 0.363281 "/></g></g></g><g fill="#292c5d" fill-opacity="1"><g transform="translate(172.872773, 269.810218)"><g><path d="M 11.277344 1.191406 L 8.128906 -9.699219 L 5.578125 -9.96875 L 0.207031 0.0234375 L 1.761719 0.1875 L 3.136719 -2.414062 L 8.921875 -1.804688 L 9.726562 1.027344 Z M 8.664062 -2.917969 L 3.621094 -3.449219 L 6.472656 -8.894531 L 6.980469 -8.839844 Z M 8.664062 -2.917969 "/></g></g></g><g fill="#292c5d" fill-opacity="1"><g transform="translate(186.51389, 270.891986)"><g/></g></g><g fill="#292c5d" fill-opacity="1"><g transform="translate(192.206853, 270.89499)"><g><path d="M 8.066406 -11.535156 L 0.351562 -10.617188 L 1.59375 -0.191406 L 3.066406 -0.367188 L 2.503906 -5.101562 L 8.445312 -5.808594 L 8.3125 -6.925781 L 2.371094 -6.21875 L 1.964844 -9.628906 L 8.207031 -10.375 Z M 8.066406 -11.535156 "/></g></g></g><g fill="#292c5d" fill-opacity="1"><g transform="translate(204.752697, 269.282661)"><g><path d="M 6.894531 -7.160156 L 6.875 -7.230469 C 7.953125 -7.714844 8.558594 -9.074219 8.136719 -10.53125 C 7.6875 -12.085938 5.9375 -12.644531 3.730469 -12.007812 L -1.371094 -10.53125 L 1.542969 -0.445312 L 2.96875 -0.855469 L 1.746094 -5.09375 L 5.261719 -6.109375 C 6.746094 -6.539062 7.953125 -6.089844 8.269531 -4.996094 L 9.007812 -2.601562 L 10.417969 -3.007812 L 9.671875 -5.601562 C 9.332031 -6.769531 8.117188 -7.355469 6.894531 -7.160156 Z M 5.078125 -7.226562 L 1.433594 -6.175781 L 0.367188 -9.863281 L 3.828125 -10.863281 C 5.296875 -11.289062 6.484375 -10.910156 6.789062 -9.84375 C 7.128906 -8.675781 6.449219 -7.621094 5.078125 -7.226562 Z M 5.078125 -7.226562 "/></g></g></g><g fill="#292c5d" fill-opacity="1"><g transform="translate(218.734559, 264.999055)"><g><path d="M 10.203125 -4.953125 L 1.769531 -12.53125 L -0.535156 -11.410156 L 0.1875 -0.0898438 L 1.59375 -0.773438 L 1.386719 -3.707031 L 6.621094 -6.25 L 8.796875 -4.269531 Z M 5.8125 -7.054688 L 1.25 -4.84375 L 0.792969 -10.972656 L 1.25 -11.195312 Z M 5.8125 -7.054688 "/></g></g></g><g fill="#292c5d" fill-opacity="1"><g transform="translate(231.256972, 258.725655)"><g><path d="M 1.292969 -0.949219 L 2.5 -1.816406 L -2.597656 -8.816406 L -2.511719 -8.875 L 7.21875 -5.199219 L 8.742188 -6.316406 L 2.617188 -14.824219 L 1.410156 -13.957031 L 6.449219 -7.011719 L 6.363281 -6.949219 L -3.300781 -10.5625 L -4.832031 -9.457031 Z M 1.292969 -0.949219 "/></g></g></g><g fill="#292c5d" fill-opacity="1"><g transform="translate(243.082757, 249.842512)"><g><path d="M -0.890625 -13.957031 L -6.84375 -8.007812 L -6.015625 -7.179688 L -1.410156 -11.785156 L -1.359375 -11.730469 L -0.402344 -1.1875 L 0.382812 -0.382812 L 6.53125 -6.535156 L 5.707031 -7.363281 L 0.921875 -2.578125 L 0.847656 -2.652344 L -0.105469 -13.195312 Z M -0.890625 -13.957031 "/></g></g></g><g fill="#292c5d" fill-opacity="1"><g transform="translate(251.672517, 241.120926)"><g><path d="M 3.710938 -4.980469 C 5.5 -7.464844 4.914062 -10.398438 2.246094 -12.316406 C -0.320312 -14.164062 -3.230469 -13.746094 -5.015625 -11.261719 C -6.804688 -8.777344 -6.242188 -5.859375 -3.613281 -3.96875 C -1.007812 -2.09375 1.925781 -2.496094 3.710938 -4.980469 Z M 2.761719 -5.664062 C 1.5 -3.910156 -0.6875 -3.691406 -2.695312 -5.136719 C -4.789062 -6.644531 -5.328125 -8.824219 -4.066406 -10.578125 C -2.796875 -12.34375 -0.605469 -12.539062 1.429688 -11.078125 C 3.5 -9.585938 4.035156 -7.429688 2.761719 -5.664062 Z M 2.761719 -5.664062 "/></g></g></g><g fill="#292c5d" fill-opacity="1"><g transform="translate(260.117165, 228.90906)"><g><path d="M -4.917969 -13.777344 L -9.265625 -4.949219 L -8.21875 -4.433594 L -6.367188 -8.1875 L 2 -4.0625 L 2.652344 -5.382812 L -5.71875 -9.503906 L -3.867188 -13.257812 Z M -4.917969 -13.777344 "/></g></g></g><g fill="#292c5d" fill-opacity="1"><g transform="translate(265.652472, 217.261266)"><g><path d="M -6.972656 -12.859375 L -9.917969 -3.46875 L -8.800781 -3.121094 L -7.546875 -7.113281 L 1.355469 -4.324219 L 1.792969 -5.726562 L -7.109375 -8.515625 L -5.855469 -12.507812 Z M -6.972656 -12.859375 "/></g></g></g><g fill="#292c5d" fill-opacity="1"><g transform="translate(269.163006, 205.071001)"><g><path d="M 0.296875 -1.578125 L 0.574219 -3.035156 L -9.742188 -4.988281 L -10.019531 -3.527344 Z M 0.296875 -1.578125 "/></g></g></g><g clip-path="url(#id2)"><path fill="#000000" d="M 111.125 183.152344 C 109.753906 183.152344 108.636719 182.035156 108.636719 180.664062 C 108.636719 179.292969 109.753906 178.175781 111.125 178.175781 C 112.496094 178.175781 113.609375 179.292969 113.609375 180.664062 C 113.613281 182.035156 112.496094 183.152344 111.125 183.152344 Z M 111.125 179.546875 C 110.507812 179.546875 110.007812 180.046875 110.007812 180.664062 C 110.007812 181.277344 110.507812 181.78125 111.125 181.78125 C 111.738281 181.78125 112.242188 181.277344 112.242188 180.664062 C 112.242188 180.046875 111.742188 179.546875 111.125 179.546875 Z M 111.125 179.546875 " fill-opacity="1" fill-rule="nonzero"/></g><g clip-path="url(#id3)"><path fill="#000000" d="M 262.417969 183.152344 C 261.050781 183.152344 259.933594 182.035156 259.933594 180.664062 C 259.933594 179.292969 261.050781 178.175781 262.417969 178.175781 C 263.792969 178.175781 264.90625 179.292969 264.90625 180.664062 C 264.910156 182.035156 263.792969 183.152344 262.417969 183.152344 Z M 262.417969 179.546875 C 261.804688 179.546875 261.300781 180.046875 261.300781 180.664062 C 261.300781 181.277344 261.804688 181.78125 262.417969 181.78125 C 263.035156 181.78125 263.539062 181.277344 263.539062 180.664062 C 263.539062 180.046875 263.039062 179.546875 262.417969 179.546875 Z M 262.417969 179.546875 " fill-opacity="1" fill-rule="nonzero"/></g></svg>