<svg xmlns="http://www.w3.org/2000/svg" xmlns:xlink="http://www.w3.org/1999/xlink" width="500" zoomAndPan="magnify" viewBox="0 0 375 374.999991" height="500" preserveAspectRatio="xMidYMid meet" version="1.0"><defs><g/><clipPath id="id1"><path d="M 108.636719 178.175781 L 113.613281 178.175781 L 113.613281 183.152344 L 108.636719 183.152344 Z M 108.636719 178.175781 " clip-rule="nonzero"/></clipPath><clipPath id="id2"><path d="M 259.933594 178.175781 L 264.910156 178.175781 L 264.910156 183.152344 L 259.933594 183.152344 Z M 259.933594 178.175781 " clip-rule="nonzero"/></clipPath><clipPath id="id3"><path d="M 82.957031 82.957031 L 292.207031 82.957031 L 292.207031 292.207031 L 82.957031 292.207031 Z M 82.957031 82.957031 " clip-rule="nonzero"/></clipPath><clipPath id="id4"><path d="M 143.894531 164.878906 L 230.894531 164.878906 L 230.894531 209.878906 L 143.894531 209.878906 Z M 143.894531 164.878906 " clip-rule="nonzero"/></clipPath></defs><g clip-path="url(#id1)"><path fill="#000000" d="M 111.125 183.152344 C 109.753906 183.152344 108.636719 182.035156 108.636719 180.664062 C 108.636719 179.292969 109.753906 178.175781 111.125 178.175781 C 112.496094 178.175781 113.609375 179.292969 113.609375 180.664062 C 113.613281 182.035156 112.496094 183.152344 111.125 183.152344 Z M 111.125 179.546875 C 110.507812 179.546875 110.007812 180.046875 110.007812 180.664062 C 110.007812 181.277344 110.507812 181.78125 111.125 181.78125 C 111.738281 181.78125 112.242188 181.277344 112.242188 180.664062 C 112.242188 180.046875 111.742188 179.546875 111.125 179.546875 Z M 111.125 179.546875 " fill-opacity="1" fill-rule="nonzero"/></g><g clip-path="url(#id2)"><path fill="#000000" d="M 262.417969 183.152344 C 261.050781 183.152344 259.933594 182.035156 259.933594 180.664062 C 259.933594 179.292969 261.050781 178.175781 262.417969 178.175781 C 263.792969 178.175781 264.90625 179.292969 264.90625 180.664062 C 264.910156 182.035156 263.792969 183.152344 262.417969 183.152344 Z M 262.417969 179.546875 C 261.804688 179.546875 261.300781 180.046875 261.300781 180.664062 C 261.300781 181.277344 261.804688 181.78125 262.417969 181.78125 C 263.035156 181.78125 263.539062 181.277344 263.539062 180.664062 C 263.539062 180.046875 263.039062 179.546875 262.417969 179.546875 Z M 262.417969 179.546875 " fill-opacity="1" fill-rule="nonzero"/></g><g clip-path="url(#id3)"><path fill="#292c5d" d="M 187.582031 292.207031 C 129.894531 292.207031 82.957031 245.273438 82.957031 187.582031 C 82.957031 129.894531 129.894531 82.957031 187.582031 82.957031 C 245.273438 82.957031 292.207031 129.894531 292.207031 187.582031 C 292.207031 245.273438 245.273438 292.207031 187.582031 292.207031 Z M 187.582031 84.8125 C 130.914062 84.8125 84.8125 130.914062 84.8125 187.582031 C 84.8125 244.25 130.914062 290.351562 187.582031 290.351562 C 244.25 290.351562 290.351562 244.25 290.351562 187.582031 C 290.351562 130.914062 244.25 84.8125 187.582031 84.8125 Z M 187.582031 84.8125 " fill-opacity="1" fill-rule="nonzero"/></g><g clip-path="url(#id4)"><path fill="#292c5d" d="M 230.832031 187.878906 C 230.605469 187.359375 230.355469 186.886719 230.09375 186.40625 C 229.832031 185.929688 229.554688 185.464844 229.265625 185.003906 C 228.691406 184.085938 228.070312 183.195312 227.414062 182.335938 C 226.101562 180.613281 224.640625 179.007812 223.070312 177.523438 C 221.496094 176.039062 219.804688 174.679688 218.023438 173.457031 C 216.242188 172.226562 214.367188 171.140625 212.425781 170.1875 C 211.457031 169.710938 210.46875 169.277344 209.46875 168.863281 C 208.46875 168.460938 207.453125 168.089844 206.429688 167.746094 C 204.375 167.074219 202.285156 166.519531 200.167969 166.097656 C 198.054688 165.675781 195.914062 165.371094 193.769531 165.175781 C 191.625 164.976562 189.460938 164.894531 187.3125 164.898438 C 183.007812 164.910156 178.695312 165.285156 174.46875 166.125 C 172.355469 166.550781 170.265625 167.082031 168.21875 167.757812 C 167.191406 168.089844 166.179688 168.464844 165.179688 168.859375 C 164.179688 169.265625 163.195312 169.699219 162.222656 170.164062 C 160.285156 171.109375 158.40625 172.171875 156.628906 173.390625 C 154.847656 174.601562 153.15625 175.945312 151.589844 177.417969 C 150.019531 178.894531 148.566406 180.488281 147.265625 182.199219 C 146.613281 183.054688 146.003906 183.941406 145.433594 184.855469 C 144.871094 185.769531 144.34375 186.703125 143.90625 187.699219 C 143.894531 187.730469 143.890625 187.761719 143.90625 187.792969 C 144.078125 188.242188 144.28125 188.660156 144.496094 189.078125 C 144.710938 189.496094 144.941406 189.902344 145.1875 190.300781 C 145.425781 190.703125 145.6875 191.09375 145.949219 191.480469 L 146.355469 192.054688 L 146.773438 192.613281 L 147.207031 193.164062 L 147.65625 193.707031 L 148.117188 194.234375 C 148.269531 194.410156 148.433594 194.578125 148.589844 194.75 C 148.746094 194.925781 148.914062 195.089844 149.074219 195.257812 C 149.238281 195.425781 149.402344 195.589844 149.570312 195.75 C 149.902344 196.082031 150.25 196.394531 150.59375 196.707031 C 150.949219 197.015625 151.296875 197.328125 151.664062 197.617188 C 151.84375 197.761719 152.023438 197.914062 152.210938 198.054688 L 152.765625 198.480469 C 153.140625 198.757812 153.523438 199.027344 153.90625 199.292969 C 154.296875 199.550781 154.675781 199.820312 155.078125 200.0625 L 155.671875 200.433594 L 156.277344 200.785156 C 156.675781 201.023438 157.089844 201.238281 157.5 201.460938 C 157.910156 201.683594 158.335938 201.882812 158.75 202.09375 C 159.167969 202.296875 159.59375 202.488281 160.019531 202.683594 C 159.597656 202.480469 159.175781 202.285156 158.757812 202.078125 C 158.34375 201.859375 157.925781 201.65625 157.519531 201.429688 C 157.113281 201.199219 156.703125 200.980469 156.304688 200.734375 L 155.707031 200.375 L 155.117188 199.996094 C 154.722656 199.75 154.34375 199.476562 153.960938 199.214844 C 153.582031 198.945312 153.203125 198.671875 152.835938 198.386719 L 152.285156 197.957031 C 152.105469 197.8125 151.929688 197.660156 151.75 197.511719 C 151.386719 197.21875 151.046875 196.902344 150.695312 196.597656 C 150.355469 196.28125 150.015625 195.964844 149.6875 195.632812 C 149.519531 195.472656 149.359375 195.304688 149.199219 195.136719 C 149.039062 194.96875 148.875 194.804688 148.722656 194.628906 C 148.566406 194.457031 148.410156 194.285156 148.257812 194.109375 L 147.804688 193.582031 L 147.363281 193.039062 L 146.941406 192.488281 L 146.527344 191.929688 L 146.132812 191.355469 C 145.875 190.96875 145.625 190.582031 145.390625 190.179688 C 145.152344 189.78125 144.925781 189.378906 144.71875 188.964844 C 144.519531 188.570312 144.328125 188.164062 144.175781 187.753906 C 144.601562 186.808594 145.128906 185.894531 145.683594 185.011719 C 146.257812 184.113281 146.871094 183.238281 147.523438 182.398438 C 148.828125 180.710938 150.285156 179.144531 151.851562 177.699219 C 153.417969 176.253906 155.101562 174.9375 156.875 173.757812 C 158.648438 172.570312 160.511719 171.523438 162.433594 170.601562 C 163.398438 170.148438 164.375 169.722656 165.367188 169.328125 C 166.359375 168.945312 167.363281 168.574219 168.378906 168.253906 C 170.410156 167.597656 172.484375 167.082031 174.574219 166.671875 C 178.765625 165.863281 183.042969 165.515625 187.3125 165.53125 C 189.453125 165.539062 191.578125 165.628906 193.707031 165.835938 C 195.828125 166.042969 197.941406 166.359375 200.027344 166.785156 C 202.117188 167.214844 204.175781 167.769531 206.195312 168.445312 C 207.199219 168.789062 208.199219 169.160156 209.179688 169.5625 C 210.160156 169.972656 211.132812 170.40625 212.085938 170.878906 C 213.988281 171.824219 215.828125 172.894531 217.570312 174.105469 C 219.316406 175.3125 220.972656 176.648438 222.511719 178.109375 C 224.046875 179.570312 225.476562 181.148438 226.753906 182.835938 C 227.394531 183.679688 227.996094 184.550781 228.554688 185.445312 C 228.832031 185.894531 229.101562 186.347656 229.351562 186.808594 C 229.566406 187.203125 229.777344 187.609375 229.960938 188.007812 C 229.714844 188.382812 229.445312 188.769531 229.171875 189.136719 C 228.855469 189.570312 228.527344 190 228.191406 190.417969 C 227.515625 191.257812 226.804688 192.070312 226.070312 192.859375 C 224.601562 194.4375 223.023438 195.917969 221.355469 197.292969 C 218.027344 200.046875 214.34375 202.371094 210.421875 204.179688 C 206.5 205.996094 202.339844 207.289062 198.085938 208.058594 C 195.957031 208.441406 193.808594 208.703125 191.648438 208.828125 L 190.835938 208.875 L 190.027344 208.90625 C 189.488281 208.929688 188.945312 208.929688 188.402344 208.9375 C 187.863281 208.949219 187.320312 208.929688 186.78125 208.929688 C 186.519531 208.925781 186.238281 208.910156 185.96875 208.902344 C 185.703125 208.886719 185.4375 208.875 185.167969 208.855469 C 183.027344 208.703125 180.902344 208.328125 178.878906 207.648438 C 176.851562 206.972656 174.929688 205.992188 173.242188 204.703125 C 171.554688 203.414062 170.105469 201.816406 169 200.007812 C 167.886719 198.199219 167.109375 196.1875 166.683594 194.105469 C 165.824219 189.941406 166.339844 185.5 168.089844 181.621094 C 168.964844 179.679688 170.152344 177.882812 171.609375 176.332031 C 173.070312 174.785156 174.800781 173.492188 176.707031 172.546875 C 178.617188 171.597656 180.691406 170.992188 182.808594 170.710938 C 183.871094 170.574219 184.941406 170.507812 186.015625 170.523438 C 186.546875 170.523438 187.089844 170.554688 187.617188 170.585938 C 188.167969 170.628906 188.691406 170.679688 189.222656 170.75 C 191.351562 171.03125 193.449219 171.566406 195.390625 172.449219 C 197.335938 173.324219 199.117188 174.554688 200.5625 176.113281 C 202.007812 177.667969 203.105469 179.535156 203.773438 181.550781 C 204.445312 183.566406 204.703125 185.71875 204.558594 187.84375 C 204.417969 189.972656 203.882812 192.074219 202.980469 194.003906 C 202.078125 195.9375 200.804688 197.699219 199.210938 199.117188 C 197.621094 200.539062 195.710938 201.597656 193.65625 202.183594 C 191.605469 202.78125 189.421875 202.902344 187.292969 202.660156 C 185.160156 202.414062 183.046875 201.847656 181.179688 200.804688 C 180.25 200.285156 179.382812 199.644531 178.628906 198.894531 C 177.867188 198.148438 177.226562 197.289062 176.710938 196.359375 C 175.6875 194.488281 175.214844 192.335938 175.269531 190.199219 C 175.320312 188.0625 175.875 185.933594 176.898438 184.050781 C 177.917969 182.171875 179.441406 180.539062 181.351562 179.558594 C 182.304688 179.070312 183.339844 178.753906 184.40625 178.625 C 185.421875 178.496094 186.457031 178.546875 187.464844 178.730469 C 187.417969 178.964844 187.378906 179.199219 187.347656 179.433594 C 187.3125 179.71875 187.289062 180.007812 187.277344 180.292969 C 187.25 180.871094 187.273438 181.449219 187.355469 182.023438 C 187.402344 182.308594 187.457031 182.59375 187.539062 182.871094 C 187.625 183.148438 187.71875 183.425781 187.847656 183.6875 C 187.976562 183.949219 188.121094 184.207031 188.296875 184.4375 C 188.382812 184.558594 188.484375 184.667969 188.578125 184.777344 C 188.683594 184.882812 188.777344 184.992188 188.894531 185.082031 C 189.109375 185.277344 189.367188 185.4375 189.605469 185.585938 C 189.863281 185.726562 190.125 185.859375 190.398438 185.957031 C 190.671875 186.058594 190.949219 186.144531 191.238281 186.195312 C 191.523438 186.246094 191.816406 186.277344 192.105469 186.28125 C 192.6875 186.292969 193.265625 186.203125 193.820312 186.042969 C 194.097656 185.960938 194.371094 185.863281 194.636719 185.746094 C 194.859375 185.644531 195.078125 185.535156 195.289062 185.40625 C 195.5 186.574219 195.457031 187.785156 195.191406 188.941406 C 194.914062 190.140625 194.398438 191.292969 193.65625 192.277344 C 193.285156 192.773438 192.855469 193.222656 192.375 193.613281 C 191.894531 194.003906 191.363281 194.328125 190.792969 194.570312 C 190.222656 194.8125 189.617188 194.972656 189 195.042969 C 188.382812 195.109375 187.757812 195.089844 187.140625 194.992188 C 187.753906 195.09375 188.382812 195.125 189.003906 195.0625 C 189.621094 195.003906 190.234375 194.851562 190.8125 194.613281 C 191.386719 194.375 191.929688 194.054688 192.417969 193.664062 C 192.910156 193.28125 193.347656 192.828125 193.726562 192.332031 C 194.492188 191.34375 195.027344 190.1875 195.324219 188.972656 C 195.617188 187.761719 195.667969 186.484375 195.4375 185.25 C 195.4375 185.238281 195.433594 185.230469 195.425781 185.21875 C 195.402344 185.179688 195.347656 185.167969 195.308594 185.195312 L 195.304688 185.195312 C 195.074219 185.34375 194.820312 185.46875 194.5625 185.582031 C 194.304688 185.691406 194.039062 185.789062 193.769531 185.863281 C 193.230469 186.015625 192.667969 186.09375 192.109375 186.082031 C 191.828125 186.074219 191.550781 186.042969 191.277344 185.988281 C 191.003906 185.9375 190.738281 185.851562 190.476562 185.753906 C 190.214844 185.65625 189.964844 185.527344 189.726562 185.394531 C 189.480469 185.242188 189.253906 185.097656 189.046875 184.90625 C 188.941406 184.820312 188.851562 184.714844 188.75 184.617188 C 188.664062 184.511719 188.570312 184.414062 188.492188 184.296875 C 188.328125 184.078125 188.191406 183.832031 188.074219 183.582031 C 187.953125 183.332031 187.867188 183.066406 187.789062 182.800781 C 187.710938 182.535156 187.660156 182.257812 187.617188 181.984375 C 187.542969 181.429688 187.523438 180.867188 187.554688 180.308594 C 187.570312 180.027344 187.597656 179.75 187.632812 179.472656 C 187.671875 179.195312 187.71875 178.914062 187.785156 178.648438 L 187.785156 178.640625 C 187.800781 178.5625 187.75 178.484375 187.667969 178.46875 C 186.589844 178.246094 185.46875 178.175781 184.367188 178.300781 C 183.265625 178.425781 182.183594 178.746094 181.191406 179.246094 C 179.199219 180.242188 177.605469 181.925781 176.535156 183.851562 C 175.464844 185.785156 174.867188 187.976562 174.800781 190.1875 C 174.734375 192.394531 175.207031 194.636719 176.269531 196.597656 C 176.800781 197.574219 177.46875 198.480469 178.257812 199.265625 C 179.046875 200.050781 179.945312 200.722656 180.914062 201.273438 C 182.855469 202.371094 185.035156 202.96875 187.226562 203.230469 C 189.417969 203.492188 191.679688 203.378906 193.824219 202.769531 C 195.96875 202.167969 197.972656 201.074219 199.640625 199.601562 C 201.308594 198.128906 202.648438 196.300781 203.597656 194.296875 C 204.546875 192.289062 205.117188 190.109375 205.277344 187.894531 C 205.4375 185.683594 205.183594 183.433594 204.488281 181.316406 C 203.800781 179.199219 202.65625 177.222656 201.136719 175.582031 C 199.621094 173.941406 197.75 172.640625 195.726562 171.722656 C 193.699219 170.792969 191.523438 170.234375 189.332031 169.941406 C 188.785156 169.863281 188.222656 169.8125 187.6875 169.765625 C 187.125 169.730469 186.578125 169.699219 186.023438 169.695312 C 184.914062 169.675781 183.804688 169.742188 182.699219 169.882812 C 180.496094 170.164062 178.328125 170.792969 176.328125 171.78125 C 174.324219 172.765625 172.507812 174.117188 170.972656 175.730469 C 169.441406 177.351562 168.195312 179.234375 167.28125 181.257812 C 165.449219 185.308594 164.910156 189.925781 165.800781 194.289062 C 166.246094 196.464844 167.058594 198.578125 168.226562 200.476562 C 169.386719 202.382812 170.914062 204.066406 172.6875 205.425781 C 174.460938 206.78125 176.476562 207.808594 178.585938 208.515625 C 180.695312 209.226562 182.898438 209.617188 185.105469 209.769531 C 185.382812 209.792969 185.660156 209.800781 185.9375 209.820312 C 186.214844 209.828125 186.476562 209.839844 186.761719 209.84375 C 187.3125 209.84375 187.859375 209.863281 188.410156 209.851562 C 188.957031 209.84375 189.507812 209.84375 190.058594 209.816406 L 190.882812 209.785156 L 191.703125 209.738281 C 193.898438 209.609375 196.082031 209.339844 198.246094 208.949219 C 202.574219 208.160156 206.808594 206.84375 210.796875 204.992188 C 214.789062 203.144531 218.539062 200.773438 221.921875 197.972656 C 223.613281 196.570312 225.214844 195.058594 226.707031 193.449219 C 227.453125 192.640625 228.171875 191.808594 228.859375 190.953125 C 229.203125 190.523438 229.539062 190.085938 229.863281 189.640625 C 230.1875 189.191406 230.5 188.746094 230.804688 188.261719 L 230.808594 188.257812 C 230.875 188.148438 230.890625 188.007812 230.832031 187.878906 " fill-opacity="1" fill-rule="nonzero"/></g><path fill="#292c5d" d="M 182.476562 180.378906 C 182.675781 180.285156 182.785156 180.234375 182.785156 180.234375 C 182.785156 180.234375 182.675781 180.277344 182.46875 180.359375 C 182.367188 180.402344 182.242188 180.453125 182.09375 180.511719 C 181.941406 180.566406 181.785156 180.664062 181.601562 180.757812 C 181.511719 180.808594 181.417969 180.859375 181.316406 180.914062 C 181.214844 180.964844 181.117188 181.039062 181.015625 181.105469 C 180.808594 181.246094 180.574219 181.378906 180.355469 181.570312 C 180.132812 181.753906 179.886719 181.933594 179.660156 182.167969 C 179.542969 182.28125 179.425781 182.398438 179.304688 182.515625 C 179.191406 182.640625 179.078125 182.773438 178.960938 182.910156 C 178.71875 183.167969 178.511719 183.476562 178.285156 183.785156 C 178.167969 183.9375 178.078125 184.113281 177.96875 184.277344 C 177.867188 184.445312 177.753906 184.613281 177.664062 184.796875 C 177.570312 184.976562 177.476562 185.160156 177.378906 185.347656 C 177.289062 185.535156 177.210938 185.730469 177.125 185.929688 C 177.082031 186.027344 177.042969 186.125 177 186.226562 C 176.964844 186.328125 176.929688 186.429688 176.894531 186.535156 C 176.828125 186.742188 176.746094 186.949219 176.691406 187.164062 C 176.441406 188.015625 176.289062 188.929688 176.21875 189.859375 C 176.210938 190.09375 176.199219 190.328125 176.191406 190.5625 C 176.195312 190.796875 176.203125 191.035156 176.210938 191.269531 C 176.210938 191.507812 176.246094 191.742188 176.269531 191.980469 C 176.296875 192.214844 176.320312 192.453125 176.371094 192.6875 C 176.527344 193.625 176.832031 194.535156 177.234375 195.382812 L 177.382812 195.699219 C 177.410156 195.753906 177.433594 195.804688 177.460938 195.859375 L 177.546875 196.007812 C 177.667969 196.207031 177.785156 196.40625 177.902344 196.605469 C 178.03125 196.796875 178.167969 196.976562 178.300781 197.164062 C 178.367188 197.253906 178.429688 197.347656 178.5 197.433594 C 178.578125 197.519531 178.648438 197.605469 178.722656 197.6875 C 179.289062 198.382812 179.972656 198.921875 180.625 199.40625 C 180.796875 199.515625 180.96875 199.625 181.136719 199.730469 C 181.308594 199.832031 181.464844 199.949219 181.640625 200.027344 C 181.808594 200.113281 181.976562 200.199219 182.140625 200.285156 C 182.308594 200.367188 182.464844 200.457031 182.632812 200.515625 C 182.964844 200.644531 183.277344 200.78125 183.582031 200.886719 C 183.890625 200.976562 184.183594 201.066406 184.460938 201.148438 C 184.53125 201.167969 184.597656 201.1875 184.664062 201.207031 C 184.734375 201.222656 184.800781 201.234375 184.863281 201.25 C 184.996094 201.277344 185.125 201.304688 185.246094 201.328125 C 185.488281 201.378906 185.710938 201.429688 185.914062 201.46875 C 186.730469 201.570312 187.195312 201.628906 187.195312 201.628906 C 187.195312 201.628906 186.734375 201.546875 185.925781 201.398438 C 185.722656 201.351562 185.503906 201.289062 185.265625 201.230469 C 185.148438 201.199219 185.023438 201.167969 184.894531 201.136719 C 184.828125 201.117188 184.765625 201.101562 184.699219 201.085938 C 184.632812 201.0625 184.566406 201.039062 184.5 201.015625 C 184.230469 200.925781 183.945312 200.824219 183.640625 200.722656 C 183.347656 200.601562 183.039062 200.464844 182.71875 200.328125 C 182.554688 200.265625 182.402344 200.171875 182.242188 200.085938 C 182.082031 200 181.921875 199.914062 181.757812 199.824219 C 181.585938 199.742188 181.4375 199.621094 181.273438 199.519531 C 181.109375 199.410156 180.945312 199.300781 180.78125 199.191406 C 180.160156 198.699219 179.511719 198.15625 178.964844 197.480469 C 178.894531 197.398438 178.824219 197.316406 178.753906 197.234375 C 178.6875 197.152344 178.625 197.058594 178.5625 196.96875 C 178.4375 196.789062 178.304688 196.613281 178.179688 196.425781 C 178.070312 196.234375 177.957031 196.042969 177.84375 195.847656 L 177.757812 195.699219 C 177.734375 195.652344 177.710938 195.597656 177.6875 195.546875 L 177.542969 195.242188 C 177.164062 194.417969 176.878906 193.53125 176.734375 192.621094 C 176.578125 191.714844 176.503906 190.789062 176.5625 189.878906 C 176.621094 188.972656 176.761719 188.085938 177 187.25 C 177.050781 187.039062 177.128906 186.839844 177.191406 186.636719 C 177.226562 186.535156 177.257812 186.433594 177.289062 186.332031 C 177.328125 186.234375 177.367188 186.136719 177.40625 186.039062 C 177.484375 185.847656 177.554688 185.652344 177.640625 185.464844 C 177.730469 185.28125 177.816406 185.101562 177.902344 184.921875 C 177.984375 184.738281 178.089844 184.574219 178.1875 184.40625 C 178.289062 184.242188 178.371094 184.070312 178.480469 183.917969 C 178.699219 183.609375 178.890625 183.300781 179.121094 183.039062 C 179.230469 182.90625 179.335938 182.773438 179.445312 182.644531 C 179.5625 182.527344 179.675781 182.410156 179.785156 182.292969 C 179.996094 182.054688 180.230469 181.867188 180.441406 181.675781 C 180.648438 181.480469 180.875 181.339844 181.070312 181.1875 C 181.171875 181.121094 181.261719 181.042969 181.359375 180.984375 C 181.457031 180.929688 181.550781 180.875 181.640625 180.820312 C 181.726562 180.769531 181.808594 180.71875 181.886719 180.671875 C 181.964844 180.625 182.039062 180.582031 182.113281 180.550781 C 182.257812 180.484375 182.378906 180.425781 182.476562 180.378906 " fill-opacity="1" fill-rule="nonzero"/><path fill="#292c5d" d="M 177.921875 189.65625 C 177.949219 189.414062 177.964844 189.175781 178.003906 188.941406 C 178.074219 188.476562 178.167969 188.027344 178.28125 187.609375 C 178.339844 187.398438 178.398438 187.195312 178.464844 187.003906 C 178.523438 186.808594 178.597656 186.625 178.664062 186.445312 C 178.804688 186.09375 178.949219 185.773438 179.082031 185.496094 C 179.222656 185.21875 179.351562 184.980469 179.472656 184.792969 C 179.582031 184.597656 179.683594 184.453125 179.746094 184.351562 C 179.8125 184.253906 179.847656 184.199219 179.847656 184.199219 C 179.847656 184.199219 179.808594 184.246094 179.730469 184.339844 C 179.65625 184.433594 179.539062 184.566406 179.410156 184.753906 C 179.277344 184.933594 179.128906 185.164062 178.960938 185.429688 C 178.886719 185.566406 178.796875 185.710938 178.714844 185.863281 C 178.636719 186.023438 178.546875 186.1875 178.46875 186.363281 C 178.308594 186.714844 178.148438 187.105469 178.019531 187.53125 C 177.882812 187.957031 177.765625 188.410156 177.683594 188.890625 C 177.601562 189.371094 177.542969 189.871094 177.53125 190.382812 C 177.515625 190.894531 177.539062 191.414062 177.601562 191.933594 C 177.664062 192.449219 177.769531 192.960938 177.914062 193.449219 C 178.050781 193.945312 178.242188 194.414062 178.453125 194.855469 C 178.660156 195.296875 178.917969 195.695312 179.164062 196.066406 C 179.429688 196.425781 179.695312 196.753906 179.96875 197.03125 C 180.101562 197.171875 180.230469 197.304688 180.367188 197.421875 C 180.496094 197.539062 180.621094 197.652344 180.746094 197.746094 C 180.871094 197.84375 180.980469 197.941406 181.09375 198.015625 C 181.207031 198.09375 181.308594 198.167969 181.402344 198.230469 C 181.585938 198.363281 181.742188 198.441406 181.84375 198.503906 C 181.949219 198.566406 182.003906 198.597656 182.003906 198.597656 C 182.003906 198.597656 181.953125 198.558594 181.855469 198.488281 C 181.761719 198.414062 181.613281 198.316406 181.441406 198.171875 C 181.355469 198.101562 181.261719 198.023438 181.15625 197.9375 C 181.054688 197.851562 180.953125 197.75 180.835938 197.644531 C 180.71875 197.542969 180.609375 197.421875 180.488281 197.296875 C 180.429688 197.234375 180.367188 197.171875 180.304688 197.101562 C 180.246094 197.035156 180.1875 196.964844 180.125 196.890625 C 179.875 196.605469 179.632812 196.273438 179.394531 195.914062 C 179.164062 195.542969 178.9375 195.148438 178.75 194.71875 C 178.644531 194.507812 178.566406 194.277344 178.476562 194.054688 C 178.402344 193.824219 178.320312 193.59375 178.257812 193.355469 C 178.121094 192.878906 178.023438 192.386719 177.964844 191.886719 C 177.902344 191.390625 177.875 190.886719 177.886719 190.390625 C 177.886719 190.144531 177.910156 189.898438 177.921875 189.65625 " fill-opacity="1" fill-rule="nonzero"/><path fill="#292c5d" d="M 201.101562 205.769531 C 200.636719 205.871094 200.175781 205.988281 199.710938 206.078125 C 198.78125 206.28125 197.839844 206.433594 196.902344 206.582031 C 195.960938 206.722656 195.019531 206.84375 194.070312 206.933594 L 193.359375 206.996094 L 192.648438 207.046875 C 192.171875 207.085938 191.699219 207.101562 191.222656 207.125 C 190.746094 207.152344 190.269531 207.148438 189.792969 207.164062 C 189.320312 207.171875 188.84375 207.164062 188.367188 207.167969 C 188.84375 207.175781 189.320312 207.191406 189.796875 207.191406 C 190.269531 207.1875 190.746094 207.199219 191.222656 207.183594 C 191.699219 207.171875 192.175781 207.160156 192.652344 207.132812 L 193.367188 207.097656 L 194.082031 207.046875 C 195.03125 206.980469 195.980469 206.878906 196.925781 206.757812 C 197.398438 206.6875 197.875 206.625 198.34375 206.542969 L 199.046875 206.421875 L 199.75 206.285156 C 200.222656 206.199219 200.6875 206.085938 201.152344 205.988281 C 201.617188 205.875 202.082031 205.773438 202.542969 205.644531 C 203.46875 205.410156 204.382812 205.132812 205.292969 204.839844 C 206.199219 204.542969 207.097656 204.210938 207.984375 203.863281 C 208.871094 203.503906 209.746094 203.117188 210.609375 202.707031 C 212.328125 201.878906 214.003906 200.949219 215.609375 199.914062 C 217.214844 198.878906 218.757812 197.746094 220.222656 196.519531 C 220.957031 195.90625 221.667969 195.265625 222.355469 194.605469 C 223.046875 193.945312 223.71875 193.265625 224.363281 192.5625 C 225.007812 191.855469 225.632812 191.132812 226.226562 190.382812 C 226.820312 189.632812 227.390625 188.871094 227.90625 188.054688 L 227.90625 188.050781 C 227.933594 188.007812 227.9375 187.953125 227.917969 187.90625 C 227.519531 187.011719 227.046875 186.179688 226.539062 185.359375 C 226.03125 184.542969 225.484375 183.746094 224.90625 182.980469 C 223.746094 181.445312 222.453125 180.011719 221.058594 178.6875 C 219.664062 177.363281 218.164062 176.148438 216.582031 175.054688 C 215.789062 174.507812 214.980469 173.988281 214.148438 173.503906 C 213.320312 173.019531 212.472656 172.5625 211.613281 172.136719 C 210.75 171.714844 209.871094 171.316406 208.984375 170.949219 C 208.09375 170.589844 207.195312 170.25 206.28125 169.949219 C 205.371094 169.644531 204.449219 169.371094 203.519531 169.128906 C 202.589844 168.878906 201.652344 168.675781 200.710938 168.476562 C 199.769531 168.296875 198.824219 168.128906 197.871094 167.996094 L 197.160156 167.898438 L 196.441406 167.8125 C 195.96875 167.753906 195.488281 167.710938 195.011719 167.667969 C 194.054688 167.578125 193.097656 167.523438 192.140625 167.480469 L 190.699219 167.441406 L 189.261719 167.429688 L 190.699219 167.457031 L 192.136719 167.511719 C 193.09375 167.566406 194.050781 167.632812 195.003906 167.730469 C 195.480469 167.78125 195.957031 167.828125 196.433594 167.894531 L 197.148438 167.984375 L 197.855469 168.089844 C 198.804688 168.230469 199.746094 168.410156 200.6875 168.601562 C 204.429688 169.402344 208.09375 170.617188 211.511719 172.335938 C 212.367188 172.761719 213.203125 173.222656 214.027344 173.710938 C 214.847656 174.199219 215.652344 174.71875 216.433594 175.265625 C 217.996094 176.363281 219.480469 177.578125 220.855469 178.898438 C 222.226562 180.222656 223.503906 181.648438 224.648438 183.171875 C 225.222656 183.933594 225.761719 184.71875 226.265625 185.527344 C 226.746094 186.3125 227.203125 187.125 227.574219 187.953125 C 227.085938 188.71875 226.53125 189.457031 225.960938 190.171875 C 225.367188 190.914062 224.75 191.628906 224.105469 192.324219 C 222.820312 193.714844 221.4375 195.019531 219.988281 196.238281 C 218.539062 197.460938 217.011719 198.59375 215.421875 199.625 C 213.832031 200.660156 212.175781 201.589844 210.46875 202.417969 C 208.757812 203.238281 207 203.960938 205.203125 204.578125 C 204.304688 204.878906 203.398438 205.167969 202.480469 205.410156 C 202.023438 205.542969 201.558594 205.648438 201.101562 205.769531 " fill-opacity="1" fill-rule="nonzero"/><path fill="#292c5d" d="M 223.199219 190.636719 C 222.8125 191.082031 222.425781 191.527344 222.019531 191.957031 C 221.816406 192.171875 221.613281 192.386719 221.402344 192.59375 C 221.199219 192.804688 220.988281 193.015625 220.777344 193.222656 C 220.570312 193.433594 220.355469 193.636719 220.140625 193.839844 C 219.925781 194.042969 219.710938 194.242188 219.488281 194.4375 C 219.050781 194.839844 218.601562 195.222656 218.144531 195.601562 L 217.457031 196.160156 L 216.753906 196.699219 C 216.519531 196.882812 216.277344 197.050781 216.042969 197.226562 C 215.804688 197.402344 215.5625 197.574219 215.316406 197.738281 C 214.832031 198.082031 214.332031 198.398438 213.835938 198.71875 C 213.585938 198.878906 213.332031 199.027344 213.078125 199.183594 L 212.699219 199.417969 L 212.316406 199.636719 L 211.542969 200.074219 L 210.757812 200.492188 C 210.5 200.632812 210.230469 200.761719 209.964844 200.890625 C 209.699219 201.019531 209.433594 201.15625 209.164062 201.28125 C 208.621094 201.519531 208.085938 201.773438 207.535156 201.992188 L 206.714844 202.335938 L 205.878906 202.648438 C 205.328125 202.863281 204.761719 203.039062 204.199219 203.230469 C 203.632812 203.417969 203.0625 203.578125 202.492188 203.753906 L 203.355469 203.53125 C 203.644531 203.453125 203.933594 203.386719 204.21875 203.296875 C 204.785156 203.121094 205.359375 202.960938 205.921875 202.761719 L 206.765625 202.472656 L 207.601562 202.15625 C 207.878906 202.050781 208.15625 201.941406 208.429688 201.824219 L 209.253906 201.472656 C 209.523438 201.351562 209.792969 201.222656 210.0625 201.097656 C 210.335938 200.972656 210.605469 200.847656 210.867188 200.707031 L 211.667969 200.304688 L 212.453125 199.878906 L 212.84375 199.664062 L 213.230469 199.4375 C 213.484375 199.285156 213.746094 199.136719 214 198.980469 C 214.503906 198.660156 215.007812 198.34375 215.496094 198.003906 C 215.746094 197.835938 215.992188 197.667969 216.230469 197.492188 C 216.472656 197.316406 216.71875 197.148438 216.957031 196.964844 L 217.667969 196.421875 L 218.363281 195.863281 C 218.824219 195.484375 219.28125 195.101562 219.726562 194.703125 C 219.949219 194.503906 220.167969 194.304688 220.386719 194.097656 C 220.605469 193.898438 220.820312 193.691406 221.035156 193.480469 C 221.25 193.273438 221.460938 193.066406 221.667969 192.851562 C 221.875 192.636719 222.082031 192.421875 222.28125 192.199219 C 222.691406 191.765625 223.082031 191.3125 223.46875 190.859375 C 223.851562 190.402344 224.222656 189.9375 224.585938 189.460938 C 224.941406 188.984375 225.289062 188.5 225.609375 187.984375 C 225.636719 187.941406 225.644531 187.886719 225.621094 187.839844 C 225.394531 187.324219 225.140625 186.84375 224.867188 186.367188 C 224.597656 185.890625 224.308594 185.425781 224.007812 184.964844 C 223.703125 184.511719 223.394531 184.058594 223.066406 183.621094 C 222.738281 183.179688 222.394531 182.753906 222.046875 182.332031 C 221.695312 181.914062 221.332031 181.5 220.960938 181.101562 C 220.777344 180.898438 220.585938 180.703125 220.394531 180.507812 C 220.203125 180.308594 220.011719 180.117188 219.8125 179.925781 C 219.425781 179.542969 219.015625 179.175781 218.609375 178.808594 L 217.988281 178.273438 C 217.78125 178.097656 217.5625 177.929688 217.351562 177.757812 C 217.140625 177.582031 216.921875 177.417969 216.703125 177.253906 C 216.484375 177.089844 216.269531 176.917969 216.046875 176.761719 L 215.375 176.292969 C 215.152344 176.132812 214.917969 175.988281 214.691406 175.835938 C 214.238281 175.53125 213.761719 175.261719 213.296875 174.976562 C 213.0625 174.839844 212.820312 174.707031 212.582031 174.574219 C 212.34375 174.441406 212.105469 174.308594 211.859375 174.1875 L 211.128906 173.8125 C 210.886719 173.6875 210.636719 173.578125 210.390625 173.460938 C 210.140625 173.347656 209.894531 173.226562 209.644531 173.121094 L 208.890625 172.800781 L 208.511719 172.644531 L 208.128906 172.496094 L 207.363281 172.210938 C 206.851562 172.023438 206.328125 171.859375 205.8125 171.683594 C 206.324219 171.871094 206.839844 172.046875 207.351562 172.246094 L 208.488281 172.703125 L 208.863281 172.871094 L 209.609375 173.199219 C 209.859375 173.3125 210.097656 173.4375 210.34375 173.554688 C 210.589844 173.675781 210.835938 173.789062 211.078125 173.917969 L 211.796875 174.300781 C 212.039062 174.425781 212.273438 174.566406 212.507812 174.703125 C 212.746094 174.839844 212.980469 174.972656 213.214844 175.113281 C 213.675781 175.40625 214.140625 175.683594 214.589844 175.992188 C 214.8125 176.148438 215.042969 176.292969 215.261719 176.453125 L 215.925781 176.929688 C 216.144531 177.085938 216.355469 177.257812 216.574219 177.421875 C 216.789062 177.585938 217.003906 177.753906 217.210938 177.929688 C 217.417969 178.105469 217.632812 178.273438 217.835938 178.453125 L 218.449219 178.988281 C 218.847656 179.355469 219.25 179.722656 219.628906 180.109375 C 219.824219 180.300781 220.015625 180.492188 220.199219 180.691406 C 220.386719 180.890625 220.574219 181.082031 220.753906 181.289062 C 221.121094 181.6875 221.472656 182.101562 221.816406 182.519531 C 222.160156 182.941406 222.492188 183.367188 222.8125 183.804688 C 223.136719 184.238281 223.445312 184.6875 223.742188 185.140625 C 224.039062 185.59375 224.320312 186.054688 224.585938 186.523438 C 224.835938 186.96875 225.078125 187.425781 225.28125 187.886719 C 224.980469 188.351562 224.652344 188.8125 224.3125 189.257812 C 223.953125 189.726562 223.582031 190.183594 223.199219 190.636719 " fill-opacity="1" fill-rule="nonzero"/><path fill="#292c5d" d="M 168.125 169.910156 C 168.742188 169.703125 169.359375 169.511719 169.984375 169.328125 C 169.359375 169.5 168.734375 169.675781 168.113281 169.875 C 167.496094 170.070312 166.878906 170.277344 166.269531 170.503906 C 165.65625 170.726562 165.054688 170.96875 164.453125 171.214844 C 163.855469 171.472656 163.261719 171.734375 162.675781 172.015625 C 162.085938 172.292969 161.507812 172.589844 160.933594 172.898438 C 160.363281 173.207031 159.796875 173.527344 159.238281 173.867188 C 158.128906 174.542969 157.046875 175.273438 156.011719 176.058594 C 153.933594 177.628906 152.019531 179.414062 150.320312 181.390625 C 149.472656 182.378906 148.679688 183.414062 147.953125 184.5 C 147.589844 185.039062 147.246094 185.59375 146.921875 186.160156 C 146.597656 186.726562 146.289062 187.296875 146.023438 187.90625 C 146 187.953125 146.003906 188.007812 146.03125 188.050781 L 146.03125 188.054688 C 146.183594 188.300781 146.339844 188.535156 146.503906 188.769531 C 146.664062 189.003906 146.828125 189.234375 146.996094 189.460938 C 147.164062 189.6875 147.332031 189.917969 147.507812 190.140625 C 147.679688 190.363281 147.851562 190.585938 148.039062 190.800781 C 148.214844 191.023438 148.398438 191.238281 148.585938 191.449219 C 148.773438 191.664062 148.957031 191.878906 149.152344 192.085938 C 149.34375 192.292969 149.527344 192.503906 149.726562 192.707031 L 150.3125 193.320312 C 150.511719 193.523438 150.714844 193.71875 150.914062 193.917969 C 151.117188 194.117188 151.320312 194.3125 151.53125 194.5 L 152.160156 195.070312 L 152.800781 195.625 C 153.015625 195.808594 153.226562 195.996094 153.453125 196.167969 L 154.117188 196.695312 C 154.335938 196.871094 154.570312 197.03125 154.792969 197.203125 L 155.480469 197.699219 L 154.835938 197.148438 C 154.621094 196.964844 154.402344 196.792969 154.195312 196.601562 C 153.777344 196.21875 153.351562 195.855469 152.941406 195.46875 L 152.324219 194.890625 L 151.726562 194.300781 C 151.523438 194.105469 151.328125 193.902344 151.132812 193.699219 C 150.9375 193.5 150.738281 193.300781 150.542969 193.097656 L 149.96875 192.484375 C 149.777344 192.277344 149.59375 192.066406 149.40625 191.855469 C 149.21875 191.648438 149.039062 191.433594 148.855469 191.21875 C 148.671875 191.007812 148.496094 190.792969 148.320312 190.574219 C 148.140625 190.355469 147.964844 190.140625 147.792969 189.917969 C 147.617188 189.699219 147.445312 189.476562 147.277344 189.253906 C 147.109375 189.03125 146.941406 188.804688 146.78125 188.574219 C 146.636719 188.371094 146.496094 188.164062 146.359375 187.953125 C 146.605469 187.402344 146.898438 186.851562 147.199219 186.320312 C 147.519531 185.761719 147.859375 185.210938 148.21875 184.675781 C 148.933594 183.601562 149.714844 182.570312 150.546875 181.582031 C 152.210938 179.605469 154.097656 177.816406 156.148438 176.234375 C 158.195312 174.65625 160.410156 173.285156 162.730469 172.132812 C 163.3125 171.84375 163.902344 171.574219 164.492188 171.308594 C 165.089844 171.054688 165.6875 170.800781 166.292969 170.570312 C 166.898438 170.335938 167.511719 170.121094 168.125 169.910156 " fill-opacity="1" fill-rule="nonzero"/><path fill="#292c5d" d="M 149.679688 185.960938 C 150.070312 185.3125 150.488281 184.675781 150.929688 184.058594 C 151.148438 183.75 151.375 183.441406 151.609375 183.144531 C 151.84375 182.84375 152.078125 182.542969 152.324219 182.253906 C 152.566406 181.960938 152.816406 181.675781 153.070312 181.390625 C 153.324219 181.105469 153.582031 180.828125 153.84375 180.550781 C 154.105469 180.277344 154.378906 180.007812 154.648438 179.742188 C 154.925781 179.476562 155.199219 179.214844 155.484375 178.960938 C 155.761719 178.699219 156.054688 178.453125 156.339844 178.203125 C 156.632812 177.957031 156.925781 177.710938 157.222656 177.476562 C 157.523438 177.242188 157.824219 177.003906 158.132812 176.78125 C 158.4375 176.550781 158.75 176.332031 159.0625 176.113281 C 159.375 175.890625 159.699219 175.6875 160.015625 175.472656 C 160.335938 175.265625 160.664062 175.066406 160.984375 174.863281 C 160.65625 175.058594 160.320312 175.242188 159.996094 175.441406 C 159.667969 175.644531 159.339844 175.835938 159.023438 176.054688 C 158.703125 176.261719 158.382812 176.472656 158.070312 176.699219 C 157.757812 176.914062 157.449219 177.144531 157.144531 177.371094 C 156.835938 177.601562 156.539062 177.839844 156.238281 178.078125 C 155.941406 178.324219 155.644531 178.5625 155.359375 178.820312 C 155.066406 179.070312 154.785156 179.332031 154.503906 179.589844 C 154.226562 179.855469 153.949219 180.117188 153.679688 180.390625 C 153.410156 180.664062 153.144531 180.941406 152.882812 181.222656 C 152.625 181.503906 152.367188 181.789062 152.121094 182.082031 C 151.867188 182.371094 151.625 182.667969 151.386719 182.96875 C 151.148438 183.269531 150.914062 183.574219 150.6875 183.882812 C 150.234375 184.503906 149.804688 185.140625 149.402344 185.796875 C 149.203125 186.125 149.011719 186.457031 148.828125 186.796875 C 148.644531 187.136719 148.46875 187.476562 148.3125 187.835938 C 148.292969 187.882812 148.292969 187.9375 148.320312 187.984375 L 148.324219 187.988281 C 148.4375 188.1875 148.5625 188.371094 148.6875 188.554688 C 148.8125 188.742188 148.941406 188.921875 149.070312 189.101562 C 149.203125 189.28125 149.34375 189.457031 149.476562 189.632812 C 149.609375 189.8125 149.761719 189.976562 149.902344 190.148438 C 150.046875 190.320312 150.1875 190.492188 150.339844 190.652344 C 150.492188 190.816406 150.644531 190.980469 150.796875 191.136719 C 150.949219 191.300781 151.113281 191.449219 151.273438 191.605469 C 151.4375 191.757812 151.597656 191.910156 151.765625 192.054688 C 151.503906 191.695312 151.230469 191.347656 150.960938 190.996094 C 150.828125 190.820312 150.695312 190.644531 150.558594 190.472656 C 150.421875 190.300781 150.292969 190.121094 150.15625 189.945312 C 150.023438 189.769531 149.890625 189.59375 149.761719 189.417969 C 149.628906 189.242188 149.496094 189.066406 149.367188 188.886719 C 149.242188 188.707031 149.105469 188.535156 148.984375 188.351562 C 148.875 188.199219 148.765625 188.039062 148.664062 187.886719 C 148.800781 187.574219 148.957031 187.257812 149.121094 186.953125 C 149.296875 186.617188 149.484375 186.289062 149.679688 185.960938 " fill-opacity="1" fill-rule="nonzero"/><g fill="#292c5d" fill-opacity="1"><g transform="translate(112.729456, 152.625332)"><g><path d="M -6.417969 -7.441406 L -3.191406 -12.835938 L -4.195312 -13.4375 L -8.183594 -6.769531 L 0.824219 -1.378906 L 4.816406 -8.042969 L 3.8125 -8.644531 L 0.582031 -3.253906 L -2.542969 -5.125 L 0.527344 -10.257812 L -0.4375 -10.835938 L -3.511719 -5.703125 Z M -6.417969 -7.441406 "/></g></g></g><g fill="#292c5d" fill-opacity="1"><g transform="translate(118.487909, 143.020625)"><g><path d="M -0.84375 -8.507812 C -2.574219 -6.800781 -3.320312 -6.265625 -4.183594 -6.964844 C -5.183594 -7.777344 -4.699219 -9.351562 -3.609375 -10.765625 C -2.765625 -11.878906 -1.550781 -12.921875 -0.414062 -13.371094 L -1.214844 -14.292969 C -2.515625 -13.570312 -3.699219 -12.539062 -4.5625 -11.445312 C -6.203125 -9.375 -6.667969 -7.089844 -5.039062 -5.765625 C -3.59375 -4.59375 -2.417969 -5.472656 -0.328125 -7.546875 C 1.238281 -9.097656 2.238281 -9.90625 3.289062 -9.054688 C 4.429688 -8.128906 4.140625 -6.820312 2.613281 -5.007812 C 1.675781 -3.875 0.371094 -3.078125 -0.835938 -2.589844 L 0.0898438 -1.78125 C 1.171875 -2.160156 2.652344 -3.082031 3.601562 -4.226562 C 5.578125 -6.640625 5.960938 -8.800781 4.128906 -10.285156 C 2.523438 -11.589844 1.03125 -10.367188 -0.84375 -8.507812 Z M -0.84375 -8.507812 "/></g></g></g><g fill="#292c5d" fill-opacity="1"><g transform="translate(126.4446, 133.311397)"><g><path d="M -2.527344 -11.910156 L -5.894531 -8.835938 L 1.183594 -1.082031 L 2.28125 -2.082031 L 0.046875 -4.53125 L 2.316406 -6.605469 C 4.390625 -8.496094 4.753906 -10.878906 3.214844 -12.5625 C 1.828125 -14.082031 -0.464844 -13.8125 -2.527344 -11.910156 Z M 2.160156 -11.515625 C 3.21875 -10.355469 2.976562 -8.730469 1.558594 -7.4375 L -0.710938 -5.363281 L -4.007812 -8.972656 L -1.738281 -11.046875 C -0.320312 -12.339844 1.226562 -12.535156 2.160156 -11.515625 Z M 2.160156 -11.515625 "/></g></g></g><g fill="#292c5d" fill-opacity="1"><g transform="translate(135.696372, 124.9488)"><g><path d="M 9.410156 -6.328125 L 0.00390625 -12.65625 L -2.125 -11.222656 L 0.175781 -0.117188 L 1.46875 -0.988281 L 0.855469 -3.863281 L 5.683594 -7.109375 L 8.117188 -5.457031 Z M 4.769531 -7.796875 L 0.5625 -4.96875 L -0.746094 -10.976562 L -0.324219 -11.261719 Z M 4.769531 -7.796875 "/></g></g></g><g fill="#292c5d" fill-opacity="1"><g transform="translate(145.926909, 118.10767)"><g><path d="M 5.714844 -2.578125 C 8.402344 -3.84375 9.527344 -6.132812 8.511719 -8.292969 L 7.15625 -7.652344 C 7.871094 -6.132812 7.101562 -4.527344 5.230469 -3.644531 C 3.234375 -2.703125 1.136719 -3.671875 0 -6.085938 C -1.015625 -8.242188 -0.351562 -10.316406 1.640625 -11.253906 C 3.433594 -12.097656 5.15625 -11.71875 5.914062 -10.285156 L 7.269531 -10.921875 C 6.28125 -13.027344 3.816406 -13.574219 1.128906 -12.308594 C -1.664062 -10.988281 -2.660156 -8.246094 -1.34375 -5.453125 C 0.0898438 -2.414062 2.921875 -1.261719 5.714844 -2.578125 Z M 5.714844 -2.578125 "/></g></g></g><g fill="#292c5d" fill-opacity="1"><g transform="translate(157.995887, 112.711455)"><g><path d="M 1.519531 -0.515625 L 2.925781 -0.996094 L -0.453125 -10.9375 L -1.859375 -10.457031 Z M 1.519531 -0.515625 "/></g></g></g><g fill="#292c5d" fill-opacity="1"><g transform="translate(163.304121, 110.732405)"><g><path d="M 6.089844 -1.214844 C 9.082031 -1.867188 10.609375 -4.4375 9.910156 -7.648438 C 9.238281 -10.742188 6.796875 -12.375 3.808594 -11.726562 C 0.816406 -11.074219 -0.71875 -8.53125 -0.03125 -5.367188 C 0.652344 -2.230469 3.101562 -0.566406 6.089844 -1.214844 Z M 5.84375 -2.359375 C 3.730469 -1.902344 1.960938 -3.203125 1.433594 -5.621094 C 0.886719 -8.144531 1.945312 -10.125 4.054688 -10.582031 C 6.179688 -11.042969 7.941406 -9.722656 8.472656 -7.273438 C 9.015625 -4.785156 7.96875 -2.820312 5.84375 -2.359375 Z M 5.84375 -2.359375 "/></g></g></g><g fill="#292c5d" fill-opacity="1"><g transform="translate(176.454558, 108.171555)"><g/></g></g><g fill="#292c5d" fill-opacity="1"><g transform="translate(181.00502, 107.531835)"><g><path d="M 11.339844 -0.046875 L 7.019531 -10.53125 L 4.457031 -10.519531 L 0.210938 0 L 1.769531 -0.0078125 L 2.851562 -2.742188 L 8.671875 -2.765625 L 9.78125 -0.0429688 Z M 8.292969 -3.84375 L 3.222656 -3.824219 L 5.464844 -9.546875 L 5.976562 -9.550781 Z M 8.292969 -3.84375 "/></g></g></g><g fill="#292c5d" fill-opacity="1"><g transform="translate(193.314909, 107.513788)"><g><path d="M 9.242188 -3.65625 L 9.253906 -3.730469 C 10.433594 -3.722656 11.550781 -4.707031 11.773438 -6.207031 C 12.007812 -7.808594 10.644531 -9.042969 8.375 -9.378906 L 3.121094 -10.152344 L 1.585938 0.234375 L 3.058594 0.453125 L 3.699219 -3.910156 L 7.320312 -3.378906 C 8.851562 -3.152344 9.761719 -2.242188 9.597656 -1.117188 L 9.273438 1.367188 L 10.730469 1.582031 L 11.121094 -1.085938 C 11.300781 -2.289062 10.4375 -3.328125 9.242188 -3.65625 Z M 7.621094 -4.46875 L 3.863281 -5.023438 L 4.425781 -8.824219 L 7.988281 -8.296875 C 9.5 -8.074219 10.425781 -7.242188 10.261719 -6.140625 C 10.085938 -4.941406 9.027344 -4.261719 7.621094 -4.46875 Z M 7.621094 -4.46875 "/></g></g></g><g fill="#292c5d" fill-opacity="1"><g transform="translate(206.119922, 109.52239)"><g><path d="M 12.773438 -7.128906 L 3.347656 -9.957031 L 3.011719 -8.835938 L 7.019531 -7.632812 L 4.339844 1.300781 L 5.746094 1.726562 L 8.429688 -7.210938 L 12.4375 -6.007812 Z M 12.773438 -7.128906 "/></g></g></g><g fill="#292c5d" fill-opacity="1"><g transform="translate(217.106017, 113.031459)"><g><path d="M 5.957031 -9.964844 L 7.144531 -9.46875 L 9.785156 -10.808594 L 8.207031 -11.464844 Z M 1.480469 0.617188 L 2.851562 1.1875 L 6.90625 -8.546875 L 5.535156 -9.117188 Z M 1.480469 0.617188 "/></g></g></g><g fill="#292c5d" fill-opacity="1"><g transform="translate(222.402633, 115.085619)"><g><path d="M 8.226562 -2.328125 C 6.242188 -3.730469 5.585938 -4.367188 6.121094 -5.339844 C 6.746094 -6.46875 8.382812 -6.269531 9.964844 -5.445312 C 11.207031 -4.808594 12.449219 -3.796875 13.089844 -2.757812 L 13.855469 -3.707031 C 12.917969 -4.859375 11.695312 -5.84375 10.464844 -6.503906 C 8.140625 -7.753906 5.808594 -7.8125 4.792969 -5.972656 C 3.890625 -4.34375 4.964844 -3.339844 7.371094 -1.648438 C 9.171875 -0.382812 10.144531 0.464844 9.492188 1.644531 C 8.78125 2.933594 7.441406 2.878906 5.390625 1.691406 C 4.109375 0.96875 3.09375 -0.175781 2.402344 -1.277344 L 1.769531 -0.222656 C 2.332031 0.773438 3.5 2.070312 4.792969 2.800781 C 7.515625 4.324219 9.710938 4.320312 10.851562 2.257812 C 11.851562 0.449219 10.386719 -0.808594 8.226562 -2.328125 Z M 8.226562 -2.328125 "/></g></g></g><g fill="#292c5d" fill-opacity="1"><g transform="translate(233.366846, 121.259584)"><g><path d="M 14.457031 -2.226562 L 6.609375 -8.164062 L 5.90625 -7.230469 L 9.242188 -4.707031 L 3.613281 2.734375 L 4.785156 3.621094 L 10.414062 -3.820312 L 13.75 -1.296875 Z M 14.457031 -2.226562 "/></g></g></g><g fill="#292c5d" fill-opacity="1"><g transform="translate(242.440684, 128.378257)"><g><path d="M 1.171875 1.09375 L 2.257812 2.109375 L 9.421875 -5.570312 L 8.335938 -6.582031 Z M 1.171875 1.09375 "/></g></g></g><g fill="#292c5d" fill-opacity="1"><g transform="translate(246.693731, 132.124808)"><g><path d="M 3.992188 4.835938 C 5.921875 7.09375 8.429688 7.574219 10.242188 6.027344 L 9.265625 4.886719 C 7.988281 5.976562 6.238281 5.660156 4.894531 4.085938 C 3.460938 2.410156 3.839844 0.132812 5.871094 -1.605469 C 7.683594 -3.152344 9.859375 -3.058594 11.289062 -1.382812 C 12.578125 0.125 12.660156 1.886719 11.480469 2.996094 L 12.453125 4.136719 C 14.222656 2.625 14.097656 0.105469 12.167969 -2.152344 C 10.164062 -4.5 7.253906 -4.738281 4.90625 -2.734375 C 2.351562 -0.550781 1.984375 2.484375 3.992188 4.835938 Z M 3.992188 4.835938 "/></g></g></g><g fill="#292c5d" fill-opacity="1"><g transform="translate(255.108975, 142.057958)"><g><path d="M 3.160156 5.347656 C 4.761719 7.953125 7.695312 8.546875 10.496094 6.828125 C 13.191406 5.171875 13.925781 2.324219 12.324219 -0.28125 C 10.722656 -2.890625 7.816406 -3.496094 5.054688 -1.800781 C 2.320312 -0.121094 1.558594 2.738281 3.160156 5.347656 Z M 4.15625 4.734375 C 3.027344 2.894531 3.671875 0.789062 5.78125 -0.503906 C 7.980469 -1.855469 10.199219 -1.511719 11.328125 0.328125 C 12.464844 2.183594 11.800781 4.28125 9.667969 5.59375 C 7.492188 6.925781 5.296875 6.585938 4.15625 4.734375 Z M 4.15625 4.734375 "/></g></g></g><g fill="#292c5d" fill-opacity="1"><g transform="translate(96.903475, 217.300868)"><g><path d="M 13.371094 4.394531 L 10.265625 -2.726562 L 0.640625 1.472656 L 1.234375 2.832031 L 5.609375 0.925781 L 8 6.410156 L 9.03125 5.960938 L 6.640625 0.476562 L 9.789062 -0.898438 L 12.300781 4.863281 Z M 13.371094 4.394531 "/></g></g></g><g fill="#292c5d" fill-opacity="1"><g transform="translate(102.021037, 228.652091)"><g><path d="M 5.816406 7.445312 L 2.589844 2.050781 L 10.597656 -2.734375 L 9.835938 -4.011719 L 0.824219 1.378906 L 4.8125 8.046875 Z M 5.816406 7.445312 "/></g></g></g><g fill="#292c5d" fill-opacity="1"><g transform="translate(108.364407, 239.120296)"><g><path d="M 3.816406 4.902344 C 5.734375 7.285156 8.722656 7.496094 11.277344 5.4375 C 13.742188 3.449219 14.109375 0.535156 12.1875 -1.847656 C 10.269531 -4.230469 7.308594 -4.464844 4.785156 -2.429688 C 2.285156 -0.414062 1.894531 2.519531 3.816406 4.902344 Z M 4.726562 4.167969 C 3.371094 2.484375 3.742188 0.316406 5.667969 -1.238281 C 7.679688 -2.855469 9.921875 -2.796875 11.277344 -1.113281 C 12.644531 0.578125 12.25 2.746094 10.300781 4.316406 C 8.316406 5.917969 6.089844 5.859375 4.726562 4.167969 Z M 4.726562 4.167969 "/></g></g></g><g fill="#292c5d" fill-opacity="1"><g transform="translate(117.784639, 250.50268)"><g><path d="M 9.703125 2.144531 L 9.753906 2.089844 C 10.730469 2.757812 12.207031 2.566406 13.230469 1.445312 C 14.324219 0.25 13.882812 -1.535156 12.1875 -3.082031 L 8.269531 -6.667969 L 1.183594 1.082031 L 2.28125 2.085938 L 5.257812 -1.167969 L 7.957031 1.300781 C 9.097656 2.34375 9.34375 3.605469 8.574219 4.445312 L 6.917969 6.324219 L 8.003906 7.316406 L 9.824219 5.324219 C 10.644531 4.429688 10.511719 3.085938 9.703125 2.144531 Z M 8.816406 0.5625 L 6.015625 -2 L 8.605469 -4.832031 L 11.261719 -2.40625 C 12.394531 -1.371094 12.691406 -0.164062 11.941406 0.65625 C 11.121094 1.550781 9.867188 1.523438 8.816406 0.5625 Z M 8.816406 0.5625 "/></g></g></g><g fill="#292c5d" fill-opacity="1"><g transform="translate(128.60215, 260.093845)"><g><path d="M 7.820312 -5.953125 L 13.007812 -2.40625 L 13.667969 -3.371094 L 7.253906 -7.757812 L 1.324219 0.90625 L 7.738281 5.292969 L 8.398438 4.328125 L 3.210938 0.78125 L 5.269531 -2.230469 L 10.207031 1.152344 L 10.84375 0.222656 L 5.90625 -3.15625 Z M 7.820312 -5.953125 "/></g></g></g><g fill="#292c5d" fill-opacity="1"><g transform="translate(139.123454, 267.180887)"><g><path d="M 1.445312 0.695312 L 2.777344 1.355469 L 6.566406 -6.425781 L 6.660156 -6.382812 L 7.976562 3.9375 L 9.679688 4.757812 L 14.316406 -4.644531 L 12.984375 -5.300781 L 9.214844 2.40625 L 9.121094 2.359375 L 7.78125 -7.871094 L 6.085938 -8.707031 Z M 1.445312 0.695312 "/></g></g></g><g fill="#292c5d" fill-opacity="1"><g transform="translate(152.430492, 273.541571)"><g><path d="M 5.945312 1.992188 C 8.777344 2.886719 11.160156 1.972656 11.878906 -0.304688 L 10.449219 -0.753906 C 9.941406 0.847656 8.289062 1.503906 6.3125 0.878906 C 4.210938 0.214844 3.328125 -1.921875 4.132812 -4.464844 C 4.851562 -6.742188 6.75 -7.808594 8.851562 -7.144531 C 10.738281 -6.546875 11.742188 -5.097656 11.324219 -3.53125 L 12.757812 -3.078125 C 13.457031 -5.292969 12.019531 -7.367188 9.1875 -8.265625 C 6.242188 -9.195312 3.648438 -7.859375 2.71875 -4.914062 C 1.703125 -1.710938 3 1.058594 5.945312 1.992188 Z M 5.945312 1.992188 "/></g></g></g><g fill="#292c5d" fill-opacity="1"><g transform="translate(166.243944, 277.56984)"><g><path d="M 1.574219 0.3125 L 3.03125 0.601562 L 5.078125 -9.695312 L 3.621094 -9.984375 Z M 1.574219 0.3125 "/></g></g></g><g fill="#292c5d" fill-opacity="1"><g transform="translate(172.908969, 278.965792)"><g><path d="M 11.292969 1.023438 L 7.984375 -9.820312 L 5.429688 -10.050781 L 0.210938 0.0195312 L 1.761719 0.160156 L 3.101562 -2.460938 L 8.894531 -1.933594 L 9.738281 0.882812 Z M 8.621094 -3.042969 L 3.570312 -3.503906 L 6.34375 -8.988281 L 6.851562 -8.941406 Z M 8.621094 -3.042969 "/></g></g></g><g fill="#292c5d" fill-opacity="1"><g transform="translate(186.477288, 279.892823)"><g/></g></g><g fill="#292c5d" fill-opacity="1"><g transform="translate(192.087893, 279.899994)"><g><path d="M 8.257812 -11.398438 L 0.527344 -10.609375 L 1.597656 -0.164062 L 3.074219 -0.316406 L 2.589844 -5.058594 L 8.542969 -5.667969 L 8.429688 -6.789062 L 2.472656 -6.179688 L 2.125 -9.597656 L 8.375 -10.234375 Z M 8.257812 -11.398438 "/></g></g></g><g fill="#292c5d" fill-opacity="1"><g transform="translate(204.537502, 278.534088)"><g><path d="M 7.171875 -6.882812 L 7.152344 -6.953125 C 8.25 -7.394531 8.910156 -8.730469 8.546875 -10.203125 C 8.160156 -11.773438 6.429688 -12.398438 4.199219 -11.851562 L -0.953125 -10.578125 L 1.558594 -0.382812 L 3 -0.738281 L 1.945312 -5.019531 L 5.5 -5.898438 C 7 -6.265625 8.1875 -5.773438 8.460938 -4.664062 L 9.101562 -2.242188 L 10.53125 -2.59375 L 9.882812 -5.21875 C 9.59375 -6.398438 8.402344 -7.03125 7.171875 -6.882812 Z M 5.359375 -7.023438 L 1.675781 -6.113281 L 0.757812 -9.84375 L 4.25 -10.703125 C 5.738281 -11.070312 6.90625 -10.648438 7.171875 -9.570312 C 7.464844 -8.390625 6.742188 -7.363281 5.359375 -7.023438 Z M 5.359375 -7.023438 "/></g></g></g><g fill="#292c5d" fill-opacity="1"><g transform="translate(218.562199, 274.877038)"><g><path d="M 10.496094 -4.296875 L 2.558594 -12.394531 L 0.1875 -11.421875 L 0.195312 -0.078125 L 1.636719 -0.671875 L 1.617188 -3.613281 L 7.003906 -5.816406 L 9.050781 -3.707031 Z M 6.246094 -6.675781 L 1.554688 -4.753906 L 1.484375 -10.902344 L 1.957031 -11.09375 Z M 6.246094 -6.675781 "/></g></g></g><g fill="#292c5d" fill-opacity="1"><g transform="translate(231.347864, 269.490659)"><g><path d="M 1.371094 -0.832031 L 2.648438 -1.59375 L -1.816406 -9.007812 L -1.726562 -9.0625 L 7.644531 -4.546875 L 9.261719 -5.527344 L 3.902344 -14.539062 L 2.625 -13.777344 L 7.035156 -6.421875 L 6.945312 -6.367188 L -2.363281 -10.8125 L -3.988281 -9.84375 Z M 1.371094 -0.832031 "/></g></g></g><g fill="#292c5d" fill-opacity="1"><g transform="translate(243.827303, 261.779109)"><g><path d="M 0.648438 -13.972656 L -5.921875 -8.710938 L -5.1875 -7.796875 L -0.109375 -11.867188 L -0.0625 -11.808594 L -0.269531 -1.226562 L 0.421875 -0.335938 L 7.210938 -5.777344 L 6.480469 -6.691406 L 1.199219 -2.460938 L 1.132812 -2.542969 L 1.34375 -13.125 Z M 0.648438 -13.972656 "/></g></g></g><g fill="#292c5d" fill-opacity="1"><g transform="translate(253.239754, 254.148833)"><g><path d="M 4.339844 -4.445312 C 6.4375 -6.667969 6.246094 -9.65625 3.859375 -11.910156 C 1.554688 -14.082031 -1.382812 -14.050781 -3.484375 -11.828125 C -5.582031 -9.601562 -5.414062 -6.632812 -3.054688 -4.410156 C -0.722656 -2.207031 2.238281 -2.21875 4.339844 -4.445312 Z M 3.488281 -5.246094 C 2.003906 -3.675781 -0.191406 -3.75 -1.992188 -5.449219 C -3.871094 -7.21875 -4.113281 -9.453125 -2.632812 -11.023438 C -1.136719 -12.605469 1.0625 -12.507812 2.882812 -10.789062 C 4.738281 -9.039062 4.980469 -6.828125 3.488281 -5.246094 Z M 3.488281 -5.246094 "/></g></g></g><g fill="#292c5d" fill-opacity="1"><g transform="translate(263.176431, 243.28524)"><g><path d="M -2.71875 -14.375 L -8.386719 -6.328125 L -7.429688 -5.65625 L -5.019531 -9.078125 L 2.609375 -3.703125 L 3.457031 -4.90625 L -4.171875 -10.277344 L -1.761719 -13.699219 Z M -2.71875 -14.375 "/></g></g></g><g fill="#292c5d" fill-opacity="1"><g transform="translate(270.414852, 232.752995)"><g><path d="M -4.589844 -13.890625 L -9.148438 -5.167969 L -8.109375 -4.625 L -6.171875 -8.335938 L 2.097656 -4.015625 L 2.777344 -5.316406 L -5.492188 -9.636719 L -3.554688 -13.347656 Z M -4.589844 -13.890625 "/></g></g></g><g fill="#292c5d" fill-opacity="1"><g transform="translate(276.025451, 221.47061)"><g><path d="M 0.597656 -1.488281 L 1.148438 -2.867188 L -8.597656 -6.773438 L -9.152344 -5.394531 Z M 0.597656 -1.488281 "/></g></g></g></svg>