<svg xmlns="http://www.w3.org/2000/svg" xmlns:xlink="http://www.w3.org/1999/xlink" width="500" zoomAndPan="magnify" viewBox="0 0 375 374.999991" height="500" preserveAspectRatio="xMidYMid meet" version="1.0"><defs><g/><clipPath id="id1"><path d="M 129.453125 129.453125 L 245.703125 129.453125 L 245.703125 245.703125 L 129.453125 245.703125 Z M 129.453125 129.453125 " clip-rule="nonzero"/></clipPath><clipPath id="id2"><path d="M 108.636719 178.175781 L 113.613281 178.175781 L 113.613281 183.152344 L 108.636719 183.152344 Z M 108.636719 178.175781 " clip-rule="nonzero"/></clipPath><clipPath id="id3"><path d="M 259.933594 178.175781 L 264.910156 178.175781 L 264.910156 183.152344 L 259.933594 183.152344 Z M 259.933594 178.175781 " clip-rule="nonzero"/></clipPath><clipPath id="id4"><path d="M 155.632812 170.96875 L 219.382812 170.96875 L 219.382812 203.96875 L 155.632812 203.96875 Z M 155.632812 170.96875 " clip-rule="nonzero"/></clipPath></defs><g clip-path="url(#id1)"><path fill="#292c5d" d="M 187.578125 129.453125 C 155.476562 129.453125 129.453125 155.476562 129.453125 187.578125 C 129.453125 219.679688 155.476562 245.703125 187.578125 245.703125 C 219.679688 245.703125 245.703125 219.679688 245.703125 187.578125 C 245.703125 155.476562 219.679688 129.453125 187.578125 129.453125 " fill-opacity="1" fill-rule="nonzero"/></g><g clip-path="url(#id2)"><path fill="#000000" d="M 111.125 183.152344 C 109.753906 183.152344 108.636719 182.035156 108.636719 180.664062 C 108.636719 179.292969 109.753906 178.175781 111.125 178.175781 C 112.496094 178.175781 113.609375 179.292969 113.609375 180.664062 C 113.613281 182.035156 112.496094 183.152344 111.125 183.152344 Z M 111.125 179.546875 C 110.507812 179.546875 110.007812 180.046875 110.007812 180.664062 C 110.007812 181.277344 110.507812 181.78125 111.125 181.78125 C 111.738281 181.78125 112.242188 181.277344 112.242188 180.664062 C 112.242188 180.046875 111.742188 179.546875 111.125 179.546875 Z M 111.125 179.546875 " fill-opacity="1" fill-rule="nonzero"/></g><g clip-path="url(#id3)"><path fill="#000000" d="M 262.417969 183.152344 C 261.050781 183.152344 259.933594 182.035156 259.933594 180.664062 C 259.933594 179.292969 261.050781 178.175781 262.417969 178.175781 C 263.792969 178.175781 264.90625 179.292969 264.90625 180.664062 C 264.910156 182.035156 263.792969 183.152344 262.417969 183.152344 Z M 262.417969 179.546875 C 261.804688 179.546875 261.300781 180.046875 261.300781 180.664062 C 261.300781 181.277344 261.804688 181.78125 262.417969 181.78125 C 263.035156 181.78125 263.539062 181.277344 263.539062 180.664062 C 263.539062 180.046875 263.039062 179.546875 262.417969 179.546875 Z M 262.417969 179.546875 " fill-opacity="1" fill-rule="nonzero"/></g><g clip-path="url(#id4)"><path fill="#ffffff" d="M 219.339844 187.835938 C 219.171875 187.453125 218.992188 187.109375 218.796875 186.757812 C 218.605469 186.40625 218.402344 186.066406 218.191406 185.726562 C 217.769531 185.054688 217.316406 184.402344 216.835938 183.773438 C 215.875 182.507812 214.804688 181.332031 213.652344 180.242188 C 212.5 179.15625 211.261719 178.160156 209.953125 177.261719 C 208.648438 176.359375 207.273438 175.5625 205.855469 174.863281 C 205.140625 174.515625 204.417969 174.195312 203.683594 173.894531 C 202.953125 173.597656 202.207031 173.328125 201.457031 173.074219 C 199.953125 172.582031 198.421875 172.175781 196.871094 171.867188 C 195.320312 171.558594 193.753906 171.332031 192.179688 171.1875 C 190.609375 171.042969 189.023438 170.984375 187.449219 170.988281 C 184.296875 170.996094 181.136719 171.269531 178.039062 171.886719 C 176.492188 172.199219 174.957031 172.589844 173.457031 173.082031 C 172.707031 173.324219 171.964844 173.601562 171.230469 173.890625 C 170.5 174.1875 169.777344 174.507812 169.066406 174.847656 C 167.644531 175.539062 166.269531 176.320312 164.964844 177.210938 C 163.660156 178.101562 162.421875 179.085938 161.273438 180.167969 C 160.125 181.25 159.058594 182.417969 158.105469 183.671875 C 157.628906 184.300781 157.179688 184.949219 156.765625 185.617188 C 156.351562 186.289062 155.964844 186.976562 155.644531 187.707031 C 155.636719 187.726562 155.632812 187.75 155.644531 187.773438 C 155.769531 188.101562 155.917969 188.410156 156.078125 188.714844 C 156.234375 189.019531 156.402344 189.320312 156.582031 189.613281 C 156.757812 189.90625 156.949219 190.191406 157.140625 190.476562 L 157.4375 190.898438 L 157.746094 191.308594 L 158.0625 191.710938 L 158.390625 192.109375 L 158.730469 192.496094 C 158.84375 192.625 158.960938 192.75 159.074219 192.875 C 159.191406 193.003906 159.3125 193.121094 159.429688 193.246094 C 159.550781 193.371094 159.671875 193.488281 159.796875 193.609375 C 160.039062 193.851562 160.292969 194.078125 160.546875 194.3125 C 160.804688 194.535156 161.058594 194.765625 161.328125 194.976562 C 161.460938 195.082031 161.59375 195.191406 161.726562 195.296875 L 162.136719 195.609375 C 162.410156 195.8125 162.691406 196.011719 162.972656 196.207031 C 163.257812 196.394531 163.535156 196.59375 163.828125 196.769531 L 164.265625 197.039062 L 164.707031 197.296875 C 165 197.476562 165.304688 197.632812 165.605469 197.796875 C 165.90625 197.960938 166.214844 198.105469 166.519531 198.261719 C 166.828125 198.40625 167.140625 198.546875 167.449219 198.691406 C 167.144531 198.542969 166.832031 198.398438 166.527344 198.246094 C 166.222656 198.089844 165.917969 197.9375 165.621094 197.769531 C 165.320312 197.601562 165.019531 197.441406 164.730469 197.261719 L 164.289062 197 L 163.859375 196.722656 C 163.570312 196.542969 163.292969 196.339844 163.011719 196.148438 C 162.734375 195.949219 162.457031 195.75 162.1875 195.542969 L 161.785156 195.226562 C 161.652344 195.121094 161.523438 195.007812 161.390625 194.902344 C 161.125 194.683594 160.875 194.453125 160.621094 194.230469 C 160.371094 193.996094 160.121094 193.765625 159.878906 193.523438 C 159.757812 193.402344 159.640625 193.28125 159.523438 193.15625 C 159.40625 193.035156 159.285156 192.914062 159.171875 192.785156 C 159.058594 192.660156 158.941406 192.535156 158.832031 192.40625 L 158.5 192.015625 L 158.179688 191.621094 L 157.867188 191.21875 L 157.566406 190.804688 L 157.273438 190.386719 C 157.085938 190.101562 156.902344 189.816406 156.730469 189.523438 C 156.558594 189.230469 156.390625 188.933594 156.238281 188.632812 C 156.09375 188.34375 155.953125 188.042969 155.839844 187.746094 C 156.152344 187.050781 156.539062 186.382812 156.949219 185.734375 C 157.367188 185.074219 157.816406 184.433594 158.296875 183.816406 C 159.25 182.582031 160.316406 181.433594 161.464844 180.371094 C 162.613281 179.3125 163.847656 178.347656 165.148438 177.480469 C 166.445312 176.613281 167.8125 175.84375 169.21875 175.167969 C 169.925781 174.835938 170.644531 174.523438 171.367188 174.234375 C 172.097656 173.953125 172.832031 173.683594 173.578125 173.445312 C 175.0625 172.964844 176.582031 172.589844 178.117188 172.285156 C 181.1875 171.695312 184.320312 171.441406 187.449219 171.449219 C 189.019531 171.453125 190.578125 171.523438 192.136719 171.675781 C 193.691406 171.828125 195.238281 172.058594 196.769531 172.371094 C 198.296875 172.683594 199.804688 173.09375 201.285156 173.585938 C 202.023438 173.839844 202.753906 174.109375 203.476562 174.40625 C 204.195312 174.707031 204.90625 175.027344 205.601562 175.371094 C 206.996094 176.066406 208.34375 176.851562 209.625 177.738281 C 210.902344 178.621094 212.117188 179.601562 213.242188 180.671875 C 214.367188 181.746094 215.414062 182.902344 216.351562 184.136719 C 216.820312 184.757812 217.261719 185.394531 217.671875 186.050781 C 217.875 186.382812 218.070312 186.714844 218.253906 187.050781 C 218.414062 187.339844 218.566406 187.640625 218.699219 187.929688 C 218.519531 188.207031 218.324219 188.488281 218.125 188.761719 C 217.890625 189.078125 217.652344 189.390625 217.402344 189.699219 C 216.910156 190.3125 216.390625 190.910156 215.851562 191.488281 C 214.773438 192.648438 213.617188 193.730469 212.398438 194.738281 C 209.957031 196.757812 207.257812 198.460938 204.382812 199.789062 C 201.511719 201.121094 198.460938 202.070312 195.34375 202.632812 C 193.785156 202.914062 192.210938 203.105469 190.625 203.199219 L 190.03125 203.230469 L 189.4375 203.253906 C 189.042969 203.269531 188.648438 203.273438 188.25 203.277344 C 187.855469 203.285156 187.457031 203.269531 187.0625 203.269531 C 186.871094 203.265625 186.664062 203.257812 186.464844 203.25 C 186.269531 203.242188 186.078125 203.234375 185.878906 203.21875 C 184.3125 203.105469 182.753906 202.832031 181.269531 202.332031 C 179.785156 201.835938 178.378906 201.117188 177.140625 200.171875 C 175.90625 199.226562 174.84375 198.054688 174.03125 196.730469 C 173.214844 195.402344 172.648438 193.929688 172.332031 192.402344 C 171.703125 189.347656 172.082031 186.09375 173.363281 183.246094 C 174.003906 181.824219 174.878906 180.503906 175.945312 179.371094 C 177.015625 178.234375 178.28125 177.289062 179.679688 176.59375 C 181.078125 175.898438 182.597656 175.453125 184.152344 175.25 C 184.929688 175.148438 185.714844 175.101562 186.5 175.109375 C 186.890625 175.109375 187.289062 175.132812 187.671875 175.15625 C 188.074219 175.1875 188.460938 175.226562 188.851562 175.277344 C 190.410156 175.484375 191.945312 175.875 193.371094 176.523438 C 194.792969 177.164062 196.101562 178.066406 197.160156 179.210938 C 198.21875 180.347656 199.023438 181.71875 199.511719 183.199219 C 200.003906 184.675781 200.195312 186.253906 200.089844 187.8125 C 199.984375 189.371094 199.589844 190.910156 198.929688 192.328125 C 198.269531 193.746094 197.335938 195.039062 196.167969 196.078125 C 195.003906 197.121094 193.605469 197.894531 192.097656 198.324219 C 190.59375 198.761719 188.996094 198.851562 187.433594 198.675781 C 185.871094 198.496094 184.324219 198.078125 182.957031 197.3125 C 182.273438 196.933594 181.640625 196.464844 181.085938 195.914062 C 180.53125 195.367188 180.058594 194.734375 179.683594 194.054688 C 178.929688 192.683594 178.585938 191.101562 178.625 189.539062 C 178.664062 187.972656 179.070312 186.410156 179.820312 185.027344 C 180.566406 183.652344 181.683594 182.453125 183.082031 181.738281 C 183.78125 181.378906 184.539062 181.144531 185.320312 181.050781 C 186.066406 180.957031 186.824219 180.996094 187.5625 181.128906 C 187.527344 181.300781 187.5 181.472656 187.476562 181.644531 C 187.453125 181.855469 187.433594 182.0625 187.421875 182.277344 C 187.402344 182.699219 187.421875 183.121094 187.484375 183.542969 C 187.515625 183.75 187.558594 183.960938 187.617188 184.164062 C 187.679688 184.367188 187.75 184.570312 187.84375 184.761719 C 187.9375 184.957031 188.042969 185.144531 188.171875 185.3125 C 188.234375 185.402344 188.308594 185.480469 188.375 185.5625 C 188.453125 185.636719 188.523438 185.71875 188.609375 185.785156 C 188.765625 185.929688 188.957031 186.046875 189.132812 186.15625 C 189.320312 186.257812 189.511719 186.355469 189.710938 186.429688 C 189.910156 186.5 190.117188 186.5625 190.328125 186.601562 C 190.535156 186.640625 190.75 186.660156 190.960938 186.664062 C 191.386719 186.671875 191.8125 186.609375 192.21875 186.488281 C 192.421875 186.429688 192.621094 186.359375 192.816406 186.273438 C 192.980469 186.199219 193.140625 186.117188 193.296875 186.023438 C 193.449219 186.878906 193.417969 187.765625 193.222656 188.617188 C 193.019531 189.496094 192.644531 190.339844 192.097656 191.0625 C 191.828125 191.425781 191.511719 191.753906 191.160156 192.039062 C 190.808594 192.324219 190.417969 192.566406 190 192.742188 C 189.582031 192.921875 189.140625 193.039062 188.6875 193.089844 C 188.234375 193.136719 187.777344 193.121094 187.324219 193.050781 C 187.773438 193.128906 188.234375 193.148438 188.6875 193.105469 C 189.144531 193.058594 189.589844 192.949219 190.015625 192.773438 C 190.4375 192.601562 190.832031 192.363281 191.191406 192.078125 C 191.550781 191.796875 191.871094 191.464844 192.152344 191.101562 C 192.710938 190.378906 193.105469 189.527344 193.320312 188.640625 C 193.535156 187.75 193.570312 186.8125 193.40625 185.910156 C 193.402344 185.902344 193.402344 185.894531 193.394531 185.886719 C 193.378906 185.855469 193.339844 185.847656 193.308594 185.867188 C 193.136719 185.976562 192.949219 186.070312 192.761719 186.152344 C 192.574219 186.234375 192.378906 186.304688 192.183594 186.359375 C 191.785156 186.46875 191.375 186.527344 190.964844 186.519531 C 190.761719 186.511719 190.558594 186.488281 190.355469 186.449219 C 190.15625 186.414062 189.960938 186.351562 189.769531 186.28125 C 189.578125 186.207031 189.394531 186.113281 189.21875 186.015625 C 189.039062 185.902344 188.871094 185.796875 188.722656 185.65625 C 188.644531 185.59375 188.578125 185.515625 188.503906 185.445312 C 188.441406 185.367188 188.371094 185.292969 188.316406 185.210938 C 188.191406 185.046875 188.09375 184.871094 188.007812 184.6875 C 187.921875 184.503906 187.855469 184.308594 187.796875 184.113281 C 187.742188 183.917969 187.707031 183.714844 187.675781 183.515625 C 187.617188 183.109375 187.605469 182.695312 187.628906 182.285156 C 187.640625 182.082031 187.660156 181.875 187.6875 181.671875 C 187.714844 181.46875 187.75 181.261719 187.796875 181.066406 L 187.796875 181.0625 C 187.808594 181.003906 187.769531 180.949219 187.710938 180.9375 C 186.921875 180.773438 186.101562 180.71875 185.292969 180.8125 C 184.484375 180.90625 183.691406 181.140625 182.964844 181.507812 C 181.503906 182.238281 180.339844 183.46875 179.554688 184.882812 C 178.769531 186.300781 178.332031 187.90625 178.285156 189.527344 C 178.234375 191.148438 178.582031 192.792969 179.359375 194.226562 C 179.746094 194.945312 180.238281 195.609375 180.816406 196.183594 C 181.394531 196.761719 182.054688 197.253906 182.761719 197.65625 C 184.183594 198.460938 185.78125 198.898438 187.386719 199.089844 C 188.996094 199.285156 190.652344 199.203125 192.222656 198.753906 C 193.792969 198.3125 195.261719 197.511719 196.484375 196.429688 C 197.707031 195.351562 198.6875 194.011719 199.382812 192.539062 C 200.078125 191.070312 200.496094 189.472656 200.613281 187.847656 C 200.730469 186.226562 200.546875 184.578125 200.039062 183.023438 C 199.53125 181.472656 198.695312 180.023438 197.582031 178.820312 C 196.46875 177.617188 195.097656 176.664062 193.613281 175.988281 C 192.128906 175.308594 190.535156 174.898438 188.929688 174.683594 C 188.53125 174.628906 188.117188 174.589844 187.722656 174.554688 C 187.3125 174.527344 186.914062 174.503906 186.503906 174.503906 C 185.691406 174.492188 184.878906 174.539062 184.070312 174.640625 C 182.457031 174.847656 180.867188 175.308594 179.402344 176.035156 C 177.933594 176.753906 176.601562 177.746094 175.476562 178.929688 C 174.355469 180.117188 173.441406 181.496094 172.773438 182.980469 C 171.429688 185.953125 171.035156 189.335938 171.6875 192.535156 C 172.015625 194.132812 172.609375 195.679688 173.464844 197.074219 C 174.316406 198.472656 175.4375 199.703125 176.734375 200.699219 C 178.035156 201.695312 179.511719 202.449219 181.054688 202.96875 C 182.601562 203.488281 184.214844 203.773438 185.832031 203.886719 C 186.035156 203.902344 186.242188 203.910156 186.445312 203.921875 C 186.644531 203.929688 186.839844 203.9375 187.046875 203.941406 C 187.449219 203.941406 187.851562 203.953125 188.253906 203.949219 C 188.65625 203.941406 189.058594 203.941406 189.460938 203.921875 L 190.066406 203.898438 L 190.667969 203.863281 C 192.277344 203.769531 193.878906 203.570312 195.464844 203.285156 C 198.632812 202.707031 201.734375 201.742188 204.660156 200.382812 C 207.585938 199.027344 210.332031 197.292969 212.808594 195.238281 C 214.050781 194.210938 215.222656 193.101562 216.316406 191.917969 C 216.863281 191.328125 217.390625 190.71875 217.894531 190.089844 C 218.148438 189.773438 218.390625 189.453125 218.628906 189.128906 C 218.867188 188.796875 219.097656 188.472656 219.320312 188.117188 L 219.320312 188.113281 C 219.371094 188.035156 219.382812 187.929688 219.339844 187.835938 " fill-opacity="1" fill-rule="nonzero"/></g><path fill="#ffffff" d="M 183.90625 182.335938 C 184.054688 182.265625 184.132812 182.230469 184.132812 182.230469 C 184.132812 182.230469 184.050781 182.261719 183.902344 182.324219 C 183.828125 182.351562 183.734375 182.390625 183.625 182.433594 C 183.515625 182.476562 183.402344 182.546875 183.265625 182.617188 C 183.199219 182.652344 183.128906 182.6875 183.054688 182.730469 C 182.980469 182.765625 182.914062 182.820312 182.835938 182.871094 C 182.6875 182.972656 182.511719 183.070312 182.351562 183.210938 C 182.191406 183.34375 182.007812 183.476562 181.84375 183.648438 C 181.757812 183.730469 181.671875 183.816406 181.582031 183.902344 C 181.5 183.996094 181.417969 184.09375 181.332031 184.191406 C 181.152344 184.382812 181.003906 184.609375 180.835938 184.835938 C 180.75 184.945312 180.683594 185.074219 180.605469 185.195312 C 180.53125 185.320312 180.445312 185.441406 180.382812 185.578125 C 180.3125 185.710938 180.242188 185.84375 180.171875 185.980469 C 180.105469 186.117188 180.050781 186.261719 179.984375 186.40625 C 179.957031 186.476562 179.925781 186.550781 179.894531 186.625 C 179.867188 186.699219 179.84375 186.773438 179.816406 186.851562 C 179.765625 187.003906 179.707031 187.152344 179.667969 187.3125 C 179.484375 187.9375 179.371094 188.605469 179.324219 189.289062 C 179.316406 189.460938 179.308594 189.632812 179.300781 189.804688 C 179.304688 189.976562 179.3125 190.148438 179.316406 190.324219 C 179.316406 190.496094 179.34375 190.671875 179.359375 190.84375 C 179.378906 191.015625 179.394531 191.191406 179.433594 191.359375 C 179.546875 192.050781 179.773438 192.71875 180.0625 193.339844 L 180.175781 193.570312 C 180.195312 193.609375 180.210938 193.648438 180.230469 193.6875 L 180.296875 193.796875 C 180.382812 193.945312 180.46875 194.089844 180.554688 194.234375 C 180.648438 194.375 180.75 194.507812 180.847656 194.644531 C 180.898438 194.710938 180.941406 194.78125 180.992188 194.84375 C 181.050781 194.90625 181.101562 194.96875 181.15625 195.027344 C 181.570312 195.539062 182.074219 195.933594 182.550781 196.289062 C 182.675781 196.371094 182.800781 196.449219 182.925781 196.527344 C 183.050781 196.601562 183.164062 196.6875 183.292969 196.746094 C 183.417969 196.808594 183.542969 196.871094 183.660156 196.933594 C 183.785156 196.992188 183.898438 197.058594 184.023438 197.101562 C 184.265625 197.195312 184.492188 197.296875 184.71875 197.375 C 184.945312 197.441406 185.160156 197.503906 185.359375 197.566406 C 185.410156 197.582031 185.460938 197.59375 185.511719 197.609375 C 185.558594 197.617188 185.609375 197.628906 185.65625 197.640625 C 185.753906 197.660156 185.847656 197.679688 185.9375 197.699219 C 186.113281 197.734375 186.277344 197.773438 186.425781 197.800781 C 187.023438 197.875 187.363281 197.917969 187.363281 197.917969 C 187.363281 197.917969 187.027344 197.855469 186.433594 197.75 C 186.285156 197.714844 186.125 197.671875 185.953125 197.625 C 185.863281 197.605469 185.773438 197.582031 185.679688 197.554688 C 185.632812 197.542969 185.582031 197.53125 185.535156 197.519531 C 185.488281 197.503906 185.4375 197.488281 185.386719 197.46875 C 185.191406 197.402344 184.980469 197.328125 184.761719 197.253906 C 184.542969 197.164062 184.320312 197.0625 184.085938 196.964844 C 183.964844 196.917969 183.851562 196.851562 183.734375 196.789062 C 183.617188 196.722656 183.5 196.660156 183.378906 196.59375 C 183.253906 196.535156 183.144531 196.445312 183.023438 196.371094 C 182.90625 196.292969 182.785156 196.210938 182.664062 196.128906 C 182.207031 195.769531 181.734375 195.371094 181.335938 194.878906 C 181.28125 194.816406 181.230469 194.757812 181.179688 194.695312 C 181.128906 194.632812 181.085938 194.566406 181.039062 194.503906 C 180.945312 194.371094 180.847656 194.238281 180.757812 194.105469 C 180.675781 193.960938 180.59375 193.820312 180.511719 193.679688 L 180.449219 193.570312 C 180.429688 193.535156 180.414062 193.496094 180.398438 193.460938 L 180.292969 193.234375 C 180.015625 192.628906 179.804688 191.980469 179.699219 191.3125 C 179.582031 190.648438 179.527344 189.96875 179.574219 189.304688 C 179.617188 188.640625 179.71875 187.988281 179.890625 187.375 C 179.929688 187.222656 179.988281 187.074219 180.035156 186.925781 C 180.058594 186.851562 180.082031 186.777344 180.105469 186.703125 C 180.136719 186.628906 180.164062 186.558594 180.191406 186.488281 C 180.25 186.347656 180.300781 186.203125 180.363281 186.066406 C 180.425781 185.933594 180.492188 185.800781 180.554688 185.667969 C 180.617188 185.535156 180.695312 185.414062 180.761719 185.289062 C 180.835938 185.167969 180.898438 185.042969 180.980469 184.929688 C 181.136719 184.707031 181.28125 184.480469 181.449219 184.289062 C 181.53125 184.191406 181.605469 184.09375 181.6875 184 C 181.769531 183.910156 181.855469 183.824219 181.933594 183.742188 C 182.089844 183.566406 182.261719 183.425781 182.417969 183.289062 C 182.566406 183.144531 182.734375 183.039062 182.875 182.929688 C 182.953125 182.878906 183.015625 182.824219 183.089844 182.78125 C 183.160156 182.738281 183.226562 182.699219 183.292969 182.660156 C 183.355469 182.625 183.417969 182.585938 183.476562 182.554688 C 183.53125 182.519531 183.585938 182.484375 183.640625 182.460938 C 183.746094 182.414062 183.835938 182.371094 183.90625 182.335938 " fill-opacity="1" fill-rule="nonzero"/><path fill="#ffffff" d="M 180.570312 189.140625 C 180.589844 188.960938 180.601562 188.789062 180.628906 188.617188 C 180.679688 188.273438 180.75 187.945312 180.832031 187.636719 C 180.875 187.484375 180.917969 187.335938 180.96875 187.195312 C 181.011719 187.050781 181.066406 186.914062 181.113281 186.785156 C 181.214844 186.527344 181.320312 186.292969 181.421875 186.089844 C 181.523438 185.886719 181.617188 185.710938 181.703125 185.574219 C 181.789062 185.433594 181.859375 185.324219 181.90625 185.25 C 181.953125 185.175781 181.980469 185.136719 181.980469 185.136719 C 181.980469 185.136719 181.949219 185.175781 181.894531 185.242188 C 181.839844 185.3125 181.753906 185.40625 181.660156 185.542969 C 181.5625 185.675781 181.453125 185.84375 181.332031 186.039062 C 181.273438 186.140625 181.210938 186.246094 181.148438 186.359375 C 181.09375 186.476562 181.027344 186.59375 180.972656 186.726562 C 180.851562 186.984375 180.734375 187.269531 180.640625 187.582031 C 180.542969 187.890625 180.453125 188.226562 180.394531 188.578125 C 180.332031 188.929688 180.292969 189.296875 180.285156 189.671875 C 180.269531 190.046875 180.289062 190.429688 180.335938 190.808594 C 180.378906 191.1875 180.457031 191.5625 180.5625 191.921875 C 180.664062 192.285156 180.804688 192.628906 180.960938 192.949219 C 181.109375 193.277344 181.296875 193.566406 181.480469 193.839844 C 181.671875 194.105469 181.867188 194.34375 182.066406 194.546875 C 182.164062 194.652344 182.261719 194.75 182.359375 194.832031 C 182.457031 194.921875 182.546875 195.003906 182.640625 195.074219 C 182.730469 195.140625 182.8125 195.214844 182.894531 195.269531 C 182.976562 195.328125 183.050781 195.378906 183.117188 195.425781 C 183.253906 195.523438 183.371094 195.578125 183.445312 195.628906 C 183.519531 195.671875 183.558594 195.695312 183.558594 195.695312 C 183.558594 195.695312 183.523438 195.667969 183.453125 195.613281 C 183.382812 195.5625 183.273438 195.488281 183.148438 195.382812 C 183.085938 195.332031 183.015625 195.273438 182.941406 195.210938 C 182.863281 195.148438 182.789062 195.074219 182.703125 194.996094 C 182.621094 194.921875 182.539062 194.832031 182.449219 194.742188 C 182.40625 194.695312 182.359375 194.648438 182.316406 194.601562 C 182.273438 194.550781 182.226562 194.496094 182.183594 194.445312 C 182 194.234375 181.824219 193.988281 181.648438 193.726562 C 181.480469 193.457031 181.3125 193.167969 181.175781 192.851562 C 181.097656 192.695312 181.042969 192.527344 180.976562 192.363281 C 180.921875 192.195312 180.859375 192.027344 180.816406 191.851562 C 180.714844 191.503906 180.644531 191.140625 180.601562 190.773438 C 180.554688 190.410156 180.535156 190.042969 180.542969 189.679688 C 180.542969 189.496094 180.5625 189.316406 180.570312 189.140625 " fill-opacity="1" fill-rule="nonzero"/><path fill="#ffffff" d="M 197.554688 200.953125 C 197.214844 201.027344 196.875 201.113281 196.535156 201.179688 C 195.851562 201.328125 195.164062 201.441406 194.476562 201.550781 C 193.789062 201.652344 193.097656 201.742188 192.402344 201.804688 L 191.882812 201.855469 L 191.359375 201.890625 C 191.011719 201.917969 190.664062 201.929688 190.316406 201.949219 C 189.96875 201.96875 189.617188 201.964844 189.269531 201.976562 C 188.921875 201.980469 188.570312 201.976562 188.222656 201.976562 C 188.570312 201.984375 188.921875 201.996094 189.269531 201.996094 C 189.617188 201.996094 189.96875 202.003906 190.316406 201.988281 C 190.667969 201.980469 191.015625 201.976562 191.363281 201.953125 L 191.886719 201.929688 L 192.410156 201.890625 C 193.105469 201.84375 193.800781 201.765625 194.496094 201.675781 C 194.839844 201.628906 195.1875 201.582031 195.53125 201.519531 L 196.050781 201.433594 L 196.566406 201.332031 C 196.910156 201.269531 197.25 201.1875 197.59375 201.117188 C 197.929688 201.03125 198.273438 200.957031 198.609375 200.863281 C 199.289062 200.691406 199.957031 200.484375 200.625 200.273438 C 201.289062 200.054688 201.945312 199.8125 202.597656 199.554688 C 203.246094 199.292969 203.886719 199.007812 204.519531 198.707031 C 205.78125 198.101562 207.007812 197.421875 208.183594 196.660156 C 209.363281 195.902344 210.492188 195.070312 211.566406 194.171875 C 212.105469 193.722656 212.625 193.253906 213.128906 192.769531 C 213.636719 192.285156 214.128906 191.785156 214.597656 191.269531 C 215.074219 190.753906 215.53125 190.222656 215.964844 189.671875 C 216.398438 189.121094 216.816406 188.5625 217.195312 187.964844 C 217.214844 187.933594 217.21875 187.890625 217.203125 187.855469 C 216.914062 187.199219 216.566406 186.589844 216.195312 185.988281 C 215.820312 185.390625 215.421875 184.808594 214.996094 184.246094 C 214.148438 183.117188 213.199219 182.066406 212.179688 181.097656 C 211.15625 180.125 210.054688 179.238281 208.898438 178.433594 C 208.316406 178.03125 207.722656 177.652344 207.117188 177.296875 C 206.507812 176.941406 205.886719 176.605469 205.257812 176.292969 C 204.625 175.984375 203.980469 175.691406 203.332031 175.421875 C 202.675781 175.160156 202.019531 174.910156 201.347656 174.6875 C 200.683594 174.464844 200.007812 174.265625 199.324219 174.089844 C 198.644531 173.90625 197.957031 173.753906 197.269531 173.613281 C 196.578125 173.476562 195.882812 173.355469 195.1875 173.257812 L 194.664062 173.183594 L 194.140625 173.125 C 193.792969 173.078125 193.441406 173.050781 193.09375 173.015625 C 192.390625 172.953125 191.6875 172.910156 190.988281 172.878906 L 189.933594 172.851562 L 188.878906 172.84375 L 189.933594 172.863281 L 190.984375 172.902344 C 191.6875 172.941406 192.386719 172.992188 193.085938 173.0625 C 193.4375 173.097656 193.785156 173.132812 194.132812 173.183594 L 194.65625 173.25 L 195.175781 173.328125 C 195.871094 173.429688 196.5625 173.5625 197.25 173.703125 C 199.992188 174.289062 202.675781 175.179688 205.183594 176.4375 C 205.808594 176.753906 206.421875 177.089844 207.027344 177.449219 C 207.628906 177.804688 208.214844 178.1875 208.789062 178.589844 C 209.933594 179.394531 211.019531 180.28125 212.027344 181.25 C 213.035156 182.222656 213.972656 183.265625 214.808594 184.382812 C 215.230469 184.941406 215.625 185.519531 215.992188 186.113281 C 216.347656 186.6875 216.679688 187.28125 216.953125 187.890625 C 216.59375 188.453125 216.1875 188.992188 215.769531 189.519531 C 215.335938 190.0625 214.882812 190.585938 214.410156 191.097656 C 213.46875 192.117188 212.457031 193.070312 211.394531 193.96875 C 210.332031 194.863281 209.214844 195.691406 208.046875 196.449219 C 206.882812 197.207031 205.667969 197.886719 204.417969 198.496094 C 203.164062 199.097656 201.875 199.628906 200.558594 200.078125 C 199.898438 200.300781 199.238281 200.511719 198.5625 200.691406 C 198.230469 200.789062 197.890625 200.867188 197.554688 200.953125 " fill-opacity="1" fill-rule="nonzero"/><path fill="#ffffff" d="M 213.746094 189.859375 C 213.464844 190.183594 213.179688 190.511719 212.882812 190.824219 C 212.734375 190.984375 212.585938 191.140625 212.429688 191.292969 C 212.28125 191.449219 212.128906 191.605469 211.972656 191.753906 C 211.820312 191.910156 211.664062 192.058594 211.503906 192.207031 C 211.347656 192.355469 211.191406 192.503906 211.027344 192.648438 C 210.707031 192.9375 210.378906 193.21875 210.042969 193.496094 L 209.539062 193.90625 L 209.023438 194.304688 C 208.851562 194.4375 208.675781 194.5625 208.5 194.691406 C 208.328125 194.820312 208.148438 194.945312 207.96875 195.066406 C 207.617188 195.316406 207.25 195.546875 206.886719 195.785156 C 206.703125 195.902344 206.515625 196.011719 206.332031 196.125 L 206.054688 196.296875 L 205.769531 196.457031 L 205.207031 196.777344 L 204.628906 197.085938 C 204.441406 197.1875 204.246094 197.28125 204.050781 197.378906 C 203.851562 197.472656 203.660156 197.570312 203.460938 197.664062 C 203.066406 197.835938 202.671875 198.023438 202.269531 198.183594 L 201.667969 198.433594 L 201.054688 198.664062 C 200.652344 198.824219 200.234375 198.953125 199.824219 199.09375 C 199.410156 199.230469 198.992188 199.347656 198.574219 199.476562 L 199.207031 199.3125 C 199.417969 199.257812 199.628906 199.207031 199.839844 199.140625 C 200.253906 199.011719 200.675781 198.894531 201.085938 198.75 L 201.707031 198.539062 L 202.316406 198.304688 C 202.523438 198.226562 202.726562 198.148438 202.925781 198.058594 L 203.527344 197.804688 C 203.726562 197.714844 203.921875 197.621094 204.121094 197.527344 C 204.320312 197.4375 204.519531 197.34375 204.710938 197.242188 L 205.296875 196.945312 L 205.871094 196.632812 L 206.160156 196.476562 L 206.441406 196.308594 C 206.628906 196.199219 206.820312 196.089844 207.003906 195.976562 C 207.375 195.742188 207.746094 195.507812 208.101562 195.261719 C 208.285156 195.136719 208.464844 195.015625 208.640625 194.882812 C 208.816406 194.753906 208.996094 194.632812 209.171875 194.5 L 209.691406 194.101562 L 210.203125 193.691406 C 210.542969 193.414062 210.875 193.132812 211.199219 192.839844 C 211.367188 192.695312 211.527344 192.546875 211.683594 192.398438 C 211.847656 192.25 212.003906 192.097656 212.160156 191.945312 C 212.316406 191.792969 212.472656 191.640625 212.625 191.480469 C 212.777344 191.324219 212.925781 191.167969 213.074219 191.003906 C 213.375 190.6875 213.660156 190.355469 213.945312 190.023438 C 214.222656 189.6875 214.496094 189.347656 214.761719 188.996094 C 215.023438 188.644531 215.277344 188.292969 215.511719 187.914062 L 215.515625 187.914062 C 215.53125 187.882812 215.539062 187.84375 215.519531 187.808594 C 215.355469 187.429688 215.167969 187.078125 214.96875 186.726562 C 214.773438 186.378906 214.558594 186.035156 214.339844 185.699219 C 214.117188 185.367188 213.890625 185.035156 213.648438 184.714844 C 213.410156 184.390625 213.160156 184.078125 212.902344 183.769531 C 212.644531 183.460938 212.378906 183.160156 212.105469 182.867188 C 211.972656 182.71875 211.832031 182.574219 211.691406 182.429688 C 211.550781 182.285156 211.410156 182.144531 211.265625 182.007812 C 210.980469 181.722656 210.683594 181.453125 210.382812 181.1875 L 209.929688 180.792969 C 209.773438 180.664062 209.617188 180.542969 209.460938 180.414062 C 209.308594 180.285156 209.148438 180.164062 208.988281 180.046875 C 208.824219 179.925781 208.667969 179.800781 208.503906 179.6875 L 208.011719 179.339844 C 207.851562 179.222656 207.679688 179.117188 207.511719 179.007812 C 207.179688 178.78125 206.832031 178.585938 206.492188 178.375 C 206.316406 178.273438 206.140625 178.179688 205.964844 178.082031 C 205.792969 177.984375 205.617188 177.886719 205.4375 177.796875 L 204.902344 177.523438 C 204.726562 177.429688 204.539062 177.351562 204.359375 177.265625 C 204.179688 177.183594 204 177.09375 203.8125 177.015625 L 203.261719 176.78125 L 202.984375 176.664062 L 202.703125 176.558594 L 202.144531 176.347656 C 201.765625 176.210938 201.386719 176.089844 201.007812 175.960938 C 201.382812 176.097656 201.761719 176.230469 202.132812 176.375 L 202.6875 176.597656 L 202.964844 176.710938 L 203.242188 176.832031 L 203.789062 177.074219 C 203.96875 177.15625 204.148438 177.246094 204.328125 177.332031 C 204.507812 177.421875 204.6875 177.503906 204.863281 177.601562 L 205.390625 177.882812 C 205.570312 177.972656 205.742188 178.074219 205.914062 178.175781 C 206.085938 178.273438 206.261719 178.371094 206.429688 178.476562 C 206.765625 178.691406 207.109375 178.894531 207.4375 179.121094 C 207.601562 179.234375 207.769531 179.339844 207.929688 179.457031 L 208.417969 179.808594 C 208.578125 179.921875 208.734375 180.050781 208.890625 180.171875 C 209.050781 180.289062 209.207031 180.414062 209.359375 180.542969 C 209.511719 180.667969 209.667969 180.792969 209.816406 180.925781 L 210.265625 181.316406 C 210.558594 181.585938 210.851562 181.855469 211.132812 182.140625 C 211.273438 182.28125 211.414062 182.421875 211.550781 182.566406 C 211.6875 182.710938 211.824219 182.855469 211.957031 183.003906 C 212.222656 183.296875 212.484375 183.597656 212.734375 183.90625 C 212.984375 184.214844 213.230469 184.527344 213.464844 184.847656 C 213.703125 185.167969 213.925781 185.496094 214.144531 185.828125 C 214.359375 186.160156 214.570312 186.496094 214.761719 186.84375 C 214.945312 187.171875 215.121094 187.503906 215.273438 187.84375 C 215.054688 188.183594 214.8125 188.519531 214.5625 188.847656 C 214.300781 189.191406 214.027344 189.527344 213.746094 189.859375 " fill-opacity="1" fill-rule="nonzero"/><path fill="#ffffff" d="M 173.390625 174.660156 C 173.84375 174.507812 174.296875 174.367188 174.753906 174.234375 C 174.292969 174.359375 173.835938 174.492188 173.382812 174.632812 C 172.929688 174.777344 172.476562 174.929688 172.03125 175.097656 C 171.582031 175.257812 171.140625 175.4375 170.699219 175.617188 C 170.261719 175.804688 169.824219 175.996094 169.398438 176.203125 C 168.964844 176.410156 168.542969 176.628906 168.121094 176.851562 C 167.703125 177.078125 167.285156 177.3125 166.878906 177.5625 C 166.066406 178.058594 165.273438 178.59375 164.515625 179.167969 C 162.992188 180.320312 161.589844 181.628906 160.34375 183.082031 C 159.722656 183.804688 159.140625 184.5625 158.609375 185.359375 C 158.34375 185.753906 158.089844 186.160156 157.851562 186.574219 C 157.617188 186.992188 157.390625 187.410156 157.195312 187.855469 C 157.179688 187.890625 157.179688 187.929688 157.203125 187.964844 C 157.3125 188.144531 157.429688 188.316406 157.546875 188.488281 C 157.664062 188.660156 157.785156 188.828125 157.90625 188.996094 C 158.03125 189.164062 158.152344 189.332031 158.28125 189.492188 C 158.410156 189.660156 158.535156 189.824219 158.671875 189.980469 C 158.800781 190.140625 158.9375 190.300781 159.074219 190.453125 C 159.210938 190.609375 159.34375 190.769531 159.488281 190.921875 C 159.628906 191.074219 159.765625 191.226562 159.910156 191.378906 L 160.339844 191.828125 C 160.484375 191.976562 160.632812 192.117188 160.78125 192.265625 C 160.929688 192.410156 161.078125 192.554688 161.234375 192.691406 L 161.691406 193.109375 L 162.164062 193.515625 C 162.320312 193.648438 162.472656 193.789062 162.640625 193.914062 L 163.125 194.300781 C 163.285156 194.429688 163.457031 194.546875 163.621094 194.671875 L 164.125 195.039062 L 163.652344 194.632812 C 163.496094 194.5 163.335938 194.371094 163.183594 194.230469 C 162.878906 193.953125 162.566406 193.683594 162.265625 193.398438 L 161.8125 192.980469 L 161.375 192.542969 C 161.226562 192.402344 161.082031 192.253906 160.941406 192.105469 C 160.796875 191.957031 160.648438 191.8125 160.507812 191.664062 L 160.085938 191.210938 C 159.945312 191.0625 159.8125 190.90625 159.675781 190.753906 C 159.535156 190.601562 159.402344 190.441406 159.269531 190.285156 C 159.136719 190.128906 159.007812 189.972656 158.878906 189.8125 C 158.75 189.652344 158.617188 189.492188 158.492188 189.332031 C 158.363281 189.171875 158.238281 189.007812 158.113281 188.84375 C 157.992188 188.679688 157.867188 188.515625 157.75 188.347656 C 157.644531 188.195312 157.539062 188.042969 157.441406 187.890625 C 157.625 187.484375 157.835938 187.082031 158.058594 186.691406 C 158.292969 186.28125 158.542969 185.878906 158.804688 185.488281 C 159.328125 184.699219 159.902344 183.945312 160.511719 183.21875 C 161.730469 181.769531 163.113281 180.457031 164.613281 179.300781 C 166.117188 178.140625 167.738281 177.136719 169.4375 176.292969 C 169.863281 176.078125 170.296875 175.882812 170.730469 175.6875 C 171.167969 175.5 171.605469 175.316406 172.050781 175.148438 C 172.492188 174.972656 172.941406 174.816406 173.390625 174.660156 " fill-opacity="1" fill-rule="nonzero"/><path fill="#ffffff" d="M 159.875 186.429688 C 160.160156 185.953125 160.46875 185.488281 160.789062 185.035156 C 160.953125 184.808594 161.117188 184.585938 161.289062 184.363281 C 161.460938 184.144531 161.632812 183.925781 161.8125 183.710938 C 161.988281 183.496094 162.175781 183.289062 162.359375 183.078125 C 162.542969 182.871094 162.734375 182.664062 162.925781 182.464844 C 163.117188 182.261719 163.316406 182.066406 163.515625 181.871094 C 163.71875 181.675781 163.917969 181.484375 164.128906 181.296875 C 164.332031 181.105469 164.546875 180.925781 164.753906 180.742188 C 164.96875 180.5625 165.183594 180.382812 165.402344 180.207031 C 165.621094 180.035156 165.839844 179.863281 166.070312 179.699219 C 166.292969 179.53125 166.519531 179.367188 166.75 179.210938 C 166.976562 179.046875 167.214844 178.898438 167.449219 178.742188 C 167.683594 178.589844 167.921875 178.445312 168.160156 178.292969 C 167.917969 178.433594 167.671875 178.570312 167.433594 178.71875 C 167.195312 178.867188 166.953125 179.007812 166.722656 179.164062 C 166.484375 179.320312 166.253906 179.472656 166.023438 179.636719 C 165.792969 179.796875 165.570312 179.964844 165.34375 180.132812 C 165.117188 180.300781 164.898438 180.476562 164.679688 180.652344 C 164.464844 180.832031 164.246094 181.007812 164.035156 181.195312 C 163.824219 181.378906 163.617188 181.566406 163.410156 181.757812 C 163.207031 181.953125 163.003906 182.144531 162.804688 182.347656 C 162.605469 182.546875 162.414062 182.75 162.222656 182.953125 C 162.03125 183.164062 161.84375 183.371094 161.664062 183.585938 C 161.476562 183.796875 161.300781 184.015625 161.125 184.238281 C 160.949219 184.457031 160.78125 184.679688 160.613281 184.90625 C 160.28125 185.359375 159.964844 185.828125 159.671875 186.308594 C 159.527344 186.550781 159.382812 186.792969 159.25 187.042969 C 159.117188 187.292969 158.988281 187.539062 158.871094 187.804688 C 158.859375 187.839844 158.859375 187.878906 158.878906 187.914062 L 158.882812 187.917969 C 158.964844 188.0625 159.054688 188.195312 159.148438 188.332031 C 159.238281 188.46875 159.332031 188.601562 159.429688 188.734375 C 159.527344 188.867188 159.628906 188.992188 159.726562 189.121094 C 159.824219 189.253906 159.933594 189.375 160.039062 189.5 C 160.140625 189.625 160.246094 189.75 160.359375 189.867188 C 160.46875 189.988281 160.582031 190.109375 160.695312 190.226562 C 160.804688 190.347656 160.925781 190.457031 161.042969 190.566406 C 161.164062 190.679688 161.28125 190.792969 161.402344 190.898438 C 161.210938 190.632812 161.011719 190.378906 160.8125 190.121094 C 160.71875 189.992188 160.617188 189.863281 160.519531 189.738281 C 160.417969 189.609375 160.324219 189.480469 160.226562 189.351562 C 160.128906 189.222656 160.027344 189.09375 159.933594 188.964844 C 159.835938 188.835938 159.738281 188.707031 159.644531 188.574219 C 159.554688 188.445312 159.453125 188.316406 159.363281 188.183594 C 159.285156 188.070312 159.207031 187.953125 159.128906 187.839844 C 159.230469 187.613281 159.34375 187.382812 159.464844 187.15625 C 159.59375 186.910156 159.730469 186.667969 159.875 186.429688 " fill-opacity="1" fill-rule="nonzero"/><g fill="#292c5d" fill-opacity="1"><g transform="translate(118.151685, 165.080582)"><g><path d="M -7.375 -6.496094 L -4.914062 -12.277344 L -5.992188 -12.738281 L -9.035156 -5.585938 L 0.628906 -1.476562 L 3.667969 -8.628906 L 2.59375 -9.085938 L 0.132812 -3.300781 L -3.222656 -4.726562 L -0.878906 -10.234375 L -1.914062 -10.675781 L -4.257812 -5.167969 Z M -7.375 -6.496094 "/></g></g></g><g fill="#292c5d" fill-opacity="1"><g transform="translate(122.500318, 154.861986)"><g><path d="M -1.84375 -8.347656 C -3.359375 -6.449219 -4.035156 -5.828125 -4.972656 -6.421875 C -6.066406 -7.109375 -5.769531 -8.734375 -4.855469 -10.265625 C -4.148438 -11.46875 -3.066406 -12.648438 -1.988281 -13.230469 L -2.890625 -14.046875 C -4.097656 -13.175781 -5.152344 -12.015625 -5.882812 -10.828125 C -7.265625 -8.578125 -7.457031 -6.253906 -5.683594 -5.132812 C -4.109375 -4.136719 -3.046875 -5.152344 -1.21875 -7.457031 C 0.15625 -9.179688 1.054688 -10.101562 2.195312 -9.378906 C 3.441406 -8.597656 3.308594 -7.261719 2.003906 -5.28125 C 1.207031 -4.046875 0.0078125 -3.101562 -1.136719 -2.472656 L -0.117188 -1.777344 C 0.910156 -2.28125 2.273438 -3.375 3.078125 -4.621094 C 4.753906 -7.25 4.878906 -9.441406 2.886719 -10.699219 C 1.136719 -11.804688 -0.199219 -10.414062 -1.84375 -8.347656 Z M -1.84375 -8.347656 "/></g></g></g><g fill="#292c5d" fill-opacity="1"><g transform="translate(129.202957, 144.365367)"><g><path d="M -3.683594 -11.605469 L -6.734375 -8.214844 L 1.074219 -1.195312 L 2.066406 -2.296875 L -0.398438 -4.515625 L 1.65625 -6.800781 C 3.53125 -8.886719 3.660156 -11.292969 1.964844 -12.816406 C 0.4375 -14.191406 -1.820312 -13.699219 -3.683594 -11.605469 Z M 1.015625 -11.675781 C 2.1875 -10.621094 2.105469 -8.980469 0.820312 -7.554688 L -1.234375 -5.265625 L -4.871094 -8.535156 L -2.816406 -10.824219 C -1.53125 -12.25 -0.0078125 -12.597656 1.015625 -11.675781 Z M 1.015625 -11.675781 "/></g></g></g><g fill="#292c5d" fill-opacity="1"><g transform="translate(137.523142, 135.207024)"><g><path d="M 8.882812 -7.046875 L -0.992188 -12.617188 L -3 -11.023438 L 0.164062 -0.128906 L 1.386719 -1.101562 L 0.546875 -3.917969 L 5.109375 -7.535156 L 7.660156 -6.078125 Z M 4.140625 -8.148438 L 0.171875 -5 L -1.605469 -10.882812 L -1.207031 -11.199219 Z M 4.140625 -8.148438 "/></g></g></g><g fill="#292c5d" fill-opacity="1"><g transform="translate(147.103706, 127.640695)"><g><path d="M 5.554688 -2.910156 C 8.164062 -4.332031 9.152344 -6.683594 8.011719 -8.777344 L 6.695312 -8.058594 C 7.5 -6.582031 6.824219 -4.933594 5.007812 -3.945312 C 3.074219 -2.886719 0.921875 -3.730469 -0.355469 -6.074219 C -1.5 -8.167969 -0.957031 -10.277344 0.980469 -11.332031 C 2.71875 -12.28125 4.460938 -12 5.300781 -10.613281 L 6.617188 -11.332031 C 5.507812 -13.371094 3.015625 -13.773438 0.40625 -12.351562 C -2.304688 -10.871094 -3.140625 -8.078125 -1.660156 -5.363281 C -0.0507812 -2.414062 2.84375 -1.429688 5.554688 -2.910156 Z M 5.554688 -2.910156 "/></g></g></g><g fill="#292c5d" fill-opacity="1"><g transform="translate(158.78035, 121.611934)"><g><path d="M 1.496094 -0.582031 L 2.878906 -1.121094 L -0.929688 -10.90625 L -2.3125 -10.367188 Z M 1.496094 -0.582031 "/></g></g></g><g fill="#292c5d" fill-opacity="1"><g transform="translate(163.919031, 119.405253)"><g><path d="M 6.054688 -1.390625 C 9.023438 -2.125 10.480469 -4.738281 9.691406 -7.929688 C 8.929688 -11 6.441406 -12.5625 3.472656 -11.828125 C 0.5 -11.09375 -0.960938 -8.507812 -0.183594 -5.363281 C 0.585938 -2.246094 3.082031 -0.65625 6.054688 -1.390625 Z M 5.773438 -2.523438 C 3.675781 -2.007812 1.867188 -3.257812 1.273438 -5.660156 C 0.652344 -8.164062 1.65625 -10.175781 3.753906 -10.695312 C 5.863281 -11.214844 7.660156 -9.945312 8.261719 -7.511719 C 8.875 -5.039062 7.882812 -3.046875 5.773438 -2.523438 Z M 5.773438 -2.523438 "/></g></g></g><g fill="#292c5d" fill-opacity="1"><g transform="translate(176.924925, 116.522705)"><g/></g></g><g fill="#292c5d" fill-opacity="1"><g transform="translate(181.396443, 115.802642)"><g><path d="M 11.339844 -0.0546875 L 7.015625 -10.535156 L 4.449219 -10.519531 L 0.210938 0 L 1.769531 -0.0078125 L 2.851562 -2.742188 L 8.671875 -2.773438 L 9.78125 -0.046875 Z M 8.292969 -3.851562 L 3.222656 -3.824219 L 5.460938 -9.550781 L 5.96875 -9.554688 Z M 8.292969 -3.851562 "/></g></g></g><g fill="#292c5d" fill-opacity="1"><g transform="translate(193.607605, 115.774252)"><g><path d="M 9.3125 -3.472656 L 9.324219 -3.546875 C 10.503906 -3.515625 11.640625 -4.484375 11.890625 -5.976562 C 12.160156 -7.574219 10.820312 -8.832031 8.554688 -9.210938 L 3.316406 -10.089844 L 1.582031 0.265625 L 3.046875 0.511719 L 3.777344 -3.839844 L 7.386719 -3.234375 C 8.910156 -2.976562 9.804688 -2.054688 9.617188 -0.929688 L 9.246094 1.550781 L 10.695312 1.792969 L 11.140625 -0.871094 C 11.34375 -2.070312 10.5 -3.121094 9.3125 -3.472656 Z M 7.707031 -4.320312 L 3.960938 -4.949219 L 4.597656 -8.734375 L 8.148438 -8.140625 C 9.65625 -7.886719 10.5625 -7.035156 10.378906 -5.941406 C 10.179688 -4.742188 9.109375 -4.085938 7.707031 -4.320312 Z M 7.707031 -4.320312 "/></g></g></g><g fill="#292c5d" fill-opacity="1"><g transform="translate(206.273867, 118.023466)"><g><path d="M 13.039062 -6.628906 L 3.734375 -9.820312 L 3.351562 -8.714844 L 7.3125 -7.355469 L 4.285156 1.46875 L 5.675781 1.945312 L 8.703125 -6.878906 L 12.660156 -5.519531 Z M 13.039062 -6.628906 "/></g></g></g><g fill="#292c5d" fill-opacity="1"><g transform="translate(217.039632, 121.953799)"><g><path d="M 6.46875 -9.640625 L 7.632812 -9.082031 L 10.335938 -10.28125 L 8.796875 -11.019531 Z M 1.445312 0.695312 L 2.785156 1.335938 L 7.347656 -8.171875 L 6.007812 -8.8125 Z M 1.445312 0.695312 "/></g></g></g><g fill="#292c5d" fill-opacity="1"><g transform="translate(222.166457, 124.231054)"><g><path d="M 8.363281 -1.769531 C 6.480469 -3.304688 5.863281 -3.984375 6.464844 -4.917969 C 7.164062 -6.003906 8.785156 -5.691406 10.308594 -4.761719 C 11.507812 -4.046875 12.675781 -2.953125 13.246094 -1.875 L 14.074219 -2.769531 C 13.214844 -3.980469 12.058594 -5.046875 10.878906 -5.789062 C 8.644531 -7.191406 6.316406 -7.402344 5.179688 -5.636719 C 4.175781 -4.074219 5.175781 -3 7.464844 -1.152344 C 9.179688 0.234375 10.089844 1.144531 9.359375 2.28125 C 8.566406 3.515625 7.230469 3.371094 5.261719 2.050781 C 4.035156 1.242188 3.101562 0.0351562 2.484375 -1.113281 L 1.777344 -0.101562 C 2.273438 0.929688 3.351562 2.300781 4.59375 3.117188 C 7.210938 4.820312 9.398438 4.960938 10.675781 2.980469 C 11.796875 1.242188 10.417969 -0.109375 8.363281 -1.769531 Z M 8.363281 -1.769531 "/></g></g></g><g fill="#292c5d" fill-opacity="1"><g transform="translate(232.608247, 131.079641)"><g><path d="M 14.59375 -0.976562 L 7.289062 -7.566406 L 6.503906 -6.699219 L 9.613281 -3.894531 L 3.363281 3.035156 L 4.457031 4.019531 L 10.703125 -2.910156 L 13.8125 -0.105469 Z M 14.59375 -0.976562 "/></g></g></g><g fill="#292c5d" fill-opacity="1"><g transform="translate(240.966924, 138.9208)"><g><path d="M 1.058594 1.207031 L 2.039062 2.324219 L 9.929688 -4.601562 L 8.953125 -5.71875 Z M 1.058594 1.207031 "/></g></g></g><g fill="#292c5d" fill-opacity="1"><g transform="translate(244.796618, 143.000129)"><g><path d="M 3.414062 5.261719 C 5.070312 7.726562 7.503906 8.492188 9.484375 7.160156 L 8.644531 5.917969 C 7.25 6.855469 5.546875 6.335938 4.390625 4.621094 C 3.160156 2.789062 3.800781 0.570312 6.015625 -0.921875 C 7.996094 -2.25 10.144531 -1.90625 11.375 -0.078125 C 12.480469 1.566406 12.363281 3.324219 11.058594 4.292969 L 11.898438 5.535156 C 13.828125 4.238281 13.996094 1.71875 12.335938 -0.742188 C 10.609375 -3.308594 7.75 -3.878906 5.1875 -2.152344 C 2.398438 -0.277344 1.6875 2.695312 3.414062 5.261719 Z M 3.414062 5.261719 "/></g></g></g><g fill="#292c5d" fill-opacity="1"><g transform="translate(251.962697, 153.746808)"><g><path d="M 2.410156 5.726562 C 3.644531 8.523438 6.46875 9.507812 9.476562 8.183594 C 12.371094 6.90625 13.484375 4.1875 12.25 1.386719 C 11.015625 -1.414062 8.214844 -2.410156 5.25 -1.101562 C 2.3125 0.191406 1.175781 2.925781 2.410156 5.726562 Z M 3.480469 5.253906 C 2.609375 3.277344 3.53125 1.28125 5.796875 0.28125 C 8.15625 -0.757812 10.308594 -0.117188 11.179688 1.859375 C 12.058594 3.847656 11.113281 5.839844 8.820312 6.847656 C 6.488281 7.878906 4.355469 7.242188 3.480469 5.253906 Z M 3.480469 5.253906 "/></g></g></g><g fill="#292c5d" fill-opacity="1"><g transform="translate(104.647982, 200.663988)"><g><path d="M 12.308594 6.828125 L 10.59375 -0.75 L 0.355469 1.566406 L 0.679688 3.015625 L 5.332031 1.960938 L 6.652344 7.800781 L 7.75 7.550781 L 6.429688 1.714844 L 9.78125 0.957031 L 11.167969 7.085938 Z M 12.308594 6.828125 "/></g></g></g><g fill="#292c5d" fill-opacity="1"><g transform="translate(107.598125, 212.875507)"><g><path d="M 4.484375 8.316406 L 2.210938 2.457031 L 10.90625 -0.921875 L 10.367188 -2.308594 L 0.582031 1.496094 L 3.394531 8.738281 Z M 4.484375 8.316406 "/></g></g></g><g fill="#292c5d" fill-opacity="1"><g transform="translate(112.165038, 224.366527)"><g><path d="M 3.066406 5.402344 C 4.621094 8.039062 7.542969 8.683594 10.371094 7.011719 C 13.097656 5.40625 13.882812 2.574219 12.328125 -0.0625 C 10.773438 -2.699219 7.875 -3.355469 5.085938 -1.710938 C 2.320312 -0.0820312 1.511719 2.765625 3.066406 5.402344 Z M 4.074219 4.808594 C 2.976562 2.949219 3.65625 0.855469 5.789062 -0.402344 C 8.011719 -1.710938 10.222656 -1.328125 11.320312 0.53125 C 12.425781 2.40625 11.722656 4.492188 9.566406 5.765625 C 7.367188 7.058594 5.175781 6.679688 4.074219 4.808594 Z M 4.074219 4.808594 "/></g></g></g><g fill="#292c5d" fill-opacity="1"><g transform="translate(119.940501, 237.087458)"><g><path d="M 9.375 3.300781 L 9.433594 3.25 C 10.320312 4.03125 11.808594 4.015625 12.960938 3.03125 C 14.1875 1.972656 13.964844 0.148438 12.472656 -1.59375 L 9.011719 -5.621094 L 1.046875 1.21875 L 2.011719 2.34375 L 5.359375 -0.527344 L 7.742188 2.25 C 8.75 3.421875 8.84375 4.707031 7.976562 5.449219 L 6.105469 7.113281 L 7.0625 8.230469 L 9.113281 6.46875 C 10.035156 5.679688 10.0625 4.328125 9.375 3.300781 Z M 8.683594 1.617188 L 6.210938 -1.261719 L 9.125 -3.761719 L 11.472656 -1.03125 C 12.46875 0.128906 12.617188 1.367188 11.777344 2.089844 C 10.855469 2.878906 9.613281 2.699219 8.683594 1.617188 Z M 8.683594 1.617188 "/></g></g></g><g fill="#292c5d" fill-opacity="1"><g transform="translate(129.638795, 247.974561)"><g><path d="M 8.363281 -5.164062 L 13.179688 -1.125 L 13.929688 -2.019531 L 7.976562 -7.011719 L 1.230469 1.03125 L 7.183594 6.023438 L 7.933594 5.128906 L 3.121094 1.089844 L 5.460938 -1.703125 L 10.046875 2.144531 L 10.769531 1.28125 L 6.183594 -2.566406 Z M 8.363281 -5.164062 "/></g></g></g><g fill="#292c5d" fill-opacity="1"><g transform="translate(139.530862, 256.116964)"><g><path d="M 1.390625 0.804688 L 2.667969 1.558594 L 7.027344 -5.917969 L 7.117188 -5.867188 L 7.660156 4.519531 L 9.296875 5.46875 L 14.625 -3.5625 L 13.34375 -4.316406 L 9.011719 3.089844 L 8.921875 3.035156 L 8.347656 -7.265625 L 6.71875 -8.226562 Z M 1.390625 0.804688 "/></g></g></g><g fill="#292c5d" fill-opacity="1"><g transform="translate(152.463122, 263.485462)"><g><path d="M 5.839844 2.285156 C 8.625 3.320312 11.046875 2.527344 11.878906 0.289062 L 10.472656 -0.234375 C 9.886719 1.34375 8.203125 1.914062 6.261719 1.191406 C 4.195312 0.425781 3.421875 -1.753906 4.351562 -4.253906 C 5.183594 -6.488281 7.128906 -7.460938 9.195312 -6.695312 C 11.050781 -6.003906 11.984375 -4.503906 11.488281 -2.960938 L 12.894531 -2.4375 C 13.703125 -4.617188 12.375 -6.761719 9.589844 -7.796875 C 6.695312 -8.871094 4.039062 -7.667969 2.960938 -4.773438 C 1.789062 -1.625 2.945312 1.207031 5.839844 2.285156 Z M 5.839844 2.285156 "/></g></g></g><g fill="#292c5d" fill-opacity="1"><g transform="translate(166.164464, 268.174878)"><g><path d="M 1.5625 0.363281 L 3.011719 0.699219 L 5.386719 -9.527344 L 3.941406 -9.863281 Z M 1.5625 0.363281 "/></g></g></g><g fill="#292c5d" fill-opacity="1"><g transform="translate(172.872773, 269.810218)"><g><path d="M 11.277344 1.191406 L 8.128906 -9.699219 L 5.578125 -9.96875 L 0.207031 0.0234375 L 1.761719 0.1875 L 3.136719 -2.414062 L 8.921875 -1.804688 L 9.726562 1.027344 Z M 8.664062 -2.917969 L 3.621094 -3.449219 L 6.472656 -8.894531 L 6.980469 -8.839844 Z M 8.664062 -2.917969 "/></g></g></g><g fill="#292c5d" fill-opacity="1"><g transform="translate(186.51389, 270.891986)"><g/></g></g><g fill="#292c5d" fill-opacity="1"><g transform="translate(192.206853, 270.89499)"><g><path d="M 8.066406 -11.535156 L 0.351562 -10.617188 L 1.59375 -0.191406 L 3.066406 -0.367188 L 2.503906 -5.101562 L 8.445312 -5.808594 L 8.3125 -6.925781 L 2.371094 -6.21875 L 1.964844 -9.628906 L 8.207031 -10.375 Z M 8.066406 -11.535156 "/></g></g></g><g fill="#292c5d" fill-opacity="1"><g transform="translate(204.752697, 269.282661)"><g><path d="M 6.894531 -7.160156 L 6.875 -7.230469 C 7.953125 -7.714844 8.558594 -9.074219 8.136719 -10.53125 C 7.6875 -12.085938 5.9375 -12.644531 3.730469 -12.007812 L -1.371094 -10.53125 L 1.542969 -0.445312 L 2.96875 -0.855469 L 1.746094 -5.09375 L 5.261719 -6.109375 C 6.746094 -6.539062 7.953125 -6.089844 8.269531 -4.996094 L 9.007812 -2.601562 L 10.417969 -3.007812 L 9.671875 -5.601562 C 9.332031 -6.769531 8.117188 -7.355469 6.894531 -7.160156 Z M 5.078125 -7.226562 L 1.433594 -6.175781 L 0.367188 -9.863281 L 3.828125 -10.863281 C 5.296875 -11.289062 6.484375 -10.910156 6.789062 -9.84375 C 7.128906 -8.675781 6.449219 -7.621094 5.078125 -7.226562 Z M 5.078125 -7.226562 "/></g></g></g><g fill="#292c5d" fill-opacity="1"><g transform="translate(218.734559, 264.999055)"><g><path d="M 10.203125 -4.953125 L 1.769531 -12.53125 L -0.535156 -11.410156 L 0.1875 -0.0898438 L 1.59375 -0.773438 L 1.386719 -3.707031 L 6.621094 -6.25 L 8.796875 -4.269531 Z M 5.8125 -7.054688 L 1.25 -4.84375 L 0.792969 -10.972656 L 1.25 -11.195312 Z M 5.8125 -7.054688 "/></g></g></g><g fill="#292c5d" fill-opacity="1"><g transform="translate(231.256972, 258.725655)"><g><path d="M 1.292969 -0.949219 L 2.5 -1.816406 L -2.597656 -8.816406 L -2.511719 -8.875 L 7.21875 -5.199219 L 8.742188 -6.316406 L 2.617188 -14.824219 L 1.410156 -13.957031 L 6.449219 -7.011719 L 6.363281 -6.949219 L -3.300781 -10.5625 L -4.832031 -9.457031 Z M 1.292969 -0.949219 "/></g></g></g><g fill="#292c5d" fill-opacity="1"><g transform="translate(243.082757, 249.842512)"><g><path d="M -0.890625 -13.957031 L -6.84375 -8.007812 L -6.015625 -7.179688 L -1.410156 -11.785156 L -1.359375 -11.730469 L -0.402344 -1.1875 L 0.382812 -0.382812 L 6.53125 -6.535156 L 5.707031 -7.363281 L 0.921875 -2.578125 L 0.847656 -2.652344 L -0.105469 -13.195312 Z M -0.890625 -13.957031 "/></g></g></g><g fill="#292c5d" fill-opacity="1"><g transform="translate(251.672517, 241.120926)"><g><path d="M 3.710938 -4.980469 C 5.5 -7.464844 4.914062 -10.398438 2.246094 -12.316406 C -0.320312 -14.164062 -3.230469 -13.746094 -5.015625 -11.261719 C -6.804688 -8.777344 -6.242188 -5.859375 -3.613281 -3.96875 C -1.007812 -2.09375 1.925781 -2.496094 3.710938 -4.980469 Z M 2.761719 -5.664062 C 1.5 -3.910156 -0.6875 -3.691406 -2.695312 -5.136719 C -4.789062 -6.644531 -5.328125 -8.824219 -4.066406 -10.578125 C -2.796875 -12.34375 -0.605469 -12.539062 1.429688 -11.078125 C 3.5 -9.585938 4.035156 -7.429688 2.761719 -5.664062 Z M 2.761719 -5.664062 "/></g></g></g><g fill="#292c5d" fill-opacity="1"><g transform="translate(260.117165, 228.90906)"><g><path d="M -4.917969 -13.777344 L -9.265625 -4.949219 L -8.21875 -4.433594 L -6.367188 -8.1875 L 2 -4.0625 L 2.652344 -5.382812 L -5.71875 -9.503906 L -3.867188 -13.257812 Z M -4.917969 -13.777344 "/></g></g></g><g fill="#292c5d" fill-opacity="1"><g transform="translate(265.652472, 217.261266)"><g><path d="M -6.972656 -12.859375 L -9.917969 -3.46875 L -8.800781 -3.121094 L -7.546875 -7.113281 L 1.355469 -4.324219 L 1.792969 -5.726562 L -7.109375 -8.515625 L -5.855469 -12.507812 Z M -6.972656 -12.859375 "/></g></g></g><g fill="#292c5d" fill-opacity="1"><g transform="translate(269.163006, 205.071001)"><g><path d="M 0.296875 -1.578125 L 0.574219 -3.035156 L -9.742188 -4.988281 L -10.019531 -3.527344 Z M 0.296875 -1.578125 "/></g></g></g></svg>