<svg xmlns="http://www.w3.org/2000/svg" xmlns:xlink="http://www.w3.org/1999/xlink" width="500" zoomAndPan="magnify" viewBox="0 0 375 374.999991" height="500" preserveAspectRatio="xMidYMid meet" version="1.0"><defs><g/></defs><g fill="#292c5d" fill-opacity="1"><g transform="translate(137.702998, 202.70319)"><g><path d="M 147.6875 -81.203125 C 148.394531 -80.773438 148.84375 -80.207031 149.03125 -79.5 C 149.226562 -78.800781 149.117188 -78.09375 148.703125 -77.375 C 148.066406 -76.363281 147.285156 -75.429688 146.359375 -74.578125 C 144.492188 -72.847656 142.429688 -71.28125 140.171875 -69.875 C 128.835938 -62.457031 116.625 -56.820312 103.53125 -52.96875 C 102.925781 -52.800781 102.328125 -52.609375 101.734375 -52.390625 C 100.847656 -52.109375 99.941406 -51.84375 99.015625 -51.59375 C 98.765625 -51.488281 98.53125 -51.515625 98.3125 -51.671875 C 98.101562 -51.828125 97.972656 -52.050781 97.921875 -52.34375 C 97.921875 -52.476562 97.972656 -52.632812 98.078125 -52.8125 C 98.179688 -53 98.300781 -53.117188 98.4375 -53.171875 C 99.539062 -53.640625 100.6875 -54.066406 101.875 -54.453125 C 115.007812 -58.796875 127.316406 -64.847656 138.796875 -72.609375 C 140.203125 -73.628906 141.554688 -74.691406 142.859375 -75.796875 C 143.035156 -75.960938 143.226562 -76.109375 143.4375 -76.234375 C 144.113281 -76.785156 144.597656 -77.484375 144.890625 -78.328125 C 145.054688 -78.835938 144.910156 -79.265625 144.453125 -79.609375 C 143.929688 -79.929688 143.351562 -80.125 142.71875 -80.1875 C 142.601562 -80.1875 142.476562 -80.207031 142.34375 -80.25 C 139.84375 -80.664062 137.332031 -80.875 134.8125 -80.875 C 132.300781 -80.875 129.796875 -80.769531 127.296875 -80.5625 C 121.617188 -80 115.960938 -79.234375 110.328125 -78.265625 C 104.691406 -77.296875 99.070312 -76.210938 93.46875 -75.015625 C 76.875 -71.503906 60.546875 -67.054688 44.484375 -61.671875 C 38.765625 -59.765625 33.097656 -57.734375 27.484375 -55.578125 C 21.867188 -53.421875 16.328125 -51.050781 10.859375 -48.46875 C 9.378906 -47.738281 7.894531 -47.015625 6.40625 -46.296875 C 5.625 -45.878906 4.804688 -45.457031 3.953125 -45.03125 C 3.816406 -44.988281 3.710938 -44.921875 3.640625 -44.828125 C 3.078125 -44.535156 2.5 -44.304688 1.90625 -44.140625 C 1.613281 -44.023438 1.304688 -43.972656 0.984375 -43.984375 C 0.671875 -44.003906 0.429688 -44.140625 0.265625 -44.390625 C 0.0859375 -44.742188 0.0820312 -45.046875 0.25 -45.296875 C 0.425781 -45.546875 0.660156 -45.753906 0.953125 -45.921875 C 0.992188 -45.960938 1.0625 -46.003906 1.15625 -46.046875 C 2.539062 -46.847656 3.972656 -47.632812 5.453125 -48.40625 C 10.210938 -50.8125 15.054688 -53.03125 19.984375 -55.0625 C 24.921875 -57.09375 29.910156 -59.003906 34.953125 -60.796875 C 55.242188 -68.035156 75.941406 -73.773438 97.046875 -78.015625 C 102.128906 -79.035156 107.210938 -79.96875 112.296875 -80.8125 C 117.390625 -81.664062 122.515625 -82.300781 127.671875 -82.71875 C 129.148438 -82.800781 130.648438 -82.878906 132.171875 -82.953125 C 132.847656 -83.015625 133.550781 -83.066406 134.28125 -83.109375 C 137.457031 -83.109375 140.632812 -82.875 143.8125 -82.40625 C 145.164062 -82.238281 146.457031 -81.835938 147.6875 -81.203125 Z M 69.15625 -22.046875 C 69.4375 -21.984375 69.707031 -21.878906 69.96875 -21.734375 C 70.226562 -21.585938 70.421875 -21.425781 70.546875 -21.25 C 70.671875 -21.082031 70.6875 -20.921875 70.59375 -20.765625 C 70.382812 -20.492188 70.144531 -20.335938 69.875 -20.296875 C 69.601562 -20.265625 69.34375 -20.25 69.09375 -20.25 C 69.03125 -20.25 68.984375 -20.25 68.953125 -20.25 C 64.421875 -20.25 59.863281 -20.035156 55.28125 -19.609375 C 52.875 -19.398438 50.441406 -19.226562 47.984375 -19.09375 C 47.171875 -19.050781 46.617188 -18.628906 46.328125 -17.828125 C 46.078125 -17.191406 45.800781 -16.554688 45.5 -15.921875 C 45.34375 -15.546875 45.195312 -15.171875 45.0625 -14.796875 C 44.46875 -13.421875 43.898438 -12.082031 43.359375 -10.78125 C 38.691406 0.5625 33.835938 11.828125 28.796875 23.015625 C 27.347656 26.117188 25.816406 29.171875 24.203125 32.171875 C 24.203125 32.210938 24.179688 32.253906 24.140625 32.296875 C 23.640625 33.273438 23.003906 34.207031 22.234375 35.09375 C 21.566406 35.90625 20.679688 36.1875 19.578125 35.9375 C 19.273438 35.832031 19.015625 35.675781 18.796875 35.46875 C 18.585938 35.257812 18.484375 34.988281 18.484375 34.65625 C 18.546875 33.925781 18.679688 33.207031 18.890625 32.5 C 19.046875 32 19.207031 31.46875 19.375 30.90625 C 20.226562 28.15625 21.125 25.398438 22.0625 22.640625 C 26.300781 10.492188 31.234375 -1.363281 36.859375 -12.9375 C 37.378906 -14.039062 37.992188 -15.117188 38.703125 -16.171875 C 38.878906 -16.421875 39.125 -16.570312 39.4375 -16.625 C 39.757812 -16.675781 40.066406 -16.648438 40.359375 -16.546875 C 40.867188 -16.390625 41.054688 -15.992188 40.921875 -15.359375 C 40.796875 -14.722656 40.535156 -13.988281 40.140625 -13.15625 C 39.742188 -12.332031 39.351562 -11.601562 38.96875 -10.96875 C 38.65625 -10.457031 38.441406 -10.078125 38.328125 -9.828125 C 32.515625 2.671875 29.269531 9.960938 28.59375 12.046875 C 28.34375 12.753906 28.21875 13.234375 28.21875 13.484375 C 28.21875 13.734375 28.300781 13.835938 28.46875 13.796875 C 28.644531 13.765625 28.835938 13.648438 29.046875 13.453125 C 29.265625 13.265625 29.460938 13.0625 29.640625 12.84375 C 29.828125 12.632812 29.953125 12.492188 30.015625 12.421875 C 30.265625 11.785156 30.53125 11.128906 30.8125 10.453125 C 31.757812 8.273438 32.695312 6.109375 33.625 3.953125 C 33.914062 3.316406 34.191406 2.679688 34.453125 2.046875 C 36.441406 -2.648438 38.410156 -7.347656 40.359375 -12.046875 C 40.453125 -12.222656 40.578125 -12.484375 40.734375 -12.828125 C 41.078125 -13.492188 41.441406 -14.28125 41.828125 -15.1875 C 42.210938 -16.09375 42.457031 -16.90625 42.5625 -17.625 C 42.664062 -18.351562 42.476562 -18.738281 42 -18.78125 C 41.03125 -18.78125 40.054688 -18.78125 39.078125 -18.78125 C 38.441406 -18.78125 37.804688 -18.78125 37.171875 -18.78125 C 36.628906 -18.78125 36.0625 -18.78125 35.46875 -18.78125 C 33.601562 -18.78125 31.734375 -18.804688 29.859375 -18.859375 C 29.359375 -18.898438 28.898438 -19.023438 28.484375 -19.234375 C 28.441406 -19.273438 28.40625 -19.347656 28.375 -19.453125 C 28.351562 -19.554688 28.320312 -19.675781 28.28125 -19.8125 C 28.28125 -19.851562 28.28125 -19.894531 28.28125 -19.9375 C 28.28125 -19.96875 28.300781 -20.003906 28.34375 -20.046875 C 28.394531 -20.097656 28.441406 -20.144531 28.484375 -20.1875 C 28.734375 -20.363281 28.984375 -20.46875 29.234375 -20.5 C 29.484375 -20.539062 29.742188 -20.5625 30.015625 -20.5625 C 30.085938 -20.5625 30.164062 -20.5625 30.25 -20.5625 C 31.300781 -20.601562 32.359375 -20.644531 33.421875 -20.6875 C 36.171875 -20.851562 38.925781 -20.957031 41.6875 -21 C 42.625 -21 43.359375 -21.203125 43.890625 -21.609375 C 44.421875 -22.015625 44.832031 -22.640625 45.125 -23.484375 C 46.488281 -27.003906 47.863281 -30.519531 49.25 -34.03125 C 50.726562 -37.757812 52.191406 -41.492188 53.640625 -45.234375 C 54.734375 -48.097656 55.773438 -50.976562 56.765625 -53.875 C 57.296875 -55.394531 57.84375 -56.929688 58.40625 -58.484375 C 58.40625 -58.546875 58.425781 -58.597656 58.46875 -58.640625 C 58.675781 -59.304688 58.953125 -59.921875 59.296875 -60.484375 C 59.515625 -60.773438 59.769531 -60.925781 60.0625 -60.9375 C 60.363281 -60.957031 60.675781 -60.929688 61 -60.859375 C 61.25 -60.722656 61.453125 -60.554688 61.609375 -60.359375 C 61.765625 -60.171875 61.820312 -59.953125 61.78125 -59.703125 C 61.644531 -58.742188 61.453125 -57.789062 61.203125 -56.84375 C 59.796875 -52.21875 58.207031 -47.679688 56.4375 -43.234375 C 56.34375 -43.117188 56.273438 -42.992188 56.234375 -42.859375 C 54.640625 -38.660156 52.992188 -34.492188 51.296875 -30.359375 C 50.523438 -28.453125 49.753906 -26.546875 48.984375 -24.640625 C 48.984375 -24.597656 48.984375 -24.578125 48.984375 -24.578125 C 48.773438 -24.023438 48.566406 -23.445312 48.359375 -22.84375 C 48.140625 -22.3125 48.125 -21.921875 48.3125 -21.671875 C 48.507812 -21.429688 48.925781 -21.3125 49.5625 -21.3125 C 50.414062 -21.3125 51.265625 -21.363281 52.109375 -21.46875 C 52.492188 -21.46875 52.878906 -21.46875 53.265625 -21.46875 C 53.335938 -21.46875 53.394531 -21.484375 53.4375 -21.515625 C 58.3125 -21.691406 63.164062 -21.867188 68 -22.046875 C 68.382812 -22.078125 68.769531 -22.078125 69.15625 -22.046875 Z M 69.15625 -22.046875 "/></g></g></g><g fill="#292c5d" fill-opacity="1"><g transform="translate(21.927004, 200.046359)"><g><path d="M 11.25 -12.601562 L 1.925781 -12.601562 L 1.925781 0 L 3.707031 0 L 3.707031 -5.722656 L 10.890625 -5.722656 L 10.890625 -7.074219 L 3.707031 -7.074219 L 3.707031 -11.195312 L 11.25 -11.195312 Z M 11.25 -12.601562 "/></g></g></g><g fill="#292c5d" fill-opacity="1"><g transform="translate(36.056966, 200.046359)"><g><path d="M 11.25 -1.402344 L 3.707031 -1.402344 L 3.707031 -12.601562 L 1.925781 -12.601562 L 1.925781 0 L 11.25 0 Z M 11.25 -1.402344 "/></g></g></g><g fill="#292c5d" fill-opacity="1"><g transform="translate(49.844933, 200.046359)"><g><path d="M 7.453125 0.125 C 11.125 0.125 13.570312 -2.503906 13.570312 -6.445312 C 13.570312 -10.242188 11.125 -12.78125 7.453125 -12.78125 C 3.78125 -12.78125 1.332031 -10.1875 1.332031 -6.300781 C 1.332031 -2.449219 3.78125 0.125 7.453125 0.125 Z M 7.453125 -1.277344 C 4.859375 -1.277344 3.113281 -3.257812 3.113281 -6.226562 C 3.113281 -9.324219 4.859375 -11.375 7.453125 -11.375 C 10.0625 -11.375 11.789062 -9.378906 11.789062 -6.371094 C 11.789062 -3.3125 10.0625 -1.277344 7.453125 -1.277344 Z M 7.453125 -1.277344 "/></g></g></g><g fill="#292c5d" fill-opacity="1"><g transform="translate(66.602893, 200.046359)"><g><path d="M 10.332031 -5.957031 L 10.332031 -6.046875 C 11.734375 -6.246094 12.886719 -7.613281 12.886719 -9.433594 C 12.886719 -11.375 11.050781 -12.601562 8.296875 -12.601562 L 1.925781 -12.601562 L 1.925781 0 L 3.707031 0 L 3.707031 -5.292969 L 8.101562 -5.292969 C 9.953125 -5.292969 11.195312 -4.375 11.195312 -3.007812 L 11.25 0 L 13.015625 0 L 13.015625 -3.238281 C 13.015625 -4.699219 11.808594 -5.777344 10.332031 -5.957031 Z M 8.261719 -6.640625 L 3.707031 -6.640625 L 3.707031 -11.25 L 8.027344 -11.25 C 9.863281 -11.25 11.105469 -10.421875 11.105469 -9.089844 C 11.105469 -7.632812 9.972656 -6.640625 8.261719 -6.640625 Z M 8.261719 -6.640625 "/></g></g></g><g fill="#292c5d" fill-opacity="1"><g transform="translate(83.05485, 200.046359)"><g><path d="M 3.707031 -11.195312 L 11.25 -11.195312 L 11.25 -12.601562 L 1.925781 -12.601562 L 1.925781 0 L 11.25 0 L 11.25 -1.402344 L 3.707031 -1.402344 L 3.707031 -5.777344 L 10.890625 -5.777344 L 10.890625 -7.128906 L 3.707031 -7.128906 Z M 3.707031 -11.195312 "/></g></g></g><g fill="#292c5d" fill-opacity="1"><g transform="translate(97.364816, 200.046359)"><g><path d="M 1.925781 -0.0195312 L 3.707031 -0.0195312 L 3.652344 -10.402344 L 3.78125 -10.402344 L 10.675781 0 L 12.941406 -0.0195312 L 12.941406 -12.601562 L 11.160156 -12.601562 L 11.195312 -2.304688 L 11.070312 -2.304688 L 4.195312 -12.601562 L 1.925781 -12.601562 Z M 1.925781 -0.0195312 "/></g></g></g><g fill="#292c5d" fill-opacity="1"><g transform="translate(114.086773, 200.046359)"><g><path d="M 7.523438 0.125 C 11.089844 0.125 13.480469 -1.78125 13.480469 -4.644531 L 11.683594 -4.644531 C 11.683594 -2.628906 10.027344 -1.277344 7.542969 -1.277344 C 4.894531 -1.277344 3.113281 -3.402344 3.113281 -6.605469 C 3.113281 -9.46875 4.894531 -11.375 7.542969 -11.375 C 9.917969 -11.375 11.59375 -10.078125 11.683594 -8.136719 L 13.480469 -8.136719 C 13.480469 -10.925781 11.089844 -12.78125 7.523438 -12.78125 C 3.816406 -12.78125 1.332031 -10.3125 1.332031 -6.605469 C 1.332031 -2.574219 3.816406 0.125 7.523438 0.125 Z M 7.523438 0.125 "/></g></g></g><g fill="#292c5d" fill-opacity="1"><g transform="translate(130.664729, 200.046359)"><g><path d="M 1.925781 0 L 3.707031 0 L 3.707031 -12.601562 L 1.925781 -12.601562 Z M 1.925781 0 "/></g></g></g><g fill="#292c5d" fill-opacity="1"><g transform="translate(138.152712, 200.046359)"><g><path d="M 13.609375 0 L 8.476562 -12.601562 L 5.398438 -12.601562 L 0.253906 0 L 2.125 0 L 3.4375 -3.277344 L 10.421875 -3.277344 L 11.734375 0 Z M 9.972656 -4.570312 L 3.886719 -4.570312 L 6.605469 -11.429688 L 7.21875 -11.429688 Z M 9.972656 -4.570312 "/></g></g></g><g fill="#292c5d" fill-opacity="1"><g transform="translate(211.829991, 200.046359)"><g><path d="M 11.25 -12.601562 L 1.925781 -12.601562 L 1.925781 0 L 3.707031 0 L 3.707031 -5.722656 L 10.890625 -5.722656 L 10.890625 -7.074219 L 3.707031 -7.074219 L 3.707031 -11.195312 L 11.25 -11.195312 Z M 11.25 -12.601562 "/></g></g></g><g fill="#292c5d" fill-opacity="1"><g transform="translate(225.959953, 200.046359)"><g><path d="M 10.332031 -5.957031 L 10.332031 -6.046875 C 11.734375 -6.246094 12.886719 -7.613281 12.886719 -9.433594 C 12.886719 -11.375 11.050781 -12.601562 8.296875 -12.601562 L 1.925781 -12.601562 L 1.925781 0 L 3.707031 0 L 3.707031 -5.292969 L 8.101562 -5.292969 C 9.953125 -5.292969 11.195312 -4.375 11.195312 -3.007812 L 11.25 0 L 13.015625 0 L 13.015625 -3.238281 C 13.015625 -4.699219 11.808594 -5.777344 10.332031 -5.957031 Z M 8.261719 -6.640625 L 3.707031 -6.640625 L 3.707031 -11.25 L 8.027344 -11.25 C 9.863281 -11.25 11.105469 -10.421875 11.105469 -9.089844 C 11.105469 -7.632812 9.972656 -6.640625 8.261719 -6.640625 Z M 8.261719 -6.640625 "/></g></g></g><g fill="#292c5d" fill-opacity="1"><g transform="translate(242.41191, 200.046359)"><g><path d="M 13.609375 0 L 8.476562 -12.601562 L 5.398438 -12.601562 L 0.253906 0 L 2.125 0 L 3.4375 -3.277344 L 10.421875 -3.277344 L 11.734375 0 Z M 9.972656 -4.570312 L 3.886719 -4.570312 L 6.605469 -11.429688 L 7.21875 -11.429688 Z M 9.972656 -4.570312 "/></g></g></g><g fill="#292c5d" fill-opacity="1"><g transform="translate(258.10787, 200.046359)"><g><path d="M 1.925781 -0.0195312 L 3.707031 -0.0195312 L 3.652344 -10.402344 L 3.78125 -10.402344 L 10.675781 0 L 12.941406 -0.0195312 L 12.941406 -12.601562 L 11.160156 -12.601562 L 11.195312 -2.304688 L 11.070312 -2.304688 L 4.195312 -12.601562 L 1.925781 -12.601562 Z M 1.925781 -0.0195312 "/></g></g></g><g fill="#292c5d" fill-opacity="1"><g transform="translate(274.829827, 200.046359)"><g><path d="M 11.089844 -12.601562 L 0.988281 -12.601562 L 0.988281 -11.195312 L 8.800781 -11.195312 L 8.800781 -11.105469 L 0.664062 -1.351562 L 0.648438 0 L 11.089844 0 L 11.089844 -1.402344 L 2.96875 -1.402344 L 2.96875 -1.53125 L 11.105469 -11.285156 Z M 11.089844 -12.601562 "/></g></g></g><g fill="#292c5d" fill-opacity="1"><g transform="translate(288.473793, 200.046359)"><g><path d="M 7.453125 0.125 C 11.125 0.125 13.570312 -2.503906 13.570312 -6.445312 C 13.570312 -10.242188 11.125 -12.78125 7.453125 -12.78125 C 3.78125 -12.78125 1.332031 -10.1875 1.332031 -6.300781 C 1.332031 -2.449219 3.78125 0.125 7.453125 0.125 Z M 7.453125 -1.277344 C 4.859375 -1.277344 3.113281 -3.257812 3.113281 -6.226562 C 3.113281 -9.324219 4.859375 -11.375 7.453125 -11.375 C 10.0625 -11.375 11.789062 -9.378906 11.789062 -6.371094 C 11.789062 -3.3125 10.0625 -1.277344 7.453125 -1.277344 Z M 7.453125 -1.277344 "/></g></g></g><g fill="#292c5d" fill-opacity="1"><g transform="translate(305.231753, 200.046359)"><g><path d="M 12.222656 -12.601562 L 0.414062 -12.601562 L 0.414062 -11.195312 L 5.4375 -11.195312 L 5.4375 0 L 7.199219 0 L 7.199219 -11.195312 L 12.222656 -11.195312 Z M 12.222656 -12.601562 "/></g></g></g><g fill="#292c5d" fill-opacity="1"><g transform="translate(319.721711, 200.046359)"><g><path d="M 12.222656 -12.601562 L 0.414062 -12.601562 L 0.414062 -11.195312 L 5.4375 -11.195312 L 5.4375 0 L 7.199219 0 L 7.199219 -11.195312 L 12.222656 -11.195312 Z M 12.222656 -12.601562 "/></g></g></g><g fill="#292c5d" fill-opacity="1"><g transform="translate(334.21167, 200.046359)"><g><path d="M 1.925781 0 L 3.707031 0 L 3.707031 -12.601562 L 1.925781 -12.601562 Z M 1.925781 0 "/></g></g></g></svg>