<svg xmlns="http://www.w3.org/2000/svg" xmlns:xlink="http://www.w3.org/1999/xlink" width="500" zoomAndPan="magnify" viewBox="0 0 375 374.999991" height="500" preserveAspectRatio="xMidYMid meet" version="1.0"><defs><g/><clipPath id="id1"><path d="M 56.402344 56.636719 L 318.902344 56.636719 L 318.902344 318.386719 L 56.402344 318.386719 Z M 56.402344 56.636719 " clip-rule="nonzero"/></clipPath><clipPath id="id2"><path d="M 137.410156 161.515625 L 237.910156 161.515625 L 237.910156 213.265625 L 137.410156 213.265625 Z M 137.410156 161.515625 " clip-rule="nonzero"/></clipPath></defs><g clip-path="url(#id1)"><path fill="#292c5d" d="M 187.609375 318.902344 C 115.300781 318.902344 56.402344 260.007812 56.402344 187.609375 C 56.402344 115.210938 115.300781 56.402344 187.609375 56.402344 C 259.917969 56.402344 318.8125 115.300781 318.8125 187.609375 C 318.902344 260.007812 260.007812 318.902344 187.609375 318.902344 Z M 187.609375 58.625 C 116.453125 58.625 58.625 116.453125 58.625 187.609375 C 58.625 258.761719 116.542969 316.683594 187.609375 316.683594 C 258.675781 316.683594 316.683594 258.761719 316.683594 187.609375 C 316.683594 116.453125 258.761719 58.625 187.609375 58.625 Z M 187.609375 58.625 " fill-opacity="1" fill-rule="nonzero"/></g><path fill="#292c5d" d="M 187.417969 308.28125 C 185.441406 308.28125 183.464844 308.230469 181.488281 308.132812 C 179.511719 308.039062 177.539062 307.890625 175.570312 307.699219 C 173.601562 307.503906 171.640625 307.261719 169.683594 306.972656 C 167.726562 306.679688 165.777344 306.34375 163.839844 305.957031 C 161.898438 305.570312 159.96875 305.136719 158.050781 304.65625 C 156.132812 304.175781 154.226562 303.648438 152.332031 303.074219 C 150.441406 302.5 148.5625 301.882812 146.699219 301.214844 C 144.839844 300.546875 142.992188 299.835938 141.167969 299.078125 C 139.339844 298.324219 137.53125 297.523438 135.742188 296.675781 C 133.953125 295.832031 132.1875 294.941406 130.445312 294.007812 C 128.699219 293.078125 126.980469 292.101562 125.28125 291.085938 C 123.585938 290.066406 121.914062 289.011719 120.269531 287.910156 C 118.625 286.8125 117.007812 285.671875 115.421875 284.496094 C 113.832031 283.316406 112.273438 282.101562 110.742188 280.84375 C 109.214844 279.589844 107.71875 278.300781 106.253906 276.972656 C 104.785156 275.640625 103.355469 274.277344 101.957031 272.878906 C 100.558594 271.480469 99.195312 270.050781 97.863281 268.582031 C 96.535156 267.117188 95.246094 265.621094 93.992188 264.09375 C 92.734375 262.5625 91.519531 261.003906 90.339844 259.414062 C 89.164062 257.828125 88.023438 256.210938 86.925781 254.566406 C 85.824219 252.921875 84.769531 251.25 83.75 249.554688 C 82.734375 247.855469 81.757812 246.136719 80.828125 244.390625 C 79.894531 242.648438 79.003906 240.882812 78.160156 239.09375 C 77.3125 237.304688 76.511719 235.496094 75.757812 233.667969 C 75 231.84375 74.289062 229.996094 73.621094 228.136719 C 72.953125 226.273438 72.335938 224.394531 71.761719 222.503906 C 71.1875 220.609375 70.660156 218.703125 70.179688 216.785156 C 69.699219 214.867188 69.265625 212.9375 68.878906 210.996094 C 68.492188 209.058594 68.15625 207.109375 67.863281 205.152344 C 67.574219 203.195312 67.332031 201.234375 67.136719 199.265625 C 66.945312 197.296875 66.796875 195.324219 66.703125 193.347656 C 66.605469 191.371094 66.554688 189.394531 66.554688 187.417969 C 66.554688 185.441406 66.605469 183.464844 66.703125 181.488281 C 66.796875 179.511719 66.945312 177.539062 67.136719 175.570312 C 67.332031 173.601562 67.574219 171.640625 67.863281 169.683594 C 68.15625 167.726562 68.492188 165.777344 68.878906 163.839844 C 69.265625 161.898438 69.699219 159.96875 70.179688 158.050781 C 70.660156 156.132812 71.1875 154.226562 71.761719 152.332031 C 72.335938 150.441406 72.953125 148.5625 73.621094 146.699219 C 74.289062 144.839844 75 142.992188 75.757812 141.167969 C 76.511719 139.339844 77.3125 137.53125 78.160156 135.742188 C 79.003906 133.953125 79.894531 132.1875 80.828125 130.445312 C 81.757812 128.699219 82.734375 126.980469 83.75 125.28125 C 84.769531 123.585938 85.824219 121.914062 86.925781 120.269531 C 88.023438 118.625 89.164062 117.007812 90.339844 115.421875 C 91.519531 113.832031 92.734375 112.273438 93.992188 110.742188 C 95.246094 109.214844 96.535156 107.71875 97.863281 106.253906 C 99.195312 104.785156 100.558594 103.355469 101.957031 101.957031 C 103.355469 100.558594 104.785156 99.195312 106.253906 97.863281 C 107.71875 96.535156 109.214844 95.246094 110.742188 93.992188 C 112.273438 92.734375 113.832031 91.519531 115.421875 90.339844 C 117.007812 89.164062 118.625 88.023438 120.269531 86.925781 C 121.914062 85.824219 123.585938 84.769531 125.28125 83.75 C 126.980469 82.734375 128.699219 81.757812 130.445312 80.828125 C 132.1875 79.894531 133.953125 79.003906 135.742188 78.160156 C 137.53125 77.3125 139.339844 76.511719 141.167969 75.757812 C 142.992188 75 144.839844 74.289062 146.699219 73.621094 C 148.5625 72.953125 150.441406 72.335938 152.332031 71.761719 C 154.226562 71.1875 156.132812 70.660156 158.050781 70.179688 C 159.96875 69.699219 161.898438 69.265625 163.839844 68.878906 C 165.777344 68.492188 167.726562 68.15625 169.683594 67.863281 C 171.640625 67.574219 173.601562 67.332031 175.570312 67.136719 C 177.539062 66.945312 179.511719 66.796875 181.488281 66.703125 C 183.464844 66.605469 185.441406 66.554688 187.417969 66.554688 C 189.394531 66.554688 191.371094 66.605469 193.347656 66.703125 C 195.324219 66.796875 197.296875 66.945312 199.265625 67.136719 C 201.234375 67.332031 203.195312 67.574219 205.152344 67.863281 C 207.109375 68.15625 209.058594 68.492188 210.996094 68.878906 C 212.9375 69.265625 214.867188 69.699219 216.785156 70.179688 C 218.703125 70.660156 220.609375 71.1875 222.503906 71.761719 C 224.394531 72.335938 226.273438 72.953125 228.136719 73.621094 C 229.996094 74.289062 231.84375 75 233.667969 75.757812 C 235.496094 76.511719 237.304688 77.3125 239.09375 78.160156 C 240.882812 79.003906 242.648438 79.894531 244.390625 80.828125 C 246.136719 81.757812 247.855469 82.734375 249.554688 83.75 C 251.25 84.769531 252.921875 85.824219 254.566406 86.925781 C 256.210938 88.023438 257.828125 89.164062 259.414062 90.339844 C 261.003906 91.519531 262.5625 92.734375 264.09375 93.992188 C 265.621094 95.246094 267.117188 96.535156 268.582031 97.863281 C 270.050781 99.195312 271.480469 100.558594 272.878906 101.957031 C 274.277344 103.355469 275.640625 104.785156 276.972656 106.253906 C 278.300781 107.71875 279.589844 109.214844 280.84375 110.742188 C 282.101562 112.273438 283.316406 113.832031 284.496094 115.421875 C 285.671875 117.007812 286.8125 118.625 287.910156 120.269531 C 289.011719 121.914062 290.066406 123.585938 291.085938 125.28125 C 292.101562 126.980469 293.078125 128.699219 294.007812 130.445312 C 294.941406 132.1875 295.832031 133.953125 296.675781 135.742188 C 297.523438 137.53125 298.324219 139.339844 299.078125 141.167969 C 299.835938 142.992188 300.546875 144.839844 301.214844 146.699219 C 301.882812 148.5625 302.5 150.441406 303.074219 152.332031 C 303.648438 154.226562 304.175781 156.132812 304.65625 158.050781 C 305.136719 159.96875 305.570312 161.898438 305.957031 163.839844 C 306.34375 165.777344 306.679688 167.726562 306.972656 169.683594 C 307.261719 171.640625 307.503906 173.601562 307.699219 175.570312 C 307.890625 177.539062 308.039062 179.511719 308.132812 181.488281 C 308.230469 183.464844 308.28125 185.441406 308.28125 187.417969 C 308.277344 189.394531 308.226562 191.371094 308.128906 193.347656 C 308.027344 195.320312 307.882812 197.292969 307.6875 199.261719 C 307.492188 201.226562 307.246094 203.191406 306.953125 205.144531 C 306.664062 207.101562 306.324219 209.046875 305.9375 210.988281 C 305.546875 212.925781 305.113281 214.855469 304.632812 216.773438 C 304.148438 218.691406 303.621094 220.59375 303.046875 222.488281 C 302.46875 224.378906 301.847656 226.257812 301.183594 228.117188 C 300.515625 229.980469 299.800781 231.824219 299.042969 233.648438 C 298.285156 235.476562 297.484375 237.28125 296.636719 239.070312 C 295.792969 240.855469 294.902344 242.621094 293.96875 244.367188 C 293.035156 246.109375 292.0625 247.828125 291.042969 249.523438 C 290.027344 251.21875 288.96875 252.890625 287.871094 254.535156 C 286.769531 256.175781 285.632812 257.792969 284.453125 259.382812 C 283.277344 260.96875 282.058594 262.527344 280.804688 264.054688 C 279.550781 265.585938 278.257812 267.082031 276.929688 268.546875 C 275.601562 270.011719 274.238281 271.441406 272.839844 272.839844 C 271.441406 274.238281 270.011719 275.601562 268.546875 276.929688 C 267.082031 278.257812 265.585938 279.550781 264.054688 280.804688 C 262.527344 282.058594 260.96875 283.277344 259.382812 284.453125 C 257.792969 285.632812 256.175781 286.769531 254.535156 287.871094 C 252.890625 288.96875 251.21875 290.027344 249.523438 291.042969 C 247.828125 292.0625 246.109375 293.035156 244.367188 293.96875 C 242.621094 294.902344 240.855469 295.792969 239.070312 296.636719 C 237.28125 297.484375 235.476562 298.285156 233.648438 299.042969 C 231.824219 299.800781 229.980469 300.515625 228.117188 301.183594 C 226.257812 301.847656 224.378906 302.46875 222.488281 303.046875 C 220.59375 303.621094 218.691406 304.148438 216.773438 304.632812 C 214.855469 305.113281 212.925781 305.546875 210.988281 305.9375 C 209.046875 306.324219 207.101562 306.664062 205.144531 306.953125 C 203.191406 307.246094 201.226562 307.492188 199.261719 307.6875 C 197.292969 307.882812 195.320312 308.027344 193.347656 308.128906 C 191.371094 308.226562 189.394531 308.277344 187.417969 308.28125 Z M 187.417969 67.664062 C 185.457031 67.664062 183.5 67.714844 181.542969 67.808594 C 179.585938 67.90625 177.628906 68.050781 175.679688 68.242188 C 173.730469 68.433594 171.785156 68.671875 169.847656 68.960938 C 167.90625 69.25 165.976562 69.582031 164.054688 69.964844 C 162.132812 70.347656 160.222656 70.777344 158.320312 71.253906 C 156.417969 71.730469 154.53125 72.253906 152.65625 72.820312 C 150.78125 73.390625 148.917969 74.003906 147.074219 74.664062 C 145.230469 75.324219 143.402344 76.03125 141.589844 76.78125 C 139.78125 77.53125 137.988281 78.324219 136.21875 79.164062 C 134.445312 80 132.695312 80.882812 130.964844 81.804688 C 129.238281 82.730469 127.535156 83.695312 125.851562 84.703125 C 124.171875 85.710938 122.515625 86.757812 120.886719 87.847656 C 119.257812 88.9375 117.65625 90.0625 116.082031 91.230469 C 114.507812 92.398438 112.960938 93.605469 111.449219 94.847656 C 109.933594 96.089844 108.449219 97.371094 106.996094 98.6875 C 105.542969 100.003906 104.125 101.355469 102.738281 102.738281 C 101.355469 104.125 100.003906 105.542969 98.6875 106.996094 C 97.371094 108.449219 96.089844 109.933594 94.847656 111.449219 C 93.605469 112.960938 92.398438 114.507812 91.230469 116.082031 C 90.0625 117.65625 88.9375 119.257812 87.847656 120.886719 C 86.757812 122.515625 85.710938 124.171875 84.703125 125.851562 C 83.695312 127.535156 82.730469 129.238281 81.804688 130.964844 C 80.882812 132.695312 80 134.445312 79.164062 136.21875 C 78.324219 137.988281 77.53125 139.78125 76.78125 141.589844 C 76.03125 143.402344 75.324219 145.230469 74.664062 147.074219 C 74.003906 148.917969 73.390625 150.78125 72.820312 152.65625 C 72.253906 154.53125 71.730469 156.417969 71.253906 158.320312 C 70.777344 160.222656 70.347656 162.132812 69.964844 164.054688 C 69.582031 165.976562 69.25 167.90625 68.960938 169.847656 C 68.671875 171.785156 68.433594 173.730469 68.242188 175.679688 C 68.050781 177.628906 67.90625 179.585938 67.808594 181.542969 C 67.714844 183.5 67.664062 185.457031 67.664062 187.417969 C 67.664062 189.378906 67.714844 191.335938 67.808594 193.292969 C 67.90625 195.25 68.050781 197.207031 68.242188 199.15625 C 68.433594 201.105469 68.671875 203.050781 68.960938 204.988281 C 69.25 206.929688 69.582031 208.859375 69.964844 210.78125 C 70.347656 212.703125 70.777344 214.613281 71.253906 216.515625 C 71.730469 218.417969 72.253906 220.304688 72.820312 222.179688 C 73.390625 224.054688 74.003906 225.917969 74.664062 227.761719 C 75.324219 229.605469 76.03125 231.433594 76.78125 233.246094 C 77.53125 235.054688 78.324219 236.847656 79.164062 238.617188 C 80 240.390625 80.882812 242.140625 81.804688 243.871094 C 82.730469 245.597656 83.695312 247.300781 84.703125 248.984375 C 85.710938 250.664062 86.757812 252.320312 87.847656 253.949219 C 88.9375 255.578125 90.0625 257.179688 91.230469 258.753906 C 92.398438 260.328125 93.605469 261.875 94.847656 263.386719 C 96.089844 264.902344 97.371094 266.386719 98.6875 267.839844 C 100.003906 269.292969 101.355469 270.710938 102.738281 272.097656 C 104.125 273.480469 105.542969 274.832031 106.996094 276.148438 C 108.449219 277.464844 109.933594 278.746094 111.449219 279.988281 C 112.960938 281.230469 114.507812 282.4375 116.082031 283.605469 C 117.65625 284.773438 119.257812 285.898438 120.886719 286.988281 C 122.515625 288.078125 124.171875 289.125 125.851562 290.132812 C 127.535156 291.140625 129.238281 292.105469 130.964844 293.03125 C 132.695312 293.953125 134.445312 294.835938 136.21875 295.671875 C 137.988281 296.511719 139.78125 297.304688 141.589844 298.054688 C 143.402344 298.804688 145.230469 299.511719 147.074219 300.171875 C 148.917969 300.832031 150.78125 301.445312 152.65625 302.015625 C 154.53125 302.582031 156.417969 303.105469 158.320312 303.582031 C 160.222656 304.058594 162.132812 304.488281 164.054688 304.871094 C 165.976562 305.253906 167.90625 305.585938 169.847656 305.875 C 171.785156 306.164062 173.730469 306.402344 175.679688 306.59375 C 177.628906 306.785156 179.585938 306.929688 181.542969 307.027344 C 183.5 307.125 185.457031 307.171875 187.417969 307.171875 C 189.378906 307.171875 191.335938 307.125 193.292969 307.027344 C 195.25 306.929688 197.207031 306.785156 199.15625 306.59375 C 201.105469 306.402344 203.050781 306.164062 204.988281 305.875 C 206.929688 305.585938 208.859375 305.253906 210.78125 304.871094 C 212.703125 304.488281 214.613281 304.058594 216.515625 303.582031 C 218.417969 303.105469 220.304688 302.582031 222.179688 302.015625 C 224.054688 301.445312 225.917969 300.832031 227.761719 300.171875 C 229.605469 299.511719 231.433594 298.804688 233.246094 298.054688 C 235.054688 297.304688 236.847656 296.511719 238.617188 295.671875 C 240.390625 294.835938 242.140625 293.953125 243.871094 293.03125 C 245.597656 292.105469 247.300781 291.140625 248.984375 290.132812 C 250.664062 289.125 252.320312 288.078125 253.949219 286.988281 C 255.578125 285.898438 257.179688 284.773438 258.753906 283.605469 C 260.328125 282.4375 261.875 281.230469 263.386719 279.988281 C 264.902344 278.746094 266.386719 277.464844 267.839844 276.148438 C 269.292969 274.832031 270.710938 273.480469 272.097656 272.097656 C 273.480469 270.710938 274.832031 269.292969 276.148438 267.839844 C 277.464844 266.386719 278.746094 264.902344 279.988281 263.386719 C 281.230469 261.875 282.4375 260.328125 283.605469 258.753906 C 284.773438 257.179688 285.898438 255.578125 286.988281 253.949219 C 288.078125 252.320312 289.125 250.664062 290.132812 248.984375 C 291.140625 247.300781 292.105469 245.597656 293.03125 243.871094 C 293.953125 242.140625 294.835938 240.390625 295.671875 238.617188 C 296.511719 236.847656 297.304688 235.054688 298.054688 233.246094 C 298.804688 231.433594 299.511719 229.605469 300.171875 227.761719 C 300.832031 225.917969 301.445312 224.054688 302.015625 222.179688 C 302.582031 220.304688 303.105469 218.417969 303.582031 216.515625 C 304.058594 214.613281 304.488281 212.703125 304.871094 210.78125 C 305.253906 208.859375 305.585938 206.929688 305.875 204.988281 C 306.164062 203.050781 306.402344 201.105469 306.59375 199.15625 C 306.785156 197.207031 306.929688 195.25 307.027344 193.292969 C 307.125 191.335938 307.171875 189.378906 307.171875 187.417969 C 307.167969 185.457031 307.117188 183.5 307.019531 181.542969 C 306.921875 179.585938 306.777344 177.632812 306.582031 175.683594 C 306.386719 173.734375 306.148438 171.789062 305.859375 169.851562 C 305.570312 167.914062 305.230469 165.984375 304.847656 164.066406 C 304.464844 162.144531 304.035156 160.234375 303.554688 158.332031 C 303.078125 156.433594 302.554688 154.542969 301.984375 152.671875 C 301.414062 150.796875 300.800781 148.9375 300.136719 147.09375 C 299.476562 145.246094 298.769531 143.421875 298.019531 141.609375 C 297.269531 139.800781 296.472656 138.011719 295.636719 136.242188 C 294.796875 134.46875 293.917969 132.71875 292.992188 130.992188 C 292.066406 129.265625 291.101562 127.5625 290.09375 125.882812 C 289.085938 124.203125 288.039062 122.546875 286.949219 120.917969 C 285.859375 119.289062 284.730469 117.6875 283.5625 116.113281 C 282.394531 114.542969 281.191406 112.996094 279.949219 111.484375 C 278.703125 109.96875 277.425781 108.484375 276.109375 107.035156 C 274.792969 105.582031 273.441406 104.164062 272.058594 102.777344 C 270.671875 101.394531 269.253906 100.042969 267.800781 98.726562 C 266.351562 97.410156 264.867188 96.132812 263.351562 94.886719 C 261.839844 93.644531 260.292969 92.441406 258.722656 91.273438 C 257.148438 90.105469 255.546875 88.976562 253.917969 87.886719 C 252.289062 86.796875 250.632812 85.75 248.953125 84.742188 C 247.273438 83.734375 245.570312 82.769531 243.84375 81.84375 C 242.117188 80.921875 240.367188 80.039062 238.59375 79.199219 C 236.824219 78.363281 235.035156 77.566406 233.226562 76.816406 C 231.414062 76.066406 229.589844 75.359375 227.742188 74.699219 C 225.898438 74.035156 224.039062 73.421875 222.164062 72.851562 C 220.292969 72.28125 218.402344 71.757812 216.503906 71.28125 C 214.605469 70.800781 212.691406 70.371094 210.773438 69.988281 C 208.851562 69.605469 206.921875 69.265625 204.984375 68.976562 C 203.046875 68.6875 201.101562 68.449219 199.152344 68.253906 C 197.203125 68.058594 195.25 67.914062 193.292969 67.816406 C 191.335938 67.71875 189.378906 67.667969 187.417969 67.664062 Z M 187.417969 67.664062 " fill-opacity="1" fill-rule="nonzero"/><g clip-path="url(#id2)"><path fill="#292c5d" d="M 237.839844 187.96875 C 237.574219 187.367188 237.289062 186.824219 236.984375 186.273438 C 236.683594 185.722656 236.363281 185.1875 236.03125 184.660156 C 235.363281 183.605469 234.652344 182.578125 233.890625 181.589844 C 232.375 179.609375 230.6875 177.765625 228.875 176.054688 C 227.054688 174.351562 225.101562 172.789062 223.042969 171.378906 C 220.984375 169.96875 218.820312 168.71875 216.578125 167.621094 C 215.457031 167.074219 214.316406 166.574219 213.160156 166.101562 C 212.003906 165.636719 210.832031 165.210938 209.648438 164.816406 C 207.277344 164.042969 204.863281 163.402344 202.417969 162.921875 C 199.972656 162.4375 197.503906 162.085938 195.023438 161.859375 C 192.546875 161.632812 190.050781 161.535156 187.566406 161.542969 C 182.59375 161.554688 177.613281 161.984375 172.730469 162.949219 C 170.289062 163.441406 167.871094 164.054688 165.507812 164.828125 C 164.324219 165.207031 163.15625 165.644531 162 166.097656 C 160.84375 166.558594 159.707031 167.0625 158.582031 167.597656 C 156.34375 168.679688 154.171875 169.902344 152.121094 171.304688 C 150.066406 172.699219 148.113281 174.242188 146.300781 175.9375 C 144.488281 177.632812 142.808594 179.464844 141.308594 181.4375 C 140.554688 182.417969 139.847656 183.4375 139.191406 184.488281 C 138.539062 185.542969 137.929688 186.613281 137.425781 187.761719 C 137.410156 187.792969 137.410156 187.832031 137.421875 187.867188 C 137.621094 188.382812 137.855469 188.863281 138.105469 189.34375 C 138.355469 189.824219 138.625 190.292969 138.902344 190.75 C 139.183594 191.214844 139.480469 191.660156 139.785156 192.105469 L 140.253906 192.765625 L 140.738281 193.410156 L 141.238281 194.042969 L 141.753906 194.664062 L 142.289062 195.273438 C 142.46875 195.472656 142.652344 195.667969 142.835938 195.867188 C 143.015625 196.066406 143.207031 196.253906 143.394531 196.449219 C 143.582031 196.644531 143.773438 196.832031 143.96875 197.019531 C 144.351562 197.398438 144.753906 197.757812 145.152344 198.121094 C 145.558594 198.46875 145.960938 198.828125 146.386719 199.164062 C 146.597656 199.328125 146.804688 199.503906 147.015625 199.667969 L 147.660156 200.15625 C 148.089844 200.476562 148.535156 200.785156 148.976562 201.09375 C 149.425781 201.386719 149.867188 201.695312 150.328125 201.972656 L 151.015625 202.402344 L 151.714844 202.804688 C 152.175781 203.082031 152.65625 203.328125 153.128906 203.585938 C 153.601562 203.84375 154.089844 204.070312 154.570312 204.3125 C 155.058594 204.546875 155.550781 204.765625 156.039062 204.988281 C 155.550781 204.757812 155.0625 204.53125 154.582031 204.292969 C 154.105469 204.042969 153.621094 203.808594 153.152344 203.546875 C 152.679688 203.28125 152.207031 203.03125 151.75 202.75 L 151.054688 202.335938 L 150.378906 201.902344 C 149.921875 201.617188 149.484375 201.304688 149.039062 201.003906 C 148.601562 200.691406 148.167969 200.375 147.742188 200.050781 L 147.105469 199.554688 C 146.894531 199.390625 146.691406 199.214844 146.484375 199.042969 C 146.066406 198.707031 145.671875 198.34375 145.269531 197.992188 C 144.875 197.625 144.480469 197.265625 144.105469 196.882812 C 143.910156 196.699219 143.722656 196.507812 143.539062 196.3125 C 143.355469 196.117188 143.164062 195.929688 142.988281 195.726562 C 142.808594 195.527344 142.625 195.332031 142.449219 195.132812 L 141.929688 194.523438 L 141.421875 193.902344 L 140.929688 193.265625 L 140.453125 192.621094 L 139.996094 191.964844 C 139.699219 191.519531 139.410156 191.070312 139.136719 190.613281 C 138.863281 190.152344 138.605469 189.6875 138.363281 189.214844 C 138.132812 188.757812 137.914062 188.292969 137.734375 187.824219 C 138.226562 186.738281 138.835938 185.683594 139.480469 184.667969 C 140.140625 183.632812 140.847656 182.628906 141.605469 181.664062 C 143.113281 179.722656 144.792969 177.921875 146.601562 176.261719 C 148.414062 174.601562 150.359375 173.085938 152.40625 171.726562 C 154.453125 170.363281 156.605469 169.15625 158.828125 168.097656 C 159.941406 167.578125 161.070312 167.085938 162.214844 166.632812 C 163.363281 166.191406 164.519531 165.769531 165.695312 165.398438 C 168.039062 164.644531 170.4375 164.054688 172.851562 163.578125 C 177.695312 162.648438 182.632812 162.25 187.566406 162.265625 C 190.039062 162.273438 192.496094 162.382812 194.953125 162.621094 C 197.40625 162.859375 199.84375 163.21875 202.257812 163.710938 C 204.667969 164.203125 207.046875 164.84375 209.378906 165.617188 C 210.539062 166.015625 211.691406 166.4375 212.828125 166.90625 C 213.960938 167.375 215.082031 167.875 216.183594 168.417969 C 218.382812 169.503906 220.507812 170.738281 222.523438 172.128906 C 224.539062 173.515625 226.449219 175.054688 228.226562 176.730469 C 230.003906 178.410156 231.652344 180.226562 233.128906 182.167969 C 233.867188 183.136719 234.5625 184.136719 235.207031 185.167969 C 235.527344 185.683594 235.839844 186.207031 236.128906 186.738281 C 236.378906 187.1875 236.621094 187.65625 236.832031 188.113281 C 236.546875 188.546875 236.238281 188.988281 235.921875 189.414062 C 235.558594 189.914062 235.175781 190.402344 234.789062 190.882812 C 234.007812 191.851562 233.1875 192.785156 232.339844 193.695312 C 230.640625 195.507812 228.816406 197.210938 226.894531 198.792969 C 223.050781 201.957031 218.792969 204.628906 214.261719 206.710938 C 209.730469 208.796875 204.925781 210.285156 200.011719 211.171875 C 197.554688 211.609375 195.070312 211.910156 192.574219 212.058594 L 191.636719 212.109375 L 190.703125 212.144531 C 190.078125 212.171875 189.453125 212.175781 188.828125 212.179688 C 188.203125 212.191406 187.578125 212.171875 186.953125 212.171875 C 186.652344 212.164062 186.328125 212.152344 186.015625 212.140625 C 185.707031 212.125 185.402344 212.113281 185.089844 212.089844 C 182.617188 211.910156 180.164062 211.480469 177.824219 210.699219 C 175.484375 209.921875 173.265625 208.796875 171.3125 207.3125 C 169.363281 205.828125 167.691406 203.992188 166.410156 201.910156 C 165.125 199.835938 164.230469 197.519531 163.734375 195.128906 C 162.742188 190.335938 163.339844 185.230469 165.359375 180.769531 C 166.371094 178.539062 167.746094 176.46875 169.429688 174.6875 C 171.113281 172.90625 173.113281 171.421875 175.316406 170.335938 C 177.519531 169.242188 179.917969 168.546875 182.367188 168.226562 C 183.589844 168.066406 184.828125 167.992188 186.066406 168.007812 C 186.683594 168.007812 187.308594 168.042969 187.917969 168.082031 C 188.554688 168.132812 189.15625 168.1875 189.777344 168.269531 C 192.230469 168.589844 194.65625 169.207031 196.898438 170.222656 C 199.144531 171.230469 201.203125 172.644531 202.871094 174.4375 C 204.542969 176.222656 205.808594 178.371094 206.582031 180.691406 C 207.359375 183.007812 207.65625 185.484375 207.492188 187.925781 C 207.324219 190.371094 206.707031 192.789062 205.667969 195.011719 C 204.625 197.234375 203.152344 199.257812 201.3125 200.890625 C 199.476562 202.523438 197.269531 203.738281 194.894531 204.414062 C 192.523438 205.101562 190.003906 205.242188 187.542969 204.960938 C 185.078125 204.683594 182.636719 204.03125 180.480469 202.828125 C 179.40625 202.230469 178.40625 201.496094 177.535156 200.636719 C 176.65625 199.777344 175.914062 198.785156 175.320312 197.714844 C 174.136719 195.566406 173.589844 193.089844 173.65625 190.632812 C 173.714844 188.175781 174.355469 185.726562 175.539062 183.5625 C 176.714844 181.40625 178.476562 179.523438 180.683594 178.398438 C 181.78125 177.839844 182.980469 177.472656 184.207031 177.324219 C 185.382812 177.175781 186.578125 177.234375 187.746094 177.445312 C 187.6875 177.71875 187.644531 177.984375 187.609375 178.253906 C 187.566406 178.582031 187.539062 178.914062 187.523438 179.246094 C 187.492188 179.90625 187.519531 180.574219 187.617188 181.230469 C 187.671875 181.558594 187.734375 181.886719 187.832031 182.207031 C 187.925781 182.527344 188.035156 182.84375 188.1875 183.148438 C 188.332031 183.449219 188.5 183.742188 188.707031 184.011719 C 188.800781 184.148438 188.917969 184.273438 189.027344 184.402344 C 189.148438 184.519531 189.261719 184.644531 189.394531 184.75 C 189.644531 184.976562 189.941406 185.160156 190.21875 185.328125 C 190.515625 185.492188 190.816406 185.644531 191.132812 185.757812 C 191.445312 185.871094 191.769531 185.96875 192.101562 186.027344 C 192.433594 186.089844 192.765625 186.125 193.101562 186.128906 C 193.773438 186.140625 194.445312 186.039062 195.085938 185.855469 C 195.40625 185.761719 195.71875 185.648438 196.027344 185.511719 C 196.285156 185.398438 196.535156 185.269531 196.78125 185.121094 C 197.023438 186.464844 196.972656 187.855469 196.667969 189.1875 C 196.347656 190.566406 195.753906 191.890625 194.894531 193.027344 C 194.464844 193.59375 193.972656 194.113281 193.417969 194.558594 C 192.863281 195.007812 192.246094 195.382812 191.585938 195.660156 C 190.929688 195.941406 190.230469 196.125 189.515625 196.203125 C 188.804688 196.28125 188.082031 196.253906 187.371094 196.144531 C 188.078125 196.265625 188.800781 196.296875 189.519531 196.226562 C 190.234375 196.15625 190.941406 195.984375 191.609375 195.710938 C 192.273438 195.4375 192.898438 195.066406 193.464844 194.621094 C 194.03125 194.175781 194.539062 193.65625 194.976562 193.089844 C 195.859375 191.949219 196.480469 190.621094 196.820312 189.226562 C 197.160156 187.828125 197.21875 186.359375 196.953125 184.941406 C 196.953125 184.929688 196.945312 184.917969 196.941406 184.90625 C 196.910156 184.863281 196.851562 184.847656 196.804688 184.878906 L 196.800781 184.878906 C 196.535156 185.050781 196.238281 185.195312 195.941406 185.324219 C 195.644531 185.453125 195.339844 185.5625 195.027344 185.648438 C 194.402344 185.824219 193.753906 185.914062 193.109375 185.898438 C 192.785156 185.886719 192.464844 185.851562 192.148438 185.792969 C 191.832031 185.734375 191.523438 185.636719 191.222656 185.523438 C 190.917969 185.410156 190.632812 185.261719 190.355469 185.109375 C 190.070312 184.933594 189.808594 184.765625 189.574219 184.546875 C 189.445312 184.449219 189.34375 184.328125 189.230469 184.21875 C 189.128906 184.09375 189.019531 183.980469 188.929688 183.847656 C 188.738281 183.59375 188.582031 183.3125 188.445312 183.023438 C 188.308594 182.738281 188.207031 182.433594 188.117188 182.128906 C 188.027344 181.820312 187.96875 181.503906 187.921875 181.1875 C 187.832031 180.550781 187.8125 179.902344 187.847656 179.261719 C 187.863281 178.9375 187.894531 178.617188 187.9375 178.296875 C 187.984375 177.980469 188.039062 177.65625 188.109375 177.351562 L 188.113281 177.351562 L 188.113281 177.34375 C 188.132812 177.253906 188.070312 177.164062 187.980469 177.144531 C 186.730469 176.890625 185.4375 176.804688 184.164062 176.953125 C 182.890625 177.09375 181.640625 177.464844 180.496094 178.039062 C 178.195312 179.1875 176.355469 181.117188 175.117188 183.335938 C 173.882812 185.558594 173.191406 188.078125 173.117188 190.621094 C 173.035156 193.160156 173.585938 195.738281 174.8125 197.992188 C 175.421875 199.113281 176.199219 200.15625 177.109375 201.058594 C 178.019531 201.964844 179.058594 202.738281 180.175781 203.367188 C 182.417969 204.632812 184.9375 205.316406 187.464844 205.617188 C 190 205.917969 192.613281 205.789062 195.089844 205.089844 C 197.566406 204.398438 199.882812 203.140625 201.808594 201.445312 C 203.738281 199.75 205.285156 197.648438 206.378906 195.34375 C 207.476562 193.035156 208.132812 190.527344 208.320312 187.984375 C 208.503906 185.441406 208.210938 182.855469 207.410156 180.417969 C 206.613281 177.984375 205.292969 175.710938 203.535156 173.828125 C 201.785156 171.9375 199.625 170.445312 197.285156 169.386719 C 194.941406 168.320312 192.433594 167.675781 189.898438 167.335938 C 189.269531 167.25 188.621094 167.1875 188 167.136719 C 187.351562 167.09375 186.71875 167.058594 186.078125 167.054688 C 184.796875 167.035156 183.511719 167.109375 182.238281 167.273438 C 179.695312 167.597656 177.1875 168.320312 174.878906 169.457031 C 172.566406 170.585938 170.464844 172.140625 168.691406 174 C 166.921875 175.859375 165.484375 178.023438 164.429688 180.351562 C 162.3125 185.007812 161.6875 190.320312 162.71875 195.335938 C 163.234375 197.839844 164.171875 200.265625 165.519531 202.453125 C 166.863281 204.644531 168.625 206.578125 170.671875 208.140625 C 172.722656 209.703125 175.050781 210.886719 177.484375 211.695312 C 179.921875 212.511719 182.46875 212.960938 185.015625 213.140625 C 185.335938 213.164062 185.660156 213.175781 185.980469 213.195312 C 186.296875 213.203125 186.601562 213.21875 186.929688 213.222656 C 187.566406 213.226562 188.199219 213.246094 188.835938 213.234375 C 189.46875 213.222656 190.105469 213.222656 190.738281 213.191406 L 191.6875 213.15625 L 192.640625 213.101562 C 195.175781 212.953125 197.699219 212.644531 200.199219 212.195312 C 205.195312 211.289062 210.085938 209.773438 214.695312 207.640625 C 219.308594 205.519531 223.636719 202.796875 227.546875 199.570312 C 229.5 197.960938 231.347656 196.222656 233.074219 194.371094 C 233.9375 193.441406 234.769531 192.488281 235.5625 191.5 C 235.957031 191.003906 236.34375 190.503906 236.71875 189.988281 C 237.097656 189.472656 237.457031 188.964844 237.808594 188.40625 L 237.808594 188.402344 C 237.886719 188.273438 237.90625 188.113281 237.839844 187.96875 " fill-opacity="1" fill-rule="nonzero"/></g><path fill="#292c5d" d="M 181.980469 179.339844 C 182.210938 179.230469 182.335938 179.171875 182.335938 179.171875 C 182.335938 179.171875 182.210938 179.222656 181.972656 179.320312 C 181.855469 179.367188 181.710938 179.425781 181.539062 179.492188 C 181.363281 179.558594 181.183594 179.671875 180.972656 179.777344 C 180.867188 179.835938 180.753906 179.894531 180.640625 179.957031 C 180.519531 180.015625 180.414062 180.101562 180.292969 180.175781 C 180.054688 180.339844 179.78125 180.492188 179.53125 180.710938 C 179.273438 180.921875 178.988281 181.132812 178.726562 181.398438 C 178.59375 181.527344 178.457031 181.660156 178.316406 181.800781 C 178.183594 181.941406 178.054688 182.097656 177.921875 182.25 C 177.640625 182.550781 177.402344 182.90625 177.136719 183.257812 C 177.003906 183.433594 176.898438 183.632812 176.773438 183.824219 C 176.65625 184.019531 176.523438 184.210938 176.421875 184.421875 C 176.316406 184.628906 176.203125 184.839844 176.09375 185.054688 C 175.988281 185.269531 175.898438 185.496094 175.800781 185.722656 C 175.75 185.835938 175.703125 185.949219 175.652344 186.0625 C 175.613281 186.179688 175.574219 186.300781 175.53125 186.417969 C 175.453125 186.660156 175.363281 186.894531 175.296875 187.140625 C 175.007812 188.125 174.832031 189.171875 174.753906 190.242188 C 174.742188 190.511719 174.730469 190.78125 174.71875 191.050781 C 174.722656 191.324219 174.734375 191.59375 174.742188 191.867188 C 174.742188 192.140625 174.785156 192.410156 174.8125 192.679688 C 174.839844 192.953125 174.867188 193.226562 174.925781 193.492188 C 175.109375 194.574219 175.460938 195.621094 175.921875 196.597656 L 176.097656 196.960938 C 176.125 197.019531 176.152344 197.082031 176.1875 197.140625 L 176.289062 197.3125 C 176.425781 197.542969 176.5625 197.773438 176.695312 198 C 176.84375 198.21875 177.003906 198.429688 177.15625 198.640625 C 177.234375 198.746094 177.304688 198.855469 177.390625 198.953125 C 177.476562 199.050781 177.558594 199.148438 177.644531 199.246094 C 178.296875 200.046875 179.089844 200.664062 179.84375 201.222656 C 180.042969 201.347656 180.238281 201.472656 180.433594 201.59375 C 180.628906 201.710938 180.8125 201.84375 181.011719 201.9375 C 181.210938 202.035156 181.402344 202.132812 181.59375 202.230469 C 181.785156 202.324219 181.96875 202.425781 182.164062 202.496094 C 182.542969 202.644531 182.90625 202.800781 183.257812 202.925781 C 183.613281 203.027344 183.953125 203.128906 184.273438 203.222656 C 184.351562 203.246094 184.429688 203.269531 184.507812 203.292969 C 184.585938 203.308594 184.664062 203.324219 184.738281 203.339844 C 184.890625 203.371094 185.039062 203.402344 185.179688 203.433594 C 185.460938 203.492188 185.71875 203.546875 185.949219 203.589844 C 186.894531 203.710938 187.433594 203.777344 187.433594 203.777344 C 187.433594 203.777344 186.898438 203.679688 185.964844 203.511719 C 185.734375 203.457031 185.480469 203.386719 185.203125 203.320312 C 185.066406 203.285156 184.921875 203.246094 184.773438 203.207031 C 184.699219 203.191406 184.625 203.171875 184.546875 203.152344 C 184.472656 203.125 184.394531 203.101562 184.316406 203.074219 C 184.003906 202.964844 183.675781 202.851562 183.328125 202.734375 C 182.984375 202.597656 182.632812 202.4375 182.261719 202.28125 C 182.074219 202.207031 181.894531 202.101562 181.710938 202.003906 C 181.527344 201.90625 181.339844 201.804688 181.148438 201.699219 C 180.953125 201.605469 180.777344 201.46875 180.589844 201.347656 C 180.402344 201.226562 180.214844 201.101562 180.023438 200.972656 C 179.300781 200.40625 178.554688 199.785156 177.925781 199.007812 C 177.84375 198.914062 177.761719 198.820312 177.679688 198.726562 C 177.601562 198.628906 177.53125 198.519531 177.457031 198.417969 C 177.3125 198.210938 177.160156 198.007812 177.019531 197.796875 C 176.890625 197.574219 176.761719 197.351562 176.628906 197.128906 L 176.53125 196.960938 C 176.5 196.902344 176.476562 196.84375 176.449219 196.785156 L 176.28125 196.429688 C 175.84375 195.484375 175.511719 194.464844 175.347656 193.417969 C 175.164062 192.375 175.078125 191.3125 175.148438 190.265625 C 175.21875 189.226562 175.378906 188.203125 175.652344 187.242188 C 175.710938 187 175.800781 186.769531 175.875 186.535156 C 175.914062 186.417969 175.953125 186.304688 175.988281 186.1875 C 176.035156 186.074219 176.078125 185.960938 176.125 185.851562 C 176.214844 185.628906 176.296875 185.40625 176.394531 185.191406 C 176.496094 184.980469 176.597656 184.773438 176.699219 184.566406 C 176.792969 184.355469 176.914062 184.164062 177.023438 183.972656 C 177.140625 183.78125 177.238281 183.585938 177.367188 183.410156 C 177.613281 183.058594 177.839844 182.703125 178.105469 182.402344 C 178.234375 182.246094 178.355469 182.09375 178.480469 181.949219 C 178.613281 181.808594 178.742188 181.675781 178.871094 181.542969 C 179.113281 181.269531 179.386719 181.050781 179.632812 180.832031 C 179.867188 180.605469 180.128906 180.445312 180.355469 180.273438 C 180.472656 180.191406 180.578125 180.105469 180.691406 180.039062 C 180.804688 179.972656 180.910156 179.910156 181.011719 179.851562 C 181.113281 179.789062 181.210938 179.734375 181.300781 179.679688 C 181.390625 179.625 181.476562 179.574219 181.558594 179.539062 C 181.726562 179.460938 181.867188 179.394531 181.980469 179.339844 " fill-opacity="1" fill-rule="nonzero"/><path fill="#292c5d" d="M 176.71875 190.011719 C 176.75 189.730469 176.769531 189.457031 176.816406 189.1875 C 176.894531 188.652344 177.003906 188.136719 177.136719 187.65625 C 177.203125 187.414062 177.269531 187.179688 177.347656 186.957031 C 177.417969 186.734375 177.5 186.523438 177.578125 186.316406 C 177.738281 185.910156 177.902344 185.546875 178.058594 185.226562 C 178.222656 184.910156 178.371094 184.632812 178.507812 184.414062 C 178.640625 184.195312 178.753906 184.027344 178.828125 183.910156 C 178.902344 183.796875 178.945312 183.734375 178.945312 183.734375 C 178.945312 183.734375 178.898438 183.789062 178.808594 183.898438 C 178.722656 184.003906 178.585938 184.15625 178.441406 184.371094 C 178.285156 184.578125 178.113281 184.84375 177.921875 185.148438 C 177.832031 185.304688 177.730469 185.46875 177.636719 185.648438 C 177.542969 185.832031 177.441406 186.019531 177.351562 186.222656 C 177.167969 186.628906 176.980469 187.078125 176.832031 187.566406 C 176.675781 188.054688 176.535156 188.578125 176.445312 189.128906 C 176.347656 189.679688 176.28125 190.257812 176.269531 190.84375 C 176.246094 191.433594 176.277344 192.03125 176.347656 192.625 C 176.421875 193.21875 176.542969 193.808594 176.710938 194.375 C 176.871094 194.941406 177.089844 195.480469 177.335938 195.988281 C 177.570312 196.496094 177.867188 196.953125 178.15625 197.378906 C 178.457031 197.796875 178.765625 198.171875 179.082031 198.492188 C 179.234375 198.652344 179.386719 198.808594 179.542969 198.941406 C 179.691406 199.074219 179.835938 199.207031 179.984375 199.3125 C 180.125 199.425781 180.253906 199.535156 180.382812 199.625 C 180.511719 199.714844 180.632812 199.796875 180.738281 199.871094 C 180.949219 200.019531 181.132812 200.109375 181.25 200.183594 C 181.371094 200.253906 181.433594 200.292969 181.433594 200.292969 C 181.433594 200.292969 181.375 200.246094 181.265625 200.164062 C 181.152344 200.082031 180.984375 199.964844 180.785156 199.800781 C 180.6875 199.722656 180.578125 199.632812 180.457031 199.53125 C 180.335938 199.433594 180.21875 199.316406 180.085938 199.195312 C 179.953125 199.078125 179.820312 198.941406 179.683594 198.796875 C 179.617188 198.722656 179.542969 198.652344 179.472656 198.574219 C 179.402344 198.492188 179.335938 198.414062 179.261719 198.328125 C 178.972656 198 178.699219 197.617188 178.417969 197.203125 C 178.15625 196.78125 177.890625 196.324219 177.675781 195.828125 C 177.554688 195.585938 177.464844 195.324219 177.359375 195.066406 C 177.273438 194.800781 177.175781 194.535156 177.105469 194.261719 C 176.949219 193.714844 176.835938 193.148438 176.769531 192.574219 C 176.695312 192.003906 176.664062 191.421875 176.679688 190.855469 C 176.679688 190.570312 176.707031 190.289062 176.71875 190.011719 " fill-opacity="1" fill-rule="nonzero"/><path fill="#292c5d" d="M 203.492188 208.535156 C 202.957031 208.65625 202.425781 208.789062 201.886719 208.894531 C 200.8125 209.125 199.730469 209.300781 198.644531 209.476562 C 197.558594 209.632812 196.46875 209.777344 195.375 209.875 L 194.554688 209.949219 L 193.730469 210.007812 C 193.183594 210.050781 192.632812 210.070312 192.082031 210.097656 C 191.535156 210.125 190.984375 210.125 190.433594 210.140625 C 189.882812 210.148438 189.332031 210.144531 188.785156 210.144531 C 189.332031 210.15625 189.882812 210.171875 190.433594 210.175781 C 190.984375 210.171875 191.535156 210.183594 192.085938 210.164062 C 192.636719 210.148438 193.1875 210.140625 193.734375 210.109375 L 194.5625 210.066406 L 195.386719 210.007812 C 196.484375 209.929688 197.582031 209.8125 198.671875 209.671875 C 199.21875 209.59375 199.765625 209.523438 200.308594 209.425781 L 201.125 209.289062 L 201.9375 209.132812 C 202.480469 209.03125 203.015625 208.90625 203.554688 208.792969 C 204.089844 208.660156 204.628906 208.542969 205.160156 208.398438 C 206.230469 208.125 207.285156 207.804688 208.335938 207.46875 C 209.382812 207.125 210.421875 206.746094 211.449219 206.34375 C 212.46875 205.929688 213.480469 205.488281 214.476562 205.015625 C 216.464844 204.0625 218.402344 202.996094 220.253906 201.804688 C 222.109375 200.613281 223.894531 199.308594 225.585938 197.902344 C 226.433594 197.195312 227.253906 196.460938 228.050781 195.703125 C 228.847656 194.941406 229.621094 194.160156 230.367188 193.351562 C 231.113281 192.539062 231.832031 191.707031 232.519531 190.847656 C 233.203125 189.984375 233.863281 189.105469 234.457031 188.167969 L 234.460938 188.164062 C 234.488281 188.117188 234.496094 188.054688 234.472656 187.996094 C 234.011719 186.96875 233.464844 186.011719 232.882812 185.066406 C 232.292969 184.128906 231.664062 183.214844 230.992188 182.332031 C 229.652344 180.566406 228.160156 178.917969 226.550781 177.394531 C 224.9375 175.871094 223.203125 174.476562 221.378906 173.21875 C 220.464844 172.589844 219.527344 171.992188 218.570312 171.4375 C 217.609375 170.878906 216.632812 170.351562 215.636719 169.863281 C 214.640625 169.375 213.628906 168.917969 212.601562 168.5 C 211.570312 168.085938 210.535156 167.691406 209.476562 167.347656 C 208.425781 166.996094 207.359375 166.683594 206.285156 166.40625 C 205.214844 166.117188 204.132812 165.882812 203.042969 165.65625 C 201.957031 165.449219 200.863281 165.253906 199.765625 165.101562 L 198.941406 164.988281 L 198.113281 164.894531 C 197.566406 164.824219 197.011719 164.777344 196.460938 164.722656 C 195.355469 164.625 194.25 164.558594 193.140625 164.511719 L 191.480469 164.460938 L 189.816406 164.453125 L 191.480469 164.480469 L 193.140625 164.546875 C 194.246094 164.605469 195.351562 164.683594 196.453125 164.796875 C 197.003906 164.855469 197.554688 164.910156 198.101562 164.984375 L 198.925781 165.089844 L 199.746094 165.210938 C 200.84375 165.371094 201.929688 165.578125 203.015625 165.796875 C 207.339844 166.71875 211.570312 168.117188 215.523438 170.089844 C 216.507812 170.582031 217.476562 171.113281 218.425781 171.675781 C 219.375 172.234375 220.304688 172.832031 221.207031 173.464844 C 223.011719 174.722656 224.722656 176.121094 226.3125 177.640625 C 227.898438 179.160156 229.375 180.800781 230.699219 182.550781 C 231.359375 183.425781 231.984375 184.332031 232.5625 185.261719 C 233.121094 186.164062 233.648438 187.097656 234.078125 188.054688 C 233.511719 188.929688 232.871094 189.78125 232.210938 190.605469 C 231.527344 191.453125 230.8125 192.277344 230.066406 193.078125 C 228.582031 194.679688 226.988281 196.175781 225.3125 197.582031 C 223.640625 198.984375 221.875 200.285156 220.039062 201.472656 C 218.203125 202.664062 216.289062 203.730469 214.316406 204.683594 C 212.339844 205.628906 210.308594 206.460938 208.234375 207.167969 C 207.195312 207.511719 206.148438 207.84375 205.085938 208.125 C 204.5625 208.277344 204.023438 208.398438 203.492188 208.535156 " fill-opacity="1" fill-rule="nonzero"/><path fill="#292c5d" d="M 229.023438 191.136719 C 228.578125 191.648438 228.128906 192.160156 227.65625 192.652344 C 227.425781 192.902344 227.1875 193.148438 226.949219 193.386719 C 226.710938 193.632812 226.46875 193.875 226.226562 194.109375 C 225.984375 194.351562 225.738281 194.585938 225.488281 194.816406 C 225.242188 195.054688 224.992188 195.285156 224.734375 195.507812 C 224.230469 195.96875 223.710938 196.410156 223.183594 196.84375 L 222.390625 197.488281 L 221.578125 198.109375 C 221.308594 198.320312 221.027344 198.515625 220.753906 198.714844 C 220.480469 198.917969 220.199219 199.113281 219.914062 199.304688 C 219.355469 199.695312 218.78125 200.058594 218.207031 200.429688 C 217.917969 200.613281 217.625 200.789062 217.332031 200.964844 L 216.894531 201.234375 L 216.449219 201.488281 L 215.558594 201.992188 L 214.648438 202.46875 C 214.351562 202.632812 214.042969 202.78125 213.734375 202.929688 C 213.425781 203.078125 213.121094 203.230469 212.808594 203.375 C 212.183594 203.648438 211.566406 203.945312 210.929688 204.195312 L 209.980469 204.589844 L 209.015625 204.949219 C 208.378906 205.199219 207.722656 205.398438 207.074219 205.621094 C 206.421875 205.832031 205.757812 206.019531 205.101562 206.21875 L 206.101562 205.964844 C 206.433594 205.875 206.769531 205.800781 207.09375 205.695312 C 207.753906 205.496094 208.414062 205.3125 209.0625 205.078125 L 210.039062 204.75 L 211.003906 204.382812 C 211.328125 204.261719 211.648438 204.136719 211.960938 204 L 212.910156 203.597656 C 213.226562 203.457031 213.535156 203.308594 213.847656 203.164062 C 214.160156 203.019531 214.472656 202.878906 214.777344 202.71875 L 215.699219 202.253906 L 217.058594 201.515625 L 217.507812 201.253906 C 217.800781 201.082031 218.101562 200.910156 218.394531 200.730469 C 218.976562 200.363281 219.558594 200 220.125 199.609375 C 220.414062 199.417969 220.695312 199.222656 220.972656 199.019531 C 221.253906 198.816406 221.535156 198.621094 221.808594 198.414062 L 222.632812 197.792969 L 223.4375 197.148438 C 223.96875 196.710938 224.496094 196.269531 225.007812 195.8125 C 225.269531 195.585938 225.523438 195.355469 225.773438 195.117188 C 226.027344 194.886719 226.277344 194.652344 226.519531 194.410156 C 226.769531 194.171875 227.015625 193.929688 227.25 193.679688 C 227.492188 193.4375 227.730469 193.1875 227.964844 192.933594 C 228.433594 192.433594 228.886719 191.917969 229.332031 191.394531 C 229.773438 190.867188 230.207031 190.332031 230.621094 189.785156 C 231.035156 189.234375 231.433594 188.679688 231.808594 188.089844 L 231.808594 188.085938 C 231.839844 188.039062 231.84375 187.976562 231.820312 187.917969 C 231.558594 187.332031 231.265625 186.777344 230.953125 186.226562 C 230.636719 185.679688 230.304688 185.144531 229.957031 184.617188 C 229.605469 184.089844 229.246094 183.574219 228.867188 183.070312 C 228.488281 182.5625 228.09375 182.070312 227.691406 181.589844 C 227.28125 181.105469 226.867188 180.632812 226.433594 180.171875 C 226.222656 179.9375 226 179.714844 225.78125 179.488281 C 225.5625 179.261719 225.339844 179.039062 225.109375 178.820312 C 224.660156 178.378906 224.191406 177.957031 223.722656 177.535156 L 223.003906 176.921875 C 222.761719 176.71875 222.511719 176.523438 222.265625 176.328125 C 222.023438 176.125 221.773438 175.9375 221.519531 175.746094 C 221.265625 175.558594 221.019531 175.363281 220.757812 175.183594 L 219.984375 174.640625 C 219.726562 174.460938 219.457031 174.292969 219.195312 174.121094 C 218.671875 173.765625 218.121094 173.457031 217.582031 173.128906 C 217.3125 172.96875 217.03125 172.820312 216.757812 172.667969 C 216.480469 172.515625 216.207031 172.359375 215.921875 172.21875 L 215.082031 171.792969 C 214.800781 171.648438 214.507812 171.523438 214.226562 171.386719 C 213.9375 171.257812 213.65625 171.117188 213.363281 170.996094 L 212.492188 170.628906 L 212.054688 170.445312 L 211.613281 170.277344 L 210.730469 169.945312 C 210.136719 169.734375 209.535156 169.542969 208.9375 169.34375 C 209.527344 169.558594 210.125 169.761719 210.714844 169.988281 L 212.027344 170.515625 L 212.460938 170.707031 L 213.324219 171.085938 C 213.609375 171.214844 213.890625 171.359375 214.175781 171.492188 C 214.453125 171.632812 214.742188 171.761719 215.019531 171.910156 L 215.851562 172.351562 C 216.132812 172.496094 216.402344 172.65625 216.675781 172.8125 C 216.945312 172.96875 217.21875 173.125 217.488281 173.285156 C 218.019531 173.621094 218.558594 173.941406 219.074219 174.296875 C 219.335938 174.476562 219.601562 174.644531 219.855469 174.824219 L 220.617188 175.375 C 220.875 175.554688 221.117188 175.753906 221.367188 175.941406 C 221.617188 176.132812 221.863281 176.324219 222.105469 176.523438 C 222.34375 176.726562 222.589844 176.921875 222.828125 177.125 L 223.535156 177.742188 C 223.996094 178.164062 224.457031 178.589844 224.898438 179.035156 C 225.125 179.25 225.34375 179.472656 225.558594 179.703125 C 225.773438 179.929688 225.992188 180.152344 226.199219 180.386719 C 226.621094 180.847656 227.03125 181.320312 227.425781 181.804688 C 227.824219 182.285156 228.207031 182.777344 228.578125 183.28125 C 228.953125 183.78125 229.304688 184.296875 229.648438 184.816406 C 229.988281 185.335938 230.320312 185.867188 230.625 186.410156 C 230.914062 186.921875 231.191406 187.445312 231.425781 187.976562 C 231.082031 188.511719 230.699219 189.039062 230.308594 189.550781 C 229.894531 190.089844 229.464844 190.617188 229.023438 191.136719 " fill-opacity="1" fill-rule="nonzero"/><path fill="#292c5d" d="M 165.402344 167.304688 C 166.113281 167.0625 166.832031 166.84375 167.550781 166.632812 C 166.824219 166.828125 166.105469 167.035156 165.390625 167.261719 C 164.671875 167.488281 163.960938 167.722656 163.257812 167.984375 C 162.550781 168.238281 161.855469 168.519531 161.160156 168.804688 C 160.472656 169.097656 159.78125 169.398438 159.105469 169.722656 C 158.425781 170.042969 157.757812 170.386719 157.09375 170.738281 C 156.433594 171.09375 155.78125 171.460938 155.136719 171.851562 C 153.851562 172.628906 152.605469 173.46875 151.40625 174.375 C 149.007812 176.179688 146.796875 178.234375 144.835938 180.507812 C 143.855469 181.640625 142.9375 182.832031 142.101562 184.078125 C 141.683594 184.703125 141.285156 185.339844 140.90625 185.988281 C 140.53125 186.640625 140.179688 187.296875 139.871094 187.996094 C 139.847656 188.050781 139.847656 188.113281 139.882812 188.164062 L 139.882812 188.167969 C 140.058594 188.449219 140.238281 188.71875 140.425781 188.988281 C 140.609375 189.257812 140.800781 189.523438 140.992188 189.785156 C 141.1875 190.046875 141.382812 190.308594 141.585938 190.566406 C 141.78125 190.824219 141.984375 191.082031 142.195312 191.328125 C 142.402344 191.578125 142.617188 191.828125 142.832031 192.070312 C 143.046875 192.316406 143.261719 192.5625 143.484375 192.800781 C 143.703125 193.042969 143.921875 193.285156 144.148438 193.519531 L 144.824219 194.222656 C 145.054688 194.457031 145.289062 194.683594 145.519531 194.910156 C 145.753906 195.136719 145.992188 195.363281 146.234375 195.578125 L 146.960938 196.234375 L 147.703125 196.871094 C 147.949219 197.082031 148.191406 197.300781 148.453125 197.496094 L 149.21875 198.101562 C 149.472656 198.304688 149.742188 198.492188 150.003906 198.6875 L 150.792969 199.257812 L 150.050781 198.625 C 149.804688 198.414062 149.550781 198.214844 149.308594 197.992188 C 148.828125 197.558594 148.335938 197.136719 147.863281 196.691406 L 147.152344 196.03125 L 146.457031 195.347656 C 146.222656 195.125 145.996094 194.894531 145.773438 194.660156 C 145.546875 194.429688 145.316406 194.203125 145.09375 193.96875 L 144.429688 193.261719 C 144.207031 193.023438 143.996094 192.78125 143.777344 192.539062 C 143.5625 192.300781 143.351562 192.054688 143.144531 191.808594 C 142.929688 191.5625 142.726562 191.316406 142.523438 191.0625 C 142.320312 190.8125 142.113281 190.566406 141.914062 190.308594 C 141.710938 190.058594 141.515625 189.800781 141.320312 189.546875 C 141.125 189.289062 140.933594 189.03125 140.746094 188.765625 C 140.578125 188.53125 140.414062 188.292969 140.261719 188.050781 C 140.546875 187.417969 140.882812 186.785156 141.230469 186.171875 C 141.601562 185.527344 141.992188 184.898438 142.40625 184.28125 C 143.234375 183.046875 144.136719 181.863281 145.097656 180.726562 C 147.019531 178.453125 149.199219 176.394531 151.566406 174.578125 C 153.933594 172.761719 156.488281 171.183594 159.171875 169.859375 C 159.839844 169.527344 160.523438 169.214844 161.207031 168.914062 C 161.894531 168.617188 162.585938 168.328125 163.289062 168.0625 C 163.984375 167.792969 164.695312 167.546875 165.402344 167.304688 " fill-opacity="1" fill-rule="nonzero"/><path fill="#292c5d" d="M 144.09375 185.761719 C 144.546875 185.011719 145.027344 184.28125 145.535156 183.570312 C 145.792969 183.214844 146.054688 182.863281 146.324219 182.519531 C 146.59375 182.175781 146.867188 181.832031 147.148438 181.496094 C 147.425781 181.160156 147.71875 180.832031 148.011719 180.503906 C 148.304688 180.179688 148.601562 179.855469 148.90625 179.539062 C 149.207031 179.222656 149.523438 178.914062 149.835938 178.609375 C 150.152344 178.304688 150.46875 178 150.796875 177.710938 C 151.121094 177.410156 151.457031 177.128906 151.789062 176.839844 C 152.125 176.558594 152.464844 176.273438 152.808594 176.003906 C 153.15625 175.734375 153.5 175.460938 153.859375 175.203125 C 154.210938 174.9375 154.570312 174.6875 154.933594 174.4375 C 155.292969 174.179688 155.667969 173.949219 156.03125 173.703125 C 156.402344 173.460938 156.78125 173.234375 157.15625 173 C 156.773438 173.222656 156.386719 173.4375 156.007812 173.664062 C 155.636719 173.898438 155.253906 174.117188 154.886719 174.367188 C 154.515625 174.605469 154.148438 174.851562 153.789062 175.109375 C 153.425781 175.355469 153.070312 175.621094 152.714844 175.886719 C 152.363281 176.148438 152.015625 176.421875 151.667969 176.695312 C 151.328125 176.980469 150.984375 177.253906 150.652344 177.546875 C 150.316406 177.835938 149.992188 178.136719 149.667969 178.433594 C 149.347656 178.738281 149.027344 179.042969 148.714844 179.355469 C 148.402344 179.667969 148.097656 179.988281 147.792969 180.308594 C 147.496094 180.636719 147.199219 180.960938 146.914062 181.300781 C 146.621094 181.632812 146.34375 181.976562 146.066406 182.320312 C 145.789062 182.664062 145.523438 183.015625 145.257812 183.371094 C 144.734375 184.082031 144.238281 184.816406 143.777344 185.570312 C 143.546875 185.949219 143.320312 186.332031 143.109375 186.71875 C 142.898438 187.113281 142.699219 187.5 142.515625 187.917969 C 142.492188 187.96875 142.492188 188.03125 142.523438 188.085938 L 142.527344 188.09375 C 142.660156 188.320312 142.800781 188.53125 142.949219 188.742188 C 143.089844 188.957031 143.242188 189.164062 143.394531 189.375 C 143.542969 189.578125 143.707031 189.78125 143.863281 189.984375 C 144.015625 190.1875 144.1875 190.378906 144.351562 190.574219 C 144.515625 190.773438 144.679688 190.96875 144.859375 191.152344 C 145.03125 191.34375 145.207031 191.53125 145.386719 191.714844 C 145.558594 191.902344 145.753906 192.074219 145.9375 192.25 C 146.125 192.425781 146.3125 192.601562 146.503906 192.769531 C 146.203125 192.355469 145.886719 191.957031 145.574219 191.550781 C 145.421875 191.347656 145.265625 191.144531 145.109375 190.949219 C 144.953125 190.75 144.800781 190.542969 144.644531 190.339844 C 144.492188 190.140625 144.339844 189.941406 144.1875 189.734375 C 144.035156 189.53125 143.882812 189.332031 143.734375 189.125 C 143.589844 188.917969 143.433594 188.71875 143.289062 188.511719 C 143.164062 188.332031 143.039062 188.152344 142.917969 187.972656 C 143.078125 187.613281 143.257812 187.25 143.449219 186.898438 C 143.652344 186.515625 143.871094 186.136719 144.09375 185.761719 " fill-opacity="1" fill-rule="nonzero"/><g fill="#292c5d" fill-opacity="1"><g transform="translate(123.033023, 115.986122)"><g><path d="M 6.09375 -5.046875 L 1.546875 -1.28125 L -6.75 -11.296875 L -2.359375 -14.9375 L -1.59375 -14 L -4.90625 -11.25 L -1.96875 -7.71875 L 0.71875 -9.953125 L 1.484375 -9.03125 L -1.203125 -6.796875 L 1.859375 -3.09375 L 5.328125 -5.96875 Z M 6.09375 -5.046875 "/></g></g></g><g fill="#292c5d" fill-opacity="1"><g transform="translate(129.429366, 110.616713)"><g><path d="M 5.5 -6.78125 C 6.550781 -5.238281 6.144531 -3.832031 4.28125 -2.5625 C 2.414062 -1.289062 0.957031 -1.425781 -0.09375 -2.96875 L -1.0625 -4.375 L 0.09375 -5.15625 L 1.109375 -3.6875 C 1.367188 -3.289062 1.710938 -3.078125 2.140625 -3.046875 C 2.566406 -3.023438 3.046875 -3.195312 3.578125 -3.5625 C 4.117188 -3.925781 4.453125 -4.3125 4.578125 -4.71875 C 4.703125 -5.125 4.632812 -5.515625 4.375 -5.890625 C 4.125 -6.273438 3.878906 -6.550781 3.640625 -6.71875 C 3.410156 -6.882812 3.085938 -7.007812 2.671875 -7.09375 L -2.1875 -7.953125 C -2.757812 -8.066406 -3.222656 -8.238281 -3.578125 -8.46875 C -3.929688 -8.707031 -4.273438 -9.078125 -4.609375 -9.578125 C -5.117188 -10.316406 -5.273438 -11.039062 -5.078125 -11.75 C -4.890625 -12.457031 -4.335938 -13.125 -3.421875 -13.75 C -1.648438 -14.96875 -0.238281 -14.8125 0.8125 -13.28125 L 1.765625 -11.875 L 0.609375 -11.078125 L -0.390625 -12.546875 C -0.660156 -12.941406 -1 -13.160156 -1.40625 -13.203125 C -1.820312 -13.242188 -2.285156 -13.085938 -2.796875 -12.734375 C -3.316406 -12.378906 -3.628906 -12.003906 -3.734375 -11.609375 C -3.847656 -11.210938 -3.773438 -10.820312 -3.515625 -10.4375 C -3.253906 -10.050781 -3.007812 -9.773438 -2.78125 -9.609375 C -2.550781 -9.441406 -2.21875 -9.328125 -1.78125 -9.265625 L 3.109375 -8.453125 C 3.671875 -8.316406 4.125 -8.128906 4.46875 -7.890625 C 4.8125 -7.648438 5.15625 -7.28125 5.5 -6.78125 Z M 5.5 -6.78125 "/></g></g></g><g fill="#292c5d" fill-opacity="1"><g transform="translate(137.183204, 105.302991)"><g><path d="M 2.796875 -1.546875 L 1.578125 -0.875 L -4.71875 -12.25 L -2.09375 -13.703125 C -1.175781 -14.210938 -0.363281 -14.378906 0.34375 -14.203125 C 1.0625 -14.035156 1.628906 -13.566406 2.046875 -12.796875 L 3.703125 -9.8125 C 4.140625 -9.03125 4.242188 -8.300781 4.015625 -7.625 C 3.785156 -6.945312 3.203125 -6.347656 2.265625 -5.828125 L 0.859375 -5.046875 Z M 2.46875 -9.140625 L 0.8125 -12.125 C 0.570312 -12.5625 0.253906 -12.828125 -0.140625 -12.921875 C -0.546875 -13.015625 -1.003906 -12.921875 -1.515625 -12.640625 L -2.921875 -11.859375 L 0.28125 -6.09375 L 1.6875 -6.875 C 2.726562 -7.457031 2.988281 -8.210938 2.46875 -9.140625 Z M 2.46875 -9.140625 "/></g></g></g><g fill="#292c5d" fill-opacity="1"><g transform="translate(144.734712, 101.081003)"><g><path d="M -1.8125 -13.40625 L 0.109375 -14.25 L 8.046875 -3.53125 L 6.75 -2.96875 L 4.9375 -5.453125 L 1.421875 -3.90625 L 2.015625 -0.890625 L 0.734375 -0.328125 Z M -0.234375 -12.390625 L 1.1875 -5.109375 L 4.1875 -6.421875 Z M -0.234375 -12.390625 "/></g></g></g><g fill="#292c5d" fill-opacity="1"><g transform="translate(152.974327, 97.422842)"><g><path d="M 5.78125 -4.546875 L 5.4375 -5.578125 L 6.75 -6.015625 L 7.09375 -4.984375 C 7.375 -4.128906 7.328125 -3.382812 6.953125 -2.75 C 6.585938 -2.125 5.882812 -1.640625 4.84375 -1.296875 C 3.8125 -0.953125 2.953125 -0.921875 2.265625 -1.203125 C 1.585938 -1.484375 1.109375 -2.050781 0.828125 -2.90625 L -1.6875 -10.5 C -1.96875 -11.351562 -1.921875 -12.09375 -1.546875 -12.71875 C -1.179688 -13.351562 -0.476562 -13.84375 0.5625 -14.1875 C 1.601562 -14.53125 2.460938 -14.5625 3.140625 -14.28125 C 3.816406 -14 4.296875 -13.429688 4.578125 -12.578125 L 5.171875 -10.765625 L 3.859375 -10.328125 L 3.265625 -12.140625 C 2.929688 -13.148438 2.160156 -13.453125 0.953125 -13.046875 C -0.253906 -12.648438 -0.691406 -11.945312 -0.359375 -10.9375 L 2.15625 -3.34375 C 2.488281 -2.332031 3.257812 -2.023438 4.46875 -2.421875 C 5.675781 -2.828125 6.113281 -3.535156 5.78125 -4.546875 Z M 5.78125 -4.546875 "/></g></g></g><g fill="#292c5d" fill-opacity="1"><g transform="translate(161.846981, 94.545332)"><g><path d="M 4.375 -2.3125 L 4.65625 -1.140625 L 1.359375 -0.328125 L 1.078125 -1.5 L 2.0625 -1.75 L -0.46875 -12.03125 L -1.453125 -11.78125 L -1.734375 -12.953125 L 1.5625 -13.765625 L 1.84375 -12.59375 L 0.875 -12.359375 L 3.40625 -2.078125 Z M 4.375 -2.3125 "/></g></g></g><g fill="#292c5d" fill-opacity="1"><g transform="translate(167.381578, 93.084194)"><g><path d="M 6.71875 -11.71875 L 7.984375 -3.828125 C 8.128906 -2.941406 7.957031 -2.210938 7.46875 -1.640625 C 6.988281 -1.078125 6.191406 -0.703125 5.078125 -0.515625 C 3.972656 -0.335938 3.097656 -0.441406 2.453125 -0.828125 C 1.816406 -1.210938 1.425781 -1.847656 1.28125 -2.734375 L 0.015625 -10.625 C -0.128906 -11.507812 0.0351562 -12.238281 0.515625 -12.8125 C 0.992188 -13.382812 1.785156 -13.757812 2.890625 -13.9375 C 4.003906 -14.113281 4.882812 -14.007812 5.53125 -13.625 C 6.175781 -13.238281 6.570312 -12.601562 6.71875 -11.71875 Z M 6.59375 -3.609375 L 5.328125 -11.5 C 5.148438 -12.550781 4.398438 -12.96875 3.078125 -12.75 C 1.765625 -12.539062 1.195312 -11.910156 1.375 -10.859375 L 2.640625 -2.96875 C 2.816406 -1.914062 3.5625 -1.492188 4.875 -1.703125 C 6.195312 -1.921875 6.769531 -2.554688 6.59375 -3.609375 Z M 6.59375 -3.609375 "/></g></g></g><g fill="#292c5d" fill-opacity="1"><g transform="translate(177.030389, 91.607508)"><g/></g></g><g fill="#292c5d" fill-opacity="1"><g transform="translate(181.341577, 91.220339)"><g/></g></g><g fill="#292c5d" fill-opacity="1"><g transform="translate(185.520781, 90.939094)"><g><path d="M 4.078125 -12.90625 L 6.1875 -12.84375 L 8.78125 0.234375 L 7.375 0.1875 L 6.78125 -2.828125 L 2.953125 -2.921875 L 2.203125 0.0625 L 0.796875 0.015625 Z M 5.078125 -11.3125 L 3.25 -4.125 L 6.53125 -4.03125 Z M 5.078125 -11.3125 "/></g></g></g><g fill="#292c5d" fill-opacity="1"><g transform="translate(194.535881, 91.147082)"><g><path d="M 3.375 0.40625 L 1.984375 0.234375 L 3.546875 -12.671875 L 6.546875 -12.296875 C 7.578125 -12.171875 8.332031 -11.832031 8.8125 -11.28125 C 9.289062 -10.726562 9.476562 -10.015625 9.375 -9.140625 L 9.03125 -6.375 C 8.863281 -5.007812 8.175781 -4.210938 6.96875 -3.984375 L 8.84375 1.078125 L 7.3125 0.890625 L 5.53125 -3.953125 L 3.921875 -4.15625 Z M 7.640625 -6.546875 L 7.984375 -9.3125 C 8.035156 -9.8125 7.925781 -10.21875 7.65625 -10.53125 C 7.382812 -10.84375 6.96875 -11.03125 6.40625 -11.09375 L 4.796875 -11.296875 L 4.078125 -5.34375 L 5.6875 -5.140625 C 6.863281 -5.003906 7.515625 -5.472656 7.640625 -6.546875 Z M 7.640625 -6.546875 "/></g></g></g><g fill="#292c5d" fill-opacity="1"><g transform="translate(203.652645, 92.271721)"><g><path d="M 9.71875 -11.25 L 9.46875 -10.078125 L 6.921875 -10.609375 L 4.5 0.9375 L 3.140625 0.65625 L 5.5625 -10.890625 L 3 -11.421875 L 3.25 -12.59375 Z M 9.71875 -11.25 "/></g></g></g><g fill="#292c5d" fill-opacity="1"><g transform="translate(210.88044, 93.799393)"><g><path d="M 4.9375 0.140625 L 4.609375 1.296875 L 1.359375 0.375 L 1.6875 -0.78125 L 2.640625 -0.5 L 5.515625 -10.703125 L 4.5625 -10.984375 L 4.890625 -12.140625 L 8.140625 -11.21875 L 7.8125 -10.0625 L 6.859375 -10.328125 L 3.984375 -0.125 Z M 9 -13.9375 L 8.0625 -13.40625 L 5.578125 -12.921875 L 5.234375 -13.578125 L 8.25 -15.265625 Z M 9 -13.9375 "/></g></g></g><g fill="#292c5d" fill-opacity="1"><g transform="translate(216.420585, 95.265086)"><g><path d="M 8.703125 0.546875 C 8.054688 2.296875 6.675781 2.78125 4.5625 2 C 2.445312 1.21875 1.710938 -0.046875 2.359375 -1.796875 L 2.953125 -3.390625 L 4.265625 -2.890625 L 3.65625 -1.21875 C 3.488281 -0.769531 3.515625 -0.363281 3.734375 0 C 3.953125 0.363281 4.363281 0.65625 4.96875 0.875 C 5.582031 1.101562 6.09375 1.148438 6.5 1.015625 C 6.90625 0.878906 7.1875 0.59375 7.34375 0.15625 C 7.5 -0.269531 7.582031 -0.625 7.59375 -0.90625 C 7.601562 -1.195312 7.515625 -1.539062 7.328125 -1.9375 L 5.21875 -6.375 C 4.976562 -6.914062 4.851562 -7.394531 4.84375 -7.8125 C 4.832031 -8.238281 4.929688 -8.734375 5.140625 -9.296875 C 5.453125 -10.140625 5.953125 -10.691406 6.640625 -10.953125 C 7.328125 -11.210938 8.191406 -11.144531 9.234375 -10.75 C 11.253906 -10.007812 11.941406 -8.765625 11.296875 -7.015625 L 10.703125 -5.421875 L 9.390625 -5.90625 L 10.015625 -7.578125 C 10.179688 -8.023438 10.160156 -8.425781 9.953125 -8.78125 C 9.742188 -9.144531 9.34375 -9.4375 8.75 -9.65625 C 8.164062 -9.875 7.679688 -9.910156 7.296875 -9.765625 C 6.921875 -9.617188 6.648438 -9.328125 6.484375 -8.890625 C 6.328125 -8.460938 6.242188 -8.101562 6.234375 -7.8125 C 6.234375 -7.53125 6.332031 -7.195312 6.53125 -6.8125 L 8.703125 -2.34375 C 8.921875 -1.8125 9.03125 -1.335938 9.03125 -0.921875 C 9.03125 -0.503906 8.921875 -0.015625 8.703125 0.546875 Z M 8.703125 0.546875 "/></g></g></g><g fill="#292c5d" fill-opacity="1"><g transform="translate(225.264976, 98.559504)"><g><path d="M 12.0625 -8.671875 L 11.546875 -7.59375 L 9.1875 -8.71875 L 4.15625 1.953125 L 2.890625 1.375 L 7.921875 -9.296875 L 5.5625 -10.421875 L 6.078125 -11.5 Z M 12.0625 -8.671875 "/></g></g></g><g fill="#292c5d" fill-opacity="1"><g transform="translate(231.939551, 101.726226)"><g><path d="M 4.78125 1.296875 L 4.1875 2.34375 L 1.234375 0.6875 L 1.828125 -0.359375 L 2.6875 0.125 L 7.84375 -9.125 L 6.984375 -9.609375 L 7.578125 -10.65625 L 10.53125 -9 L 9.9375 -7.953125 L 9.0625 -8.4375 L 3.90625 0.8125 Z M 4.78125 1.296875 "/></g></g></g><g fill="#292c5d" fill-opacity="1"><g transform="translate(236.988681, 104.446233)"><g><path d="M 7.140625 1.75 L 7.75 0.84375 L 8.90625 1.609375 L 8.296875 2.515625 C 7.796875 3.253906 7.179688 3.675781 6.453125 3.78125 C 5.722656 3.882812 4.90625 3.632812 4 3.03125 C 3.09375 2.425781 2.539062 1.765625 2.34375 1.046875 C 2.15625 0.328125 2.3125 -0.398438 2.8125 -1.140625 L 7.25 -7.796875 C 7.738281 -8.546875 8.34375 -8.96875 9.0625 -9.0625 C 9.789062 -9.15625 10.609375 -8.898438 11.515625 -8.296875 C 12.429688 -7.691406 12.984375 -7.035156 13.171875 -6.328125 C 13.367188 -5.617188 13.222656 -4.890625 12.734375 -4.140625 L 11.671875 -2.5625 L 10.515625 -3.328125 L 11.578125 -4.90625 C 12.160156 -5.789062 11.921875 -6.582031 10.859375 -7.28125 C 9.804688 -7.988281 8.988281 -7.898438 8.40625 -7.015625 L 3.96875 -0.359375 C 3.375 0.523438 3.601562 1.316406 4.65625 2.015625 C 5.71875 2.722656 6.546875 2.632812 7.140625 1.75 Z M 7.140625 1.75 "/></g></g></g><g fill="#292c5d" fill-opacity="1"><g transform="translate(244.680996, 109.523271)"><g><path d="M 13.234375 -2.734375 L 8.15625 3.453125 C 7.59375 4.148438 6.9375 4.503906 6.1875 4.515625 C 5.445312 4.523438 4.640625 4.175781 3.765625 3.46875 C 2.890625 2.757812 2.382812 2.035156 2.25 1.296875 C 2.113281 0.554688 2.328125 -0.160156 2.890625 -0.859375 L 7.96875 -7.046875 C 8.53125 -7.742188 9.1875 -8.097656 9.9375 -8.109375 C 10.6875 -8.128906 11.492188 -7.78125 12.359375 -7.0625 C 13.234375 -6.351562 13.738281 -5.628906 13.875 -4.890625 C 14.007812 -4.148438 13.796875 -3.429688 13.234375 -2.734375 Z M 7.0625 2.5625 L 12.140625 -3.625 C 12.804688 -4.445312 12.625 -5.28125 11.59375 -6.125 C 10.5625 -6.976562 9.710938 -6.992188 9.046875 -6.171875 L 3.96875 0.015625 C 3.300781 0.835938 3.484375 1.671875 4.515625 2.515625 C 5.546875 3.367188 6.394531 3.382812 7.0625 2.5625 Z M 7.0625 2.5625 "/></g></g></g><g fill="#292c5d" fill-opacity="1"><g transform="translate(105.614439, 267.582563)"><g><path d="M 2.46875 2.5625 L 1.453125 1.5 L 11.28125 -7.984375 L 15.296875 -3.8125 L 14.390625 -2.921875 L 11.390625 -6.03125 L 7.90625 -2.6875 L 10.3125 -0.1875 L 9.40625 0.6875 L 7 -1.8125 Z M 2.46875 2.5625 "/></g></g></g><g fill="#292c5d" fill-opacity="1"><g transform="translate(112.079377, 274.228406)"><g><path d="M 1.5625 1.390625 L 10.59375 -8.84375 L 11.703125 -7.875 L 3.515625 1.40625 L 6.390625 3.953125 L 5.546875 4.90625 Z M 1.5625 1.390625 "/></g></g></g><g fill="#292c5d" fill-opacity="1"><g transform="translate(118.401592, 279.855291)"><g><path d="M 13.71875 -3.640625 L 8.75 3.140625 C 8.195312 3.898438 7.53125 4.3125 6.75 4.375 C 5.96875 4.4375 5.097656 4.117188 4.140625 3.421875 C 3.191406 2.722656 2.625 1.988281 2.4375 1.21875 C 2.25 0.445312 2.429688 -0.316406 2.984375 -1.078125 L 7.953125 -7.859375 C 8.503906 -8.609375 9.171875 -9.007812 9.953125 -9.0625 C 10.734375 -9.125 11.601562 -8.804688 12.5625 -8.109375 C 13.519531 -7.410156 14.085938 -6.675781 14.265625 -5.90625 C 14.453125 -5.144531 14.269531 -4.390625 13.71875 -3.640625 Z M 7.5625 2.28125 L 12.53125 -4.5 C 13.1875 -5.394531 12.945312 -6.253906 11.8125 -7.078125 C 10.6875 -7.910156 9.796875 -7.878906 9.140625 -6.984375 L 4.171875 -0.203125 C 3.503906 0.710938 3.734375 1.582031 4.859375 2.40625 C 5.992188 3.238281 6.894531 3.195312 7.5625 2.28125 Z M 7.5625 2.28125 "/></g></g></g><g fill="#292c5d" fill-opacity="1"><g transform="translate(127.640864, 286.561948)"><g><path d="M 3.078125 1.796875 L 1.8125 1.0625 L 8.71875 -10.71875 L 11.453125 -9.125 C 12.390625 -8.570312 12.96875 -7.925781 13.1875 -7.1875 C 13.414062 -6.445312 13.296875 -5.675781 12.828125 -4.875 L 11.34375 -2.34375 C 10.625 -1.113281 9.640625 -0.644531 8.390625 -0.9375 L 8.0625 4.71875 L 6.671875 3.90625 L 6.984375 -1.515625 L 5.515625 -2.375 Z M 10.078125 -3.09375 L 11.5625 -5.625 C 11.84375 -6.09375 11.914062 -6.53125 11.78125 -6.9375 C 11.65625 -7.351562 11.332031 -7.71875 10.8125 -8.03125 L 9.34375 -8.890625 L 6.15625 -3.453125 L 7.625 -2.59375 C 8.695312 -1.957031 9.515625 -2.125 10.078125 -3.09375 Z M 10.078125 -3.09375 "/></g></g></g><g fill="#292c5d" fill-opacity="1"><g transform="translate(137.022634, 292.000979)"><g><path d="M 7.53125 3.5 L 1.90625 0.875 L 7.65625 -11.515625 L 13.078125 -8.984375 L 12.546875 -7.828125 L 8.453125 -9.734375 L 6.421875 -5.359375 L 9.765625 -3.8125 L 9.234375 -2.671875 L 5.890625 -4.21875 L 3.765625 0.359375 L 8.0625 2.359375 Z M 7.53125 3.5 "/></g></g></g><g fill="#292c5d" fill-opacity="1"><g transform="translate(146.138571, 296.257997)"><g><path d="M 3.375 1.15625 L 1.984375 0.6875 L 6.4375 -12.21875 L 7.828125 -11.75 L 8.71875 -0.34375 L 12.140625 -10.265625 L 13.515625 -9.78125 L 9.0625 3.125 L 7.6875 2.640625 L 6.796875 -8.765625 Z M 3.375 1.15625 "/></g></g></g><g fill="#292c5d" fill-opacity="1"><g transform="translate(157.925042, 300.236981)"><g><path d="M 7.640625 -0.953125 L 7.90625 -2.078125 L 9.34375 -1.75 L 9.078125 -0.625 C 8.867188 0.289062 8.429688 0.929688 7.765625 1.296875 C 7.097656 1.671875 6.203125 1.726562 5.078125 1.46875 C 3.953125 1.21875 3.15625 0.773438 2.6875 0.140625 C 2.226562 -0.484375 2.101562 -1.253906 2.3125 -2.171875 L 4.1875 -10.359375 C 4.394531 -11.273438 4.832031 -11.914062 5.5 -12.28125 C 6.175781 -12.65625 7.078125 -12.710938 8.203125 -12.453125 C 9.328125 -12.203125 10.117188 -11.757812 10.578125 -11.125 C 11.035156 -10.5 11.160156 -9.726562 10.953125 -8.8125 L 10.515625 -6.875 L 9.078125 -7.203125 L 9.515625 -9.140625 C 9.765625 -10.234375 9.238281 -10.925781 7.9375 -11.21875 C 6.644531 -11.519531 5.875 -11.125 5.625 -10.03125 L 3.75 -1.84375 C 3.5 -0.738281 4.019531 -0.0390625 5.3125 0.25 C 6.613281 0.550781 7.390625 0.148438 7.640625 -0.953125 Z M 7.640625 -0.953125 "/></g></g></g><g fill="#292c5d" fill-opacity="1"><g transform="translate(168.52759, 302.553375)"><g><path d="M 5.171875 -0.53125 L 5 0.71875 L 1.453125 0.203125 L 1.625 -1.046875 L 2.65625 -0.890625 L 4.234375 -11.90625 L 3.203125 -12.0625 L 3.390625 -13.3125 L 6.9375 -12.796875 L 6.75 -11.546875 L 5.6875 -11.703125 L 4.109375 -0.6875 Z M 5.171875 -0.53125 "/></g></g></g><g fill="#292c5d" fill-opacity="1"><g transform="translate(175.521553, 303.605531)"><g><path d="M 4.765625 -13.390625 L 6.953125 -13.25 L 9.203125 0.5625 L 7.734375 0.46875 L 7.203125 -2.71875 L 3.21875 -2.96875 L 2.3125 0.140625 L 0.84375 0.046875 Z M 5.734375 -11.6875 L 3.5625 -4.1875 L 6.984375 -3.984375 Z M 5.734375 -11.6875 "/></g></g></g><g fill="#292c5d" fill-opacity="1"><g transform="translate(186.063981, 304.139682)"><g/></g></g><g fill="#292c5d" fill-opacity="1"><g transform="translate(191.352957, 304.128772)"><g><path d="M 3.546875 -0.28125 L 2.09375 -0.15625 L 1.03125 -13.765625 L 6.78125 -14.21875 L 6.890625 -12.96875 L 2.59375 -12.640625 L 2.953125 -7.828125 L 6.421875 -8.09375 L 6.53125 -6.828125 L 3.0625 -6.5625 Z M 3.546875 -0.28125 "/></g></g></g><g fill="#292c5d" fill-opacity="1"><g transform="translate(200.680634, 303.407923)"><g><path d="M 3.515625 -0.609375 L 2.0625 -0.359375 L -0.25 -13.8125 L 2.875 -14.34375 C 3.957031 -14.53125 4.820312 -14.414062 5.46875 -14 C 6.113281 -13.582031 6.515625 -12.914062 6.671875 -12 L 7.171875 -9.109375 C 7.410156 -7.703125 6.957031 -6.703125 5.8125 -6.109375 L 9.203125 -1.578125 L 7.625 -1.3125 L 4.375 -5.65625 L 2.703125 -5.375 Z M 5.71875 -8.859375 L 5.21875 -11.75 C 5.125 -12.28125 4.894531 -12.664062 4.53125 -12.90625 C 4.164062 -13.144531 3.6875 -13.210938 3.09375 -13.109375 L 1.421875 -12.828125 L 2.484375 -6.609375 L 4.15625 -6.890625 C 5.382812 -7.097656 5.90625 -7.753906 5.71875 -8.859375 Z M 5.71875 -8.859375 "/></g></g></g><g fill="#292c5d" fill-opacity="1"><g transform="translate(211.387373, 301.532938)"><g><path d="M 0.15625 -14.21875 L 2.28125 -14.796875 L 8.890625 -2.453125 L 7.46875 -2.0625 L 5.9375 -4.921875 L 2.078125 -3.859375 L 2.234375 -0.609375 L 0.8125 -0.21875 Z M 1.640625 -12.90625 L 2 -5.125 L 5.328125 -6.03125 Z M 1.640625 -12.90625 "/></g></g></g><g fill="#292c5d" fill-opacity="1"><g transform="translate(221.799566, 298.669159)"><g><path d="M 3.3125 -1.3125 L 1.953125 -0.765625 L -3.046875 -13.46875 L -1.6875 -14.015625 L 6.40625 -5.921875 L 2.5625 -15.6875 L 3.921875 -16.21875 L 8.921875 -3.515625 L 7.5625 -2.984375 L -0.53125 -11.078125 Z M 3.3125 -1.3125 "/></g></g></g><g fill="#292c5d" fill-opacity="1"><g transform="translate(233.283181, 294.030374)"><g><path d="M -4.734375 -11.5 L -5.3125 -12.625 L 0.796875 -15.765625 L 1.375 -14.640625 L 1.4375 -2.15625 L 6.375 -4.703125 L 6.953125 -3.578125 L 0.65625 -0.328125 L 0.078125 -1.453125 L 0.015625 -13.9375 Z M -4.734375 -11.5 "/></g></g></g><g fill="#292c5d" fill-opacity="1"><g transform="translate(241.665201, 289.737272)"><g><path d="M 1.5625 -14.09375 L 6.09375 -7.015625 C 6.601562 -6.234375 6.742188 -5.46875 6.515625 -4.71875 C 6.296875 -3.96875 5.6875 -3.269531 4.6875 -2.625 C 3.695312 -1.988281 2.804688 -1.722656 2.015625 -1.828125 C 1.234375 -1.941406 0.585938 -2.390625 0.078125 -3.171875 L -4.453125 -10.25 C -4.960938 -11.039062 -5.101562 -11.8125 -4.875 -12.5625 C -4.65625 -13.3125 -4.046875 -14.003906 -3.046875 -14.640625 C -2.046875 -15.285156 -1.15625 -15.550781 -0.375 -15.4375 C 0.40625 -15.332031 1.050781 -14.882812 1.5625 -14.09375 Z M 4.859375 -6.21875 L 0.328125 -13.296875 C -0.273438 -14.234375 -1.164062 -14.320312 -2.34375 -13.5625 C -3.53125 -12.8125 -3.820312 -11.96875 -3.21875 -11.03125 L 1.3125 -3.953125 C 1.925781 -3.015625 2.820312 -2.921875 4 -3.671875 C 5.1875 -4.429688 5.472656 -5.28125 4.859375 -6.21875 Z M 4.859375 -6.21875 "/></g></g></g><g fill="#292c5d" fill-opacity="1"><g transform="translate(251.168173, 283.539373)"><g><path d="M -2.4375 -15.421875 L -1.65625 -14.421875 L -3.8125 -12.734375 L 3.8125 -2.96875 L 2.65625 -2.0625 L -4.96875 -11.828125 L -7.125 -10.15625 L -7.90625 -11.15625 Z M -2.4375 -15.421875 "/></g></g></g><g fill="#292c5d" fill-opacity="1"><g transform="translate(258.047207, 278.144547)"><g><path d="M -3.65625 -15.171875 L -2.796875 -14.234375 L -4.8125 -12.390625 L 3.5625 -3.265625 L 2.46875 -2.265625 L -5.90625 -11.390625 L -7.921875 -9.546875 L -8.78125 -10.484375 Z M -3.65625 -15.171875 "/></g></g></g><g fill="#292c5d" fill-opacity="1"><g transform="translate(264.412646, 272.239038)"><g><path d="M 2.546875 -4.546875 L 3.46875 -3.671875 L 1.015625 -1.0625 L 0.09375 -1.9375 L 0.796875 -2.703125 L -7.296875 -10.328125 L -8 -9.5625 L -8.921875 -10.4375 L -6.46875 -13.046875 L -5.546875 -12.171875 L -6.28125 -11.390625 L 1.8125 -3.765625 Z M 2.546875 -4.546875 "/></g></g></g></svg>