<svg xmlns="http://www.w3.org/2000/svg" xmlns:xlink="http://www.w3.org/1999/xlink" width="500" zoomAndPan="magnify" viewBox="0 0 375 374.999991" height="500" preserveAspectRatio="xMidYMid meet" version="1.0"><defs><g/><clipPath id="id1"><path d="M 108.636719 178.175781 L 113.613281 178.175781 L 113.613281 183.152344 L 108.636719 183.152344 Z M 108.636719 178.175781 " clip-rule="nonzero"/></clipPath><clipPath id="id2"><path d="M 259.933594 178.175781 L 264.910156 178.175781 L 264.910156 183.152344 L 259.933594 183.152344 Z M 259.933594 178.175781 " clip-rule="nonzero"/></clipPath><clipPath id="id3"><path d="M 82.957031 82.957031 L 292.207031 82.957031 L 292.207031 292.207031 L 82.957031 292.207031 Z M 82.957031 82.957031 " clip-rule="nonzero"/></clipPath></defs><g clip-path="url(#id1)"><path fill="#000000" d="M 111.125 183.152344 C 109.753906 183.152344 108.636719 182.035156 108.636719 180.664062 C 108.636719 179.292969 109.753906 178.175781 111.125 178.175781 C 112.496094 178.175781 113.609375 179.292969 113.609375 180.664062 C 113.613281 182.035156 112.496094 183.152344 111.125 183.152344 Z M 111.125 179.546875 C 110.507812 179.546875 110.007812 180.046875 110.007812 180.664062 C 110.007812 181.277344 110.507812 181.78125 111.125 181.78125 C 111.738281 181.78125 112.242188 181.277344 112.242188 180.664062 C 112.242188 180.046875 111.742188 179.546875 111.125 179.546875 Z M 111.125 179.546875 " fill-opacity="1" fill-rule="nonzero"/></g><g clip-path="url(#id2)"><path fill="#000000" d="M 262.417969 183.152344 C 261.050781 183.152344 259.933594 182.035156 259.933594 180.664062 C 259.933594 179.292969 261.050781 178.175781 262.417969 178.175781 C 263.792969 178.175781 264.90625 179.292969 264.90625 180.664062 C 264.910156 182.035156 263.792969 183.152344 262.417969 183.152344 Z M 262.417969 179.546875 C 261.804688 179.546875 261.300781 180.046875 261.300781 180.664062 C 261.300781 181.277344 261.804688 181.78125 262.417969 181.78125 C 263.035156 181.78125 263.539062 181.277344 263.539062 180.664062 C 263.539062 180.046875 263.039062 179.546875 262.417969 179.546875 Z M 262.417969 179.546875 " fill-opacity="1" fill-rule="nonzero"/></g><g clip-path="url(#id3)"><path fill="#2e335d" d="M 187.582031 292.207031 C 129.894531 292.207031 82.957031 245.273438 82.957031 187.582031 C 82.957031 129.894531 129.894531 82.957031 187.582031 82.957031 C 245.273438 82.957031 292.207031 129.894531 292.207031 187.582031 C 292.207031 245.273438 245.273438 292.207031 187.582031 292.207031 Z M 187.582031 84.8125 C 130.914062 84.8125 84.8125 130.914062 84.8125 187.582031 C 84.8125 244.25 130.914062 290.351562 187.582031 290.351562 C 244.25 290.351562 290.351562 244.25 290.351562 187.582031 C 290.351562 130.914062 244.25 84.8125 187.582031 84.8125 Z M 187.582031 84.8125 " fill-opacity="1" fill-rule="nonzero"/></g><g fill="#2e335d" fill-opacity="1"><g transform="translate(150.246088, 205.124987)"><g><path d="M 76.765625 -42.203125 C 77.140625 -41.984375 77.375 -41.691406 77.46875 -41.328125 C 77.570312 -40.960938 77.515625 -40.59375 77.296875 -40.21875 C 76.960938 -39.6875 76.554688 -39.203125 76.078125 -38.765625 C 75.109375 -37.867188 74.035156 -37.054688 72.859375 -36.328125 C 66.960938 -32.472656 60.613281 -29.539062 53.8125 -27.53125 C 53.5 -27.445312 53.1875 -27.347656 52.875 -27.234375 C 52.414062 -27.085938 51.945312 -26.945312 51.46875 -26.8125 C 51.34375 -26.757812 51.222656 -26.773438 51.109375 -26.859375 C 50.992188 -26.941406 50.925781 -27.054688 50.90625 -27.203125 C 50.90625 -27.273438 50.929688 -27.359375 50.984375 -27.453125 C 51.035156 -27.546875 51.097656 -27.609375 51.171875 -27.640625 C 51.742188 -27.878906 52.335938 -28.097656 52.953125 -28.296875 C 59.785156 -30.566406 66.179688 -33.71875 72.140625 -37.75 C 72.867188 -38.28125 73.578125 -38.832031 74.265625 -39.40625 C 74.347656 -39.488281 74.445312 -39.5625 74.5625 -39.625 C 74.914062 -39.914062 75.164062 -40.28125 75.3125 -40.71875 C 75.40625 -40.976562 75.332031 -41.195312 75.09375 -41.375 C 74.820312 -41.550781 74.519531 -41.65625 74.1875 -41.6875 C 74.125 -41.6875 74.0625 -41.691406 74 -41.703125 C 72.695312 -41.929688 71.390625 -42.046875 70.078125 -42.046875 C 68.773438 -42.046875 67.472656 -41.988281 66.171875 -41.875 C 63.210938 -41.582031 60.269531 -41.179688 57.34375 -40.671875 C 54.414062 -40.171875 51.5 -39.613281 48.59375 -39 C 39.957031 -37.175781 31.46875 -34.863281 23.125 -32.0625 C 20.144531 -31.0625 17.195312 -30 14.28125 -28.875 C 11.363281 -27.757812 8.484375 -26.53125 5.640625 -25.1875 C 4.867188 -24.8125 4.097656 -24.4375 3.328125 -24.0625 C 2.921875 -23.84375 2.5 -23.625 2.0625 -23.40625 C 1.988281 -23.382812 1.929688 -23.347656 1.890625 -23.296875 C 1.597656 -23.148438 1.296875 -23.03125 0.984375 -22.9375 C 0.835938 -22.882812 0.679688 -22.859375 0.515625 -22.859375 C 0.347656 -22.867188 0.222656 -22.941406 0.140625 -23.078125 C 0.046875 -23.253906 0.0390625 -23.40625 0.125 -23.53125 C 0.21875 -23.664062 0.34375 -23.78125 0.5 -23.875 C 0.519531 -23.894531 0.550781 -23.914062 0.59375 -23.9375 C 1.320312 -24.351562 2.070312 -24.765625 2.84375 -25.171875 C 5.3125 -26.421875 7.828125 -27.570312 10.390625 -28.625 C 12.953125 -29.675781 15.546875 -30.671875 18.171875 -31.609375 C 28.722656 -35.367188 39.484375 -38.347656 50.453125 -40.546875 C 53.085938 -41.078125 55.726562 -41.5625 58.375 -42 C 61.019531 -42.445312 63.679688 -42.78125 66.359375 -43 C 67.128906 -43.039062 67.910156 -43.082031 68.703125 -43.125 C 69.054688 -43.15625 69.421875 -43.179688 69.796875 -43.203125 C 71.453125 -43.203125 73.109375 -43.082031 74.765625 -42.84375 C 75.460938 -42.75 76.128906 -42.535156 76.765625 -42.203125 Z M 35.9375 -11.453125 C 36.09375 -11.421875 36.238281 -11.367188 36.375 -11.296875 C 36.507812 -11.222656 36.609375 -11.140625 36.671875 -11.046875 C 36.734375 -10.960938 36.742188 -10.878906 36.703125 -10.796875 C 36.585938 -10.648438 36.457031 -10.566406 36.3125 -10.546875 C 36.175781 -10.535156 36.046875 -10.53125 35.921875 -10.53125 C 35.890625 -10.53125 35.863281 -10.53125 35.84375 -10.53125 C 33.488281 -10.53125 31.117188 -10.414062 28.734375 -10.1875 C 27.484375 -10.082031 26.21875 -9.992188 24.9375 -9.921875 C 24.519531 -9.898438 24.234375 -9.679688 24.078125 -9.265625 C 23.953125 -8.929688 23.804688 -8.597656 23.640625 -8.265625 C 23.566406 -8.078125 23.492188 -7.882812 23.421875 -7.6875 C 23.109375 -6.976562 22.8125 -6.28125 22.53125 -5.59375 C 20.113281 0.300781 17.59375 6.15625 14.96875 11.96875 C 14.21875 13.582031 13.421875 15.164062 12.578125 16.71875 C 12.578125 16.738281 12.566406 16.757812 12.546875 16.78125 C 12.285156 17.289062 11.957031 17.78125 11.5625 18.25 C 11.207031 18.664062 10.75 18.804688 10.1875 18.671875 C 10.019531 18.628906 9.878906 18.550781 9.765625 18.4375 C 9.660156 18.320312 9.609375 18.179688 9.609375 18.015625 C 9.640625 17.640625 9.707031 17.265625 9.8125 16.890625 C 9.894531 16.628906 9.984375 16.351562 10.078125 16.0625 C 10.515625 14.632812 10.976562 13.203125 11.46875 11.765625 C 13.675781 5.453125 16.238281 -0.710938 19.15625 -6.734375 C 19.425781 -7.296875 19.75 -7.851562 20.125 -8.40625 C 20.207031 -8.539062 20.332031 -8.617188 20.5 -8.640625 C 20.664062 -8.660156 20.820312 -8.648438 20.96875 -8.609375 C 21.238281 -8.523438 21.335938 -8.316406 21.265625 -7.984375 C 21.203125 -7.660156 21.066406 -7.28125 20.859375 -6.84375 C 20.660156 -6.414062 20.457031 -6.035156 20.25 -5.703125 C 20.09375 -5.429688 19.984375 -5.234375 19.921875 -5.109375 C 16.898438 1.390625 15.210938 5.179688 14.859375 6.265625 C 14.734375 6.628906 14.671875 6.875 14.671875 7 C 14.671875 7.132812 14.710938 7.191406 14.796875 7.171875 C 14.890625 7.148438 14.988281 7.085938 15.09375 6.984375 C 15.207031 6.890625 15.3125 6.785156 15.40625 6.671875 C 15.507812 6.566406 15.570312 6.492188 15.59375 6.453125 C 15.726562 6.117188 15.867188 5.78125 16.015625 5.4375 C 16.503906 4.300781 16.992188 3.175781 17.484375 2.0625 C 17.628906 1.726562 17.769531 1.394531 17.90625 1.0625 C 18.9375 -1.375 19.957031 -3.816406 20.96875 -6.265625 C 21.019531 -6.347656 21.085938 -6.484375 21.171875 -6.671875 C 21.347656 -7.015625 21.535156 -7.421875 21.734375 -7.890625 C 21.941406 -8.367188 22.070312 -8.796875 22.125 -9.171875 C 22.175781 -9.546875 22.078125 -9.742188 21.828125 -9.765625 C 21.328125 -9.765625 20.820312 -9.765625 20.3125 -9.765625 C 19.976562 -9.765625 19.648438 -9.765625 19.328125 -9.765625 C 19.046875 -9.765625 18.75 -9.765625 18.4375 -9.765625 C 17.46875 -9.765625 16.5 -9.773438 15.53125 -9.796875 C 15.269531 -9.816406 15.023438 -9.882812 14.796875 -10 C 14.785156 -10.019531 14.769531 -10.054688 14.75 -10.109375 C 14.738281 -10.160156 14.722656 -10.222656 14.703125 -10.296875 C 14.703125 -10.316406 14.703125 -10.335938 14.703125 -10.359375 C 14.703125 -10.378906 14.710938 -10.398438 14.734375 -10.421875 C 14.765625 -10.453125 14.785156 -10.476562 14.796875 -10.5 C 14.929688 -10.582031 15.0625 -10.632812 15.1875 -10.65625 C 15.320312 -10.675781 15.457031 -10.6875 15.59375 -10.6875 C 15.632812 -10.6875 15.675781 -10.6875 15.71875 -10.6875 C 16.269531 -10.707031 16.820312 -10.726562 17.375 -10.75 C 18.800781 -10.84375 20.234375 -10.898438 21.671875 -10.921875 C 22.160156 -10.921875 22.539062 -11.023438 22.8125 -11.234375 C 23.09375 -11.441406 23.304688 -11.765625 23.453125 -12.203125 C 24.160156 -14.035156 24.875 -15.863281 25.59375 -17.6875 C 26.363281 -19.625 27.125 -21.566406 27.875 -23.515625 C 28.445312 -25.003906 28.988281 -26.5 29.5 -28 C 29.78125 -28.789062 30.066406 -29.59375 30.359375 -30.40625 C 30.359375 -30.4375 30.367188 -30.460938 30.390625 -30.484375 C 30.503906 -30.828125 30.648438 -31.144531 30.828125 -31.4375 C 30.929688 -31.59375 31.0625 -31.675781 31.21875 -31.6875 C 31.375 -31.695312 31.539062 -31.679688 31.71875 -31.640625 C 31.84375 -31.566406 31.941406 -31.476562 32.015625 -31.375 C 32.097656 -31.28125 32.128906 -31.164062 32.109375 -31.03125 C 32.046875 -30.53125 31.945312 -30.035156 31.8125 -29.546875 C 31.082031 -27.148438 30.257812 -24.796875 29.34375 -22.484375 C 29.289062 -22.421875 29.253906 -22.351562 29.234375 -22.28125 C 28.398438 -20.101562 27.546875 -17.9375 26.671875 -15.78125 C 26.265625 -14.789062 25.863281 -13.800781 25.46875 -12.8125 C 25.46875 -12.789062 25.46875 -12.78125 25.46875 -12.78125 C 25.351562 -12.488281 25.242188 -12.1875 25.140625 -11.875 C 25.023438 -11.59375 25.015625 -11.390625 25.109375 -11.265625 C 25.210938 -11.140625 25.429688 -11.078125 25.765625 -11.078125 C 26.203125 -11.078125 26.644531 -11.101562 27.09375 -11.15625 C 27.289062 -11.15625 27.488281 -11.15625 27.6875 -11.15625 C 27.726562 -11.15625 27.757812 -11.164062 27.78125 -11.1875 C 30.3125 -11.28125 32.832031 -11.367188 35.34375 -11.453125 C 35.539062 -11.472656 35.738281 -11.472656 35.9375 -11.453125 Z M 35.9375 -11.453125 "/></g></g></g><g fill="#2e335d" fill-opacity="1"><g transform="translate(115.356366, 152.154293)"><g><path d="M -6.328125 -7.519531 L -3.035156 -12.875 L -4.03125 -13.488281 L -8.101562 -6.867188 L 0.839844 -1.367188 L 4.910156 -7.984375 L 3.914062 -8.597656 L 0.621094 -3.246094 L -2.480469 -5.15625 L 0.652344 -10.253906 L -0.304688 -10.84375 L -3.441406 -5.742188 Z M -6.328125 -7.519531 "/></g></g></g><g fill="#2e335d" fill-opacity="1"><g transform="translate(121.219887, 142.634927)"><g><path d="M -0.710938 -8.519531 C -2.46875 -6.839844 -3.21875 -6.316406 -4.070312 -7.03125 C -5.058594 -7.859375 -4.550781 -9.425781 -3.4375 -10.824219 C -2.578125 -11.921875 -1.347656 -12.945312 -0.203125 -13.378906 L -0.988281 -14.308594 C -2.300781 -13.605469 -3.5 -12.597656 -4.382812 -11.515625 C -6.054688 -9.472656 -6.554688 -7.191406 -4.945312 -5.84375 C -3.519531 -4.652344 -2.328125 -5.511719 -0.210938 -7.550781 C 1.378906 -9.078125 2.394531 -9.871094 3.429688 -9.003906 C 4.558594 -8.058594 4.246094 -6.753906 2.691406 -4.964844 C 1.734375 -3.847656 0.421875 -3.070312 -0.792969 -2.601562 L 0.121094 -1.777344 C 1.207031 -2.140625 2.703125 -3.039062 3.667969 -4.167969 C 5.683594 -6.550781 6.097656 -8.707031 4.292969 -10.21875 C 2.707031 -11.546875 1.191406 -10.347656 -0.710938 -8.519531 Z M -0.710938 -8.519531 "/></g></g></g><g fill="#2e335d" fill-opacity="1"><g transform="translate(129.316488, 133.067404)"><g><path d="M -2.292969 -11.957031 L -5.71875 -8.949219 L 1.207031 -1.058594 L 2.324219 -2.039062 L 0.136719 -4.53125 L 2.445312 -6.558594 C 4.554688 -8.410156 4.964844 -10.785156 3.460938 -12.496094 C 2.105469 -14.042969 -0.195312 -13.820312 -2.292969 -11.957031 Z M 2.386719 -11.472656 C 3.425781 -10.289062 3.148438 -8.671875 1.707031 -7.402344 L -0.605469 -5.375 L -3.832031 -9.050781 L -1.519531 -11.078125 C -0.078125 -12.34375 1.476562 -12.511719 2.386719 -11.472656 Z M 2.386719 -11.472656 "/></g></g></g><g fill="#2e335d" fill-opacity="1"><g transform="translate(138.716737, 124.901374)"><g><path d="M 9.558594 -6.105469 L 0.300781 -12.652344 L -1.859375 -11.269531 L 0.175781 -0.113281 L 1.492188 -0.953125 L 0.945312 -3.84375 L 5.851562 -6.976562 L 8.242188 -5.265625 Z M 4.953125 -7.683594 L 0.679688 -4.953125 L -0.488281 -10.992188 L -0.0585938 -11.265625 Z M 4.953125 -7.683594 "/></g></g></g><g fill="#2e335d" fill-opacity="1"><g transform="translate(149.088664, 118.312816)"><g><path d="M 5.785156 -2.421875 C 8.503906 -3.613281 9.695312 -5.871094 8.738281 -8.054688 L 7.363281 -7.453125 C 8.039062 -5.914062 7.226562 -4.328125 5.328125 -3.5 C 3.308594 -2.613281 1.238281 -3.636719 0.167969 -6.082031 C -0.789062 -8.269531 -0.0703125 -10.320312 1.949219 -11.207031 C 3.765625 -12 5.476562 -11.570312 6.195312 -10.117188 L 7.570312 -10.71875 C 6.636719 -12.847656 4.1875 -13.464844 1.46875 -12.269531 C -1.363281 -11.03125 -2.433594 -8.316406 -1.191406 -5.488281 C 0.15625 -2.410156 2.953125 -1.179688 5.785156 -2.421875 Z M 5.785156 -2.421875 "/></g></g></g><g fill="#2e335d" fill-opacity="1"><g transform="translate(161.289497, 113.26232)"><g><path d="M 1.535156 -0.46875 L 2.953125 -0.90625 L -0.121094 -10.945312 L -1.539062 -10.507812 Z M 1.535156 -0.46875 "/></g></g></g><g fill="#2e335d" fill-opacity="1"><g transform="translate(166.640125, 111.445059)"><g><path d="M 6.128906 -1.011719 C 9.136719 -1.5625 10.75 -4.082031 10.160156 -7.3125 C 9.59375 -10.425781 7.207031 -12.140625 4.195312 -11.59375 C 1.1875 -11.042969 -0.433594 -8.550781 0.148438 -5.363281 C 0.726562 -2.207031 3.117188 -0.460938 6.128906 -1.011719 Z M 5.917969 -2.164062 C 3.792969 -1.773438 2.066406 -3.136719 1.621094 -5.570312 C 1.15625 -8.109375 2.28125 -10.054688 4.40625 -10.441406 C 6.546875 -10.832031 8.261719 -9.453125 8.710938 -6.988281 C 9.167969 -4.480469 8.058594 -2.554688 5.917969 -2.164062 Z M 5.917969 -2.164062 "/></g></g></g><g fill="#2e335d" fill-opacity="1"><g transform="translate(179.855141, 109.334049)"><g/></g></g><g fill="#2e335d" fill-opacity="1"><g transform="translate(184.390973, 108.829476)"><g><path d="M 6.261719 0.347656 C 9.230469 0.464844 11.285156 -1.046875 11.378906 -3.429688 L 9.878906 -3.488281 C 9.8125 -1.808594 8.390625 -0.738281 6.320312 -0.820312 C 4.117188 -0.90625 2.703125 -2.730469 2.808594 -5.398438 C 2.898438 -7.78125 4.445312 -9.3125 6.648438 -9.226562 C 8.628906 -9.152344 9.980469 -8.019531 9.992188 -6.394531 L 11.488281 -6.339844 C 11.582031 -8.660156 9.648438 -10.28125 6.679688 -10.398438 C 3.589844 -10.519531 1.441406 -8.546875 1.324219 -5.457031 C 1.191406 -2.101562 3.171875 0.230469 6.261719 0.347656 Z M 6.261719 0.347656 "/></g></g></g><g fill="#2e335d" fill-opacity="1"><g transform="translate(197.381691, 109.396685)"><g><path d="M 9.417969 -3.175781 L 9.433594 -3.25 C 10.613281 -3.179688 11.777344 -4.109375 12.074219 -5.597656 C 12.394531 -7.183594 11.09375 -8.484375 8.84375 -8.9375 L 3.636719 -9.980469 L 1.574219 0.316406 L 3.03125 0.605469 L 3.894531 -3.714844 L 7.484375 -2.996094 C 9 -2.695312 9.863281 -1.738281 9.640625 -0.621094 L 9.191406 1.84375 L 10.632812 2.132812 L 11.164062 -0.515625 C 11.402344 -1.707031 10.59375 -2.789062 9.417969 -3.175781 Z M 7.839844 -4.074219 L 4.117188 -4.820312 L 4.871094 -8.585938 L 8.402344 -7.878906 C 9.902344 -7.578125 10.78125 -6.695312 10.5625 -5.609375 C 10.324219 -4.417969 9.234375 -3.792969 7.839844 -4.074219 Z M 7.839844 -4.074219 "/></g></g></g><g fill="#2e335d" fill-opacity="1"><g transform="translate(210.050479, 112.063256)"><g><path d="M 6.070312 -7.730469 L 11.984375 -5.597656 L 12.378906 -6.699219 L 5.070312 -9.335938 L 1.511719 0.542969 L 8.820312 3.179688 L 9.214844 2.078125 L 3.304688 -0.0546875 L 4.539062 -3.480469 L 10.167969 -1.453125 L 10.550781 -2.511719 L 4.921875 -4.539062 Z M 6.070312 -7.730469 "/></g></g></g><g fill="#2e335d" fill-opacity="1"><g transform="translate(220.569132, 115.869515)"><g><path d="M 10.003906 5.339844 L 11.175781 -5.9375 L 8.914062 -7.144531 L 0.183594 0.0976562 L 1.5625 0.832031 L 3.8125 -1.058594 L 8.949219 1.679688 L 8.628906 4.605469 Z M 9.125 0.550781 L 4.652344 -1.835938 L 9.339844 -5.8125 L 9.792969 -5.570312 Z M 9.125 0.550781 "/></g></g></g><g fill="#2e335d" fill-opacity="1"><g transform="translate(231.403658, 121.759264)"><g><path d="M 14.429688 -2.40625 L 6.511719 -8.246094 L 5.816406 -7.304688 L 9.183594 -4.820312 L 3.644531 2.6875 L 4.828125 3.5625 L 10.367188 -3.945312 L 13.734375 -1.464844 Z M 14.429688 -2.40625 "/></g></g></g><g fill="#2e335d" fill-opacity="1"><g transform="translate(240.54961, 128.761749)"><g><path d="M 1.183594 1.082031 L 2.277344 2.085938 L 9.367188 -5.660156 L 8.273438 -6.660156 Z M 1.183594 1.082031 "/></g></g></g><g fill="#2e335d" fill-opacity="1"><g transform="translate(244.825778, 132.493165)"><g><path d="M 2.933594 3.351562 L 4.582031 5.238281 L 15.207031 1.484375 L 14.199219 0.332031 L 4.691406 3.789062 L 4.355469 3.40625 L 9.046875 -5.5625 L 8.039062 -6.710938 Z M 2.933594 3.351562 "/></g></g></g><g fill="#2e335d" fill-opacity="1"><g transform="translate(252.820953, 141.667611)"><g><path d="M 3.226562 5.308594 C 4.859375 7.894531 7.800781 8.449219 10.578125 6.695312 C 13.253906 5.007812 13.953125 2.152344 12.320312 -0.433594 C 10.6875 -3.023438 7.769531 -3.59375 5.03125 -1.863281 C 2.316406 -0.152344 1.59375 2.71875 3.226562 5.308594 Z M 4.214844 4.683594 C 3.0625 2.855469 3.679688 0.746094 5.773438 -0.578125 C 7.957031 -1.953125 10.179688 -1.636719 11.332031 0.1875 C 12.492188 2.027344 11.855469 4.136719 9.734375 5.472656 C 7.578125 6.832031 5.378906 6.519531 4.214844 4.683594 Z M 4.214844 4.683594 "/></g></g></g><g fill="#2e335d" fill-opacity="1"><g transform="translate(103.960702, 199.947197)"><g><path d="M 11.835938 7.617188 L 10.621094 -0.0585938 L 0.25 1.585938 L 0.484375 3.050781 L 5.195312 2.304688 L 6.128906 8.21875 L 7.242188 8.042969 L 6.304688 2.128906 L 9.699219 1.59375 L 10.679688 7.800781 Z M 11.835938 7.617188 "/></g></g></g><g fill="#2e335d" fill-opacity="1"><g transform="translate(106.108637, 212.324943)"><g><path d="M 3.933594 8.589844 L 2.046875 2.59375 L 10.941406 -0.210938 L 10.496094 -1.625 L 0.484375 1.53125 L 2.820312 8.941406 Z M 3.933594 8.589844 "/></g></g></g><g fill="#2e335d" fill-opacity="1"><g transform="translate(109.916846, 224.089246)"><g><path d="M 2.707031 5.589844 C 4.085938 8.320312 6.960938 9.15625 9.890625 7.675781 C 12.71875 6.246094 13.683594 3.472656 12.304688 0.742188 C 10.925781 -1.988281 8.078125 -2.835938 5.1875 -1.375 C 2.320312 0.0703125 1.328125 2.859375 2.707031 5.589844 Z M 3.75 5.0625 C 2.777344 3.136719 3.59375 1.09375 5.800781 -0.0234375 C 8.105469 -1.1875 10.289062 -0.660156 11.261719 1.269531 C 12.242188 3.210938 11.40625 5.246094 9.167969 6.375 C 6.894531 7.527344 4.730469 7.003906 3.75 5.0625 Z M 3.75 5.0625 "/></g></g></g><g fill="#2e335d" fill-opacity="1"><g transform="translate(116.846649, 237.289641)"><g><path d="M 9.140625 3.902344 L 9.199219 3.859375 C 10.035156 4.695312 11.523438 4.777344 12.734375 3.867188 C 14.03125 2.894531 13.925781 1.058594 12.546875 -0.777344 L 9.359375 -5.023438 L 0.964844 1.285156 L 1.855469 2.472656 L 5.382812 -0.175781 L 7.578125 2.75 C 8.507812 3.984375 8.515625 5.273438 7.605469 5.957031 L 5.628906 7.496094 L 6.511719 8.671875 L 8.671875 7.050781 C 9.644531 6.320312 9.757812 4.976562 9.140625 3.902344 Z M 8.558594 2.179688 L 6.28125 -0.851562 L 9.351562 -3.160156 L 11.515625 -0.28125 C 12.433594 0.941406 12.503906 2.183594 11.613281 2.851562 C 10.644531 3.582031 9.417969 3.320312 8.558594 2.179688 Z M 8.558594 2.179688 "/></g></g></g><g fill="#2e335d" fill-opacity="1"><g transform="translate(125.814683, 248.785989)"><g><path d="M 8.683594 -4.605469 L 13.222656 -0.261719 L 14.03125 -1.105469 L 8.417969 -6.476562 L 1.160156 1.109375 L 6.773438 6.480469 L 7.582031 5.636719 L 3.042969 1.289062 L 5.5625 -1.34375 L 9.886719 2.792969 L 10.664062 1.980469 L 6.339844 -2.15625 Z M 8.683594 -4.605469 "/></g></g></g><g fill="#2e335d" fill-opacity="1"><g transform="translate(135.155004, 257.555673)"><g><path d="M 1.335938 0.890625 L 2.5625 1.726562 L 7.398438 -5.449219 L 7.484375 -5.390625 L 7.351562 5.011719 L 8.917969 6.0625 L 14.824219 -2.601562 L 13.597656 -3.4375 L 8.789062 3.667969 L 8.703125 3.609375 L 8.800781 -6.707031 L 7.242188 -7.773438 Z M 1.335938 0.890625 "/></g></g></g><g fill="#2e335d" fill-opacity="1"><g transform="translate(147.579476, 265.75132)"><g><path d="M 5.679688 2.660156 C 8.390625 3.875 10.859375 3.242188 11.835938 1.0625 L 10.464844 0.449219 C 9.777344 1.984375 8.058594 2.445312 6.171875 1.597656 C 4.160156 0.695312 3.527344 -1.527344 4.621094 -3.960938 C 5.59375 -6.136719 7.601562 -6.980469 9.613281 -6.078125 C 11.417969 -5.269531 12.25 -3.714844 11.65625 -2.203125 L 13.023438 -1.589844 C 13.976562 -3.714844 12.789062 -5.9375 10.078125 -7.152344 C 7.257812 -8.417969 4.527344 -7.390625 3.265625 -4.570312 C 1.890625 -1.503906 2.859375 1.398438 5.679688 2.660156 Z M 5.679688 2.660156 "/></g></g></g><g fill="#2e335d" fill-opacity="1"><g transform="translate(160.946038, 271.324046)"><g><path d="M 1.535156 0.464844 L 2.957031 0.894531 L 5.996094 -9.15625 L 4.574219 -9.585938 Z M 1.535156 0.464844 "/></g></g></g><g fill="#2e335d" fill-opacity="1"><g transform="translate(167.533492, 273.393028)"><g><path d="M 11.175781 1.921875 L 8.742188 -9.152344 L 6.214844 -9.585938 L 0.207031 0.0351562 L 1.746094 0.300781 L 3.285156 -2.203125 L 9.023438 -1.21875 L 9.636719 1.65625 Z M 8.835938 -2.347656 L 3.839844 -3.207031 L 7.039062 -8.453125 L 7.542969 -8.367188 Z M 8.835938 -2.347656 "/></g></g></g><g fill="#2e335d" fill-opacity="1"><g transform="translate(181.075076, 275.361763)"><g/></g></g><g fill="#2e335d" fill-opacity="1"><g transform="translate(186.527731, 275.596713)"><g/></g></g><g fill="#2e335d" fill-opacity="1"><g transform="translate(191.984107, 275.475778)"><g/></g></g><g fill="#2e335d" fill-opacity="1"><g transform="translate(197.66518, 275.107585)"><g><path d="M 7.296875 -12.035156 L -0.339844 -10.617188 L 1.578125 -0.292969 L 3.039062 -0.566406 L 2.167969 -5.253906 L 8.050781 -6.347656 L 7.84375 -7.453125 L 1.960938 -6.359375 L 1.332031 -9.738281 L 7.511719 -10.886719 Z M 7.296875 -12.035156 "/></g></g></g><g fill="#2e335d" fill-opacity="1"><g transform="translate(210.079246, 272.681269)"><g><path d="M 6.414062 -7.59375 L 6.386719 -7.664062 C 7.433594 -8.214844 7.949219 -9.613281 7.433594 -11.039062 C 6.882812 -12.5625 5.097656 -13.003906 2.941406 -12.222656 L -2.054688 -10.421875 L 1.507812 -0.542969 L 2.90625 -1.050781 L 1.410156 -5.195312 L 4.851562 -6.4375 C 6.304688 -6.964844 7.539062 -6.59375 7.925781 -5.523438 L 8.820312 -3.183594 L 10.199219 -3.679688 L 9.285156 -6.222656 C 8.871094 -7.363281 7.621094 -7.867188 6.414062 -7.59375 Z M 4.597656 -7.542969 L 1.027344 -6.253906 L -0.277344 -9.867188 L 3.109375 -11.089844 C 4.550781 -11.609375 5.757812 -11.3125 6.132812 -10.265625 C 6.546875 -9.125 5.9375 -8.027344 4.597656 -7.542969 Z M 4.597656 -7.542969 "/></g></g></g><g fill="#2e335d" fill-opacity="1"><g transform="translate(223.752175, 267.49537)"><g><path d="M 9.855469 -5.605469 L 0.949219 -12.621094 L -1.28125 -11.351562 L 0.183594 -0.105469 L 1.539062 -0.875 L 1.140625 -3.789062 L 6.199219 -6.667969 L 8.5 -4.835938 Z M 5.339844 -7.421875 L 0.933594 -4.914062 L 0.078125 -11 L 0.519531 -11.253906 Z M 5.339844 -7.421875 "/></g></g></g><g fill="#2e335d" fill-opacity="1"><g transform="translate(235.839054, 260.419106)"><g><path d="M 1.230469 -1.03125 L 2.375 -1.976562 L -3.164062 -8.628906 L -3.082031 -8.695312 L 6.863281 -5.65625 L 8.3125 -6.871094 L 1.644531 -14.960938 L 0.496094 -14.015625 L 5.976562 -7.414062 L 5.898438 -7.347656 L -3.980469 -10.324219 L -5.441406 -9.125 Z M 1.230469 -1.03125 "/></g></g></g><g fill="#2e335d" fill-opacity="1"><g transform="translate(247.060695, 250.784014)"><g><path d="M -1.800781 -13.871094 L -7.347656 -7.542969 L -6.46875 -6.773438 L -2.175781 -11.667969 L -2.121094 -11.617188 L -0.480469 -1.160156 L 0.355469 -0.40625 L 6.09375 -6.945312 L 5.214844 -7.71875 L 0.753906 -2.632812 L 0.671875 -2.703125 L -0.96875 -13.160156 Z M -1.800781 -13.871094 "/></g></g></g><g fill="#2e335d" fill-opacity="1"><g transform="translate(255.063736, 241.520941)"><g><path d="M 3.378906 -5.210938 C 5 -7.804688 4.226562 -10.695312 1.441406 -12.4375 C -1.242188 -14.113281 -4.117188 -13.503906 -5.742188 -10.910156 C -7.363281 -8.316406 -6.613281 -5.441406 -3.863281 -3.722656 C -1.140625 -2.023438 1.757812 -2.617188 3.378906 -5.210938 Z M 2.386719 -5.832031 C 1.242188 -4 -0.925781 -3.640625 -3.027344 -4.949219 C -5.214844 -6.320312 -5.894531 -8.457031 -4.75 -10.289062 C -3.59375 -12.132812 -1.421875 -12.472656 0.703125 -11.144531 C 2.867188 -9.792969 3.539062 -7.675781 2.386719 -5.832031 Z M 2.386719 -5.832031 "/></g></g></g><g fill="#2e335d" fill-opacity="1"><g transform="translate(262.694466, 228.784705)"><g><path d="M -5.804688 -13.425781 L -9.570312 -4.335938 L -8.488281 -3.886719 L -6.886719 -7.753906 L 1.734375 -4.183594 L 2.296875 -5.542969 L -6.324219 -9.113281 L -4.722656 -12.980469 Z M -5.804688 -13.425781 "/></g></g></g><g fill="#2e335d" fill-opacity="1"><g transform="translate(267.458804, 216.8009)"><g><path d="M -7.796875 -12.378906 L -10.121094 -2.816406 L -8.984375 -2.539062 L -7.996094 -6.605469 L 1.070312 -4.402344 L 1.417969 -5.832031 L -7.648438 -8.035156 L -6.660156 -12.101562 Z M -7.796875 -12.378906 "/></g></g></g><g fill="#2e335d" fill-opacity="1"><g transform="translate(270.167288, 204.407703)"><g><path d="M 0.195312 -1.59375 L 0.375 -3.066406 L -10.046875 -4.34375 L -10.226562 -2.867188 Z M 0.195312 -1.59375 "/></g></g></g></svg>